{
.appVersion = "1156";
DisplayStrings = (
ouuouo,
"u/uhorn",
H,
I,
"/rightanglebracket-math",
"/leftanglebracket-math/rightanglebracket-math",
"/horizontalbar",
"-",
"/figuredash",
"-­/endash/emdash/figuredash/horizontalbar",
"/hyphentwo",
"·",
"/periodcentered.loclCAT",
"/periodcentered.loclCAT",
"#",
"no/eng o"
);
classes = (
{
automatic = 1;

glyphs = (
{
color = 10;
glyphname = A;
lastChange = "2018-07-13 05:37:57 +0000";
layers = (
{
anchors = (
{
name = bottom;
position = "{678, 0}";
},
{
name = ogonek;
position = "{1222, 10}";
},
{
name = top;
position = "{682, 1419}";
}
);
guideLines = (
{
angle = 109.0197;
position = "{986, 132}";
},
{
angle = 109.0197;
position = "{1211, 132}";
}
);
layerId = "DD6F9F34-BC40-4E8F-B1D3-DF3B42A9710F";
paths = (
{
closed = 1;
nodes = (
"430 0 LINE SMOOTH",
"453 0 OFFCURVE",
"464 36 OFFCURVE",
"464 51 CURVE SMOOTH",
"464 72 OFFCURVE",
"457 85 OFFCURVE",
"431 88 CURVE",
"340 93 OFFCURVE",
"271 85 OFFCURVE",
"287 132 CURVE SMOOTH",
"423 537 LINE",
"364 494 LINE",
"920 494 LINE",
"860 537 LINE",
"1000 132 LINE SMOOTH",
"1016 85 OFFCURVE",
"957 93 OFFCURVE",
"866 88 CURVE",
"840 85 OFFCURVE",
"833 72 OFFCURVE",
"833 51 CURVE SMOOTH",
"833 36 OFFCURVE",
"844 0 OFFCURVE",
"867 0 CURVE SMOOTH",
"1368 0 LINE SMOOTH",
"1390 0 OFFCURVE",
"1402 36 OFFCURVE",
"1402 51 CURVE SMOOTH",
"1402 81 OFFCURVE",
"1394 85 OFFCURVE",
"1366 88 CURVE SMOOTH",
"1317 93 OFFCURVE",
"1246 77 OFFCURVE",
"1215 165 CURVE SMOOTH",
"760 1441 LINE",
"600 1441 LINE",
"162 165 LINE SMOOTH",
"131 76 OFFCURVE",
"58 93 OFFCURVE",
"9 88 CURVE SMOOTH",
"-19 85 OFFCURVE",
"-27 81 OFFCURVE",
"-27 51 CURVE SMOOTH",
"-27 24 OFFCURVE",
"-15 0 OFFCURVE",
"7 0 CURVE SMOOTH"
);
},
{
closed = 1;
nodes = (
"639 1187 LINE",
"860 537 LINE",
"890 580 LINE",
"393 580 LINE",
"424 537 LINE"
);
}
);
width = 1374;
},
{
anchors = (
{
name = bottom;
position = "{750, 0}";
},
{
name = ogonek;
position = "{1351, 10}";
},
{
name = top;
position = "{763, 1419}";
}
);
background = {
paths = (
{
closed = 1;
nodes = (
"467 0 LINE SMOOTH",
"490 0 OFFCURVE",
"491 36 OFFCURVE",
"491 51 CURVE SMOOTH",
"491 72 OFFCURVE",
"484 86 OFFCURVE",
"458 88 CURVE SMOOTH",
"365 96 OFFCURVE",
"283 101 OFFCURVE",
"295 132 CURVE SMOOTH",
"389 379 LINE",
"922 379 LINE",
"1015 160 LINE SMOOTH",
"1049 73 OFFCURVE",
"990 92 OFFCURVE",
"873 88 CURVE SMOOTH",
"847 87 OFFCURVE",
"840 72 OFFCURVE",
"840 51 CURVE SMOOTH",
"840 36 OFFCURVE",
"851 0 OFFCURVE",
"874 0 CURVE SMOOTH",
"1545 0 LINE SMOOTH",
"1567 0 OFFCURVE",
"1579 36 OFFCURVE",
"1579 51 CURVE SMOOTH",
"1579 82 OFFCURVE",
"1560 88 OFFCURVE",
"1534 90 CURVE SMOOTH",
"1491 93 OFFCURVE",
"1427 88 OFFCURVE",
"1392 165 CURVE SMOOTH {name = hr02;}",
"784 1452 LINE",
"710 1452 LINE",
"169 165 LINE SMOOTH",
"117 38 OFFCURVE",
"-20 131 OFFCURVE",
"-20 51 CURVE SMOOTH {name = hr03;}",
"-20 36 OFFCURVE",
"-18 0 OFFCURVE",
"4 0 CURVE SMOOTH {name = hr01;}"
);
},
{
closed = 1;
nodes = (
"654 1040 LINE",
"872 495 LINE",
"433 495 LINE"
);
}
);
};
guideLines = (
{
angle = 67.1056;
position = "{403, 777}";
},
{
angle = 67.1056;
position = "{541, 743}";
},
{
angle = 110.477;
position = "{823, 714}";
},
{
angle = 110.477;
position = "{1217, 714}";
},
{
angle = 270;
position = "{774, 770}";
}
);
layerId = "62CA62AF-CD91-478A-AB8B-28A62CC47DA0";
paths = (
{
closed = 1;
nodes = (
"446 0 LINE SMOOTH",
"469 0 OFFCURVE",
"480 36 OFFCURVE",
"480 51 CURVE SMOOTH",
"480 72 OFFCURVE",
"473 85 OFFCURVE",
"447 88 CURVE",
"356 93 OFFCURVE",
"285 86 OFFCURVE",
"303 132 CURVE SMOOTH",
"465 537 LINE",
"403 495 LINE",
"933 494 LINE",
"872 536 LINE",
"1021 132 LINE SMOOTH",
"1038 85 OFFCURVE",
"988 93 OFFCURVE",
"897 88 CURVE",
"871 85 OFFCURVE",
"864 72 OFFCURVE",
"864 51 CURVE SMOOTH",
"864 36 OFFCURVE",
"875 0 OFFCURVE",
"898 0 CURVE SMOOTH",
"1530 0 LINE SMOOTH",
"1552 0 OFFCURVE",
"1564 36 OFFCURVE",
"1564 51 CURVE SMOOTH",
"1564 81 OFFCURVE",
"1556 85 OFFCURVE",
"1528 88 CURVE SMOOTH",
"1479 93 OFFCURVE",
"1403 75 OFFCURVE",
"1367 165 CURVE SMOOTH",
"852 1441 LINE",
"676 1441 LINE",
"178 165 LINE SMOOTH",
"144 79 OFFCURVE",
"74 93 OFFCURVE",
"25 88 CURVE SMOOTH",
"-3 85 OFFCURVE",
"-11 81 OFFCURVE",
"-11 51 CURVE SMOOTH",
"-11 24 OFFCURVE",
"1 0 OFFCURVE",
"23 0 CURVE SMOOTH"
);
},
{
closed = 1;
nodes = (
"673 1055 LINE",
"871 538 LINE",
"900 580 LINE",
"445 580 LINE",
"472 539 LINE"
);
}
);
width = 1553;
}
);
leftKerningGroup = A;
rightKerningGroup = A;
unicode = 0041;
},
{
color = 10;
glyphname = Aogonek;
lastChange = "2018-07-13 05:38:22 +0000";
layers = (
{
components = (
{
name = A;
}
);
layerId = "DD6F9F34-BC40-4E8F-B1D3-DF3B42A9710F";
paths = (
{
closed = 1;
nodes = (
"1120 0 LINE",
"939 -43 OFFCURVE",
"875 -119 OFFCURVE",
"875 -224 CURVE SMOOTH",
"875 -329 OFFCURVE",
"984 -407 OFFCURVE",
"1114 -407 CURVE SMOOTH",
"1174 -407 OFFCURVE",
"1260 -389 OFFCURVE",
"1303 -360 CURVE SMOOTH",
"1333 -340 OFFCURVE",
"1327 -239 OFFCURVE",
"1303 -243 CURVE SMOOTH",
"1269 -249 OFFCURVE",
"1253 -259 OFFCURVE",
"1221 -259 CURVE SMOOTH",
"1132 -259 OFFCURVE",
"1098 -233 OFFCURVE",
"1098 -172 CURVE SMOOTH",
"1098 -96 OFFCURVE",
"1173 -32 OFFCURVE",
"1269 0 CURVE",
"1232 69 LINE"
);
}
);
width = 1374;
},
{
components = (
{
name = A;
}
);
layerId = "62CA62AF-CD91-478A-AB8B-28A62CC47DA0";
paths = (
{
closed = 1;
nodes = (
"1218 0 LINE",
"999 -52 OFFCURVE",
"931 -157 OFFCURVE",
"931 -264 CURVE SMOOTH",
"931 -370 OFFCURVE",
"1043 -444 OFFCURVE",
"1200 -444 CURVE SMOOTH",
"1273 -444 OFFCURVE",
"1377 -422 OFFCURVE",
"1429 -387 CURVE SMOOTH",
"1465 -363 OFFCURVE",
"1456 -237 OFFCURVE",
"1429 -246 CURVE SMOOTH",
"1388 -259 OFFCURVE",
"1368 -265 OFFCURVE",
"1330 -265 CURVE SMOOTH",
"1222 -265 OFFCURVE",
"1181 -234 OFFCURVE",
"1181 -184 CURVE SMOOTH",
"1181 -116 OFFCURVE",
"1273 -39 OFFCURVE",
"1388 0 CURVE",
"1293 32 LINE"
);
}
);
width = 1553;
}
);
leftKerningGroup = A;
rightKerningGroup = A;
unicode = 0104;
},
{
color = 10;
glyphname = AE;
lastChange = "2018-07-13 20:16:05 +0000";
layers = (
{
anchors = (
{
name = top;
position = "{1030, 1419}";
}
);
layerId = "DD6F9F34-BC40-4E8F-B1D3-DF3B42A9710F";
paths = (
{
closed = 1;
nodes = (
"391 0 LINE SMOOTH",
"414 0 OFFCURVE",
"425 36 OFFCURVE",
"425 51 CURVE SMOOTH",
"425 72 OFFCURVE",
"418 85 OFFCURVE",
"392 88 CURVE",
"271 93 OFFCURVE",
"211 98 OFFCURVE",
"234 142 CURVE SMOOTH",
"499 657 LINE",
"871 657 LINE",
"871 152 LINE SMOOTH",
"871 108 OFFCURVE",
"780 93 OFFCURVE",
"716 88 CURVE",
"690 85 OFFCURVE",
"683 72 OFFCURVE",
"683 51 CURVE SMOOTH",
"683 36 OFFCURVE",
"694 0 OFFCURVE",
"717 0 CURVE SMOOTH",
"1812 1 LINE",
"1855 412 LINE",
"1855 435 OFFCURVE",
"1829 446 OFFCURVE",
"1814 446 CURVE SMOOTH",
"1793 446 OFFCURVE",
"1770 439 OFFCURVE",
"1767 413 CURVE SMOOTH",
"1761 364 OFFCURVE",
"1636 101 OFFCURVE",
"1543 101 CURVE SMOOTH",
"1167 101 LINE",
"1123 105 OFFCURVE",
"1078 124 OFFCURVE",
"1078 197 CURVE SMOOTH",
"1078 657 LINE",
"1332 657 LINE SMOOTH",
"1388 657 OFFCURVE",
"1428 516 OFFCURVE",
"1433 473 CURVE SMOOTH",
"1436 447 OFFCURVE",
"1469 440 OFFCURVE",
"1490 440 CURVE SMOOTH",
"1505 440 OFFCURVE",
"1531 451 OFFCURVE",
"1531 474 CURVE SMOOTH",
"1531 917 LINE SMOOTH",
"1531 940 OFFCURVE",
"1505 951 OFFCURVE",
"1490 951 CURVE SMOOTH",
"1469 951 OFFCURVE",
"1436 944 OFFCURVE",
"1433 918 CURVE SMOOTH",
"1428 878 OFFCURVE",
"1390 750 OFFCURVE",
"1338 743 CURVE",
"1078 743 LINE",
"1079 1320 LINE",
"1473 1320 LINE SMOOTH",
"1581 1320 OFFCURVE",
"1673 1102 OFFCURVE",
"1679 1053 CURVE SMOOTH",
"1682 1027 OFFCURVE",
"1705 1020 OFFCURVE",
"1726 1020 CURVE SMOOTH",
"1741 1020 OFFCURVE",
"1767 1031 OFFCURVE",
"1767 1054 CURVE",
"1732 1418 LINE",
"494 1419 LINE SMOOTH",
"471 1419 OFFCURVE",
"460 1393 OFFCURVE",
"460 1378 CURVE SMOOTH",
"460 1348 OFFCURVE",
"468 1333 OFFCURVE",
"496 1331 CURVE SMOOTH",
"553 1326 OFFCURVE",
"646 1322 OFFCURVE",
"729 1318 CURVE",
"100 165 LINE SMOOTH",
"54 83 OFFCURVE",
"-12 93 OFFCURVE",
"-61 88 CURVE SMOOTH",
"-89 85 OFFCURVE",
"-97 81 OFFCURVE",
"-97 51 CURVE SMOOTH",
"-97 36 OFFCURVE",
"-85 0 OFFCURVE",
"-63 0 CURVE SMOOTH"
);
},
{
closed = 1;
nodes = (
"837 1313 LINE",
"849 1312 OFFCURVE",
"860 1312 OFFCURVE",
"872 1311 CURVE",
"872 743 LINE",
"544 743 LINE"
);
}
);
width = 1988;
},
{
anchors = (
{
name = top;
position = "{1168, 1419}";
}
);
layerId = "62CA62AF-CD91-478A-AB8B-28A62CC47DA0";
paths = (
{
closed = 1;
nodes = (
"470 0 LINE SMOOTH",
"493 0 OFFCURVE",
"504 36 OFFCURVE",
"504 51 CURVE SMOOTH",
"504 72 OFFCURVE",
"497 85 OFFCURVE",
"471 88 CURVE {name = hr02;}",
"301 88 OFFCURVE",
"273 113 OFFCURVE",
"310 186 CURVE SMOOTH",
"493 550 LINE",
"1000 550 LINE",
"1000 152 LINE SMOOTH",
"1000 108 OFFCURVE",
"909 93 OFFCURVE",
"845 88 CURVE {name = hr03;}",
"819 85 OFFCURVE",
"812 72 OFFCURVE",
"812 51 CURVE SMOOTH",
"812 36 OFFCURVE",
"823 0 OFFCURVE",
"846 0 CURVE SMOOTH",
"2123 0 LINE",
"2123 372 LINE",
"2125 395 OFFCURVE",
"2094 406 OFFCURVE",
"2074 406 CURVE SMOOTH",
"2043 406 OFFCURVE",
"2013 395 OFFCURVE",
"2005 370 CURVE SMOOTH",
"1989 320 OFFCURVE",
"1960 101 OFFCURVE",
"1817 101 CURVE SMOOTH",
"1428 101 LINE SMOOTH",
"1384 101 OFFCURVE",
"1339 124 OFFCURVE",
"1339 197 CURVE SMOOTH",
"1339 682 LINE",
"1610 682 LINE SMOOTH",
"1666 682 OFFCURVE",
"1711 546 OFFCURVE",
"1714 503 CURVE",
"1717 477 OFFCURVE",
"1742 470 OFFCURVE",
"1763 470 CURVE SMOOTH",
"1778 470 OFFCURVE",
"1804 481 OFFCURVE",
"1804 504 CURVE SMOOTH",
"1804 947 LINE SMOOTH",
"1804 970 OFFCURVE",
"1778 981 OFFCURVE",
"1763 981 CURVE SMOOTH",
"1742 981 OFFCURVE",
"1720 975 OFFCURVE",
"1717 949 CURVE SMOOTH",
"1712 909 OFFCURVE",
"1668 785 OFFCURVE",
"1616 778 CURVE",
"1339 778 LINE",
"1339 1320 LINE",
"1735 1320 LINE SMOOTH",
"1867 1320 OFFCURVE",
"1890 1176 OFFCURVE",
"1942 1093 CURVE SMOOTH",
"1957 1069 OFFCURVE",
"1981 1060 OFFCURVE",
"2002 1060 CURVE SMOOTH",
"2017 1060 OFFCURVE",
"2043 1071 OFFCURVE",
"2043 1094 CURVE",
"2008 1419 LINE",
"523 1419 LINE SMOOTH",
"500 1419 OFFCURVE",
"489 1393 OFFCURVE",
"489 1378 CURVE SMOOTH",
"489 1348 OFFCURVE",
"497 1333 OFFCURVE",
"525 1331 CURVE SMOOTH {name = hr04;}",
"574 1327 OFFCURVE",
"669 1319 OFFCURVE",
"765 1310 CURVE",
"154 165 LINE SMOOTH",
"110 82 OFFCURVE",
"17 93 OFFCURVE",
"-32 88 CURVE SMOOTH",
"-60 85 OFFCURVE",
"-68 81 OFFCURVE",
"-68 51 CURVE SMOOTH",
"-68 36 OFFCURVE",
"-56 0 OFFCURVE",
"-34 0 CURVE SMOOTH {name = hr01;}"
);
},
{
closed = 1;
nodes = (
"870 1300 LINE {name = hr06;}",
"922 1294 OFFCURVE",
"968 1288 OFFCURVE",
"1000 1283 CURVE",
"1000 646 LINE",
"541 646 LINE"
);
}
);
width = 2191;
}
);
leftKerningGroup = A;
rightKerningGroup = E;
unicode = 00C6;
},
{
color = 10;
glyphname = B;
lastChange = "2018-07-13 20:12:24 +0000";
layers = (
{
anchors = (
{
name = bottom;
position = "{688, 0}";
},
{
name = top;
position = "{694, 1419}";
}
);
background = {
paths = (
{
closed = 1;
nodes = (
"727 0 LINE SMOOTH",
"966 0 OFFCURVE",
"1242 124 OFFCURVE",
"1242 416 CURVE SMOOTH",
"1242 677 OFFCURVE",
"1033 758 OFFCURVE",
"869 776 CURVE",
"1019 806 OFFCURVE",
"1157 913 OFFCURVE",
"1157 1100 CURVE SMOOTH",
"1157 1349 OFFCURVE",
"886 1419 OFFCURVE",
"645 1419 CURVE SMOOTH",
"463 1419 LINE",
"455 1322 LINE",
"588 1322 LINE SMOOTH",
"762 1322 OFFCURVE",
"949 1277 OFFCURVE",
"949 1073 CURVE SMOOTH",
"949 847 OFFCURVE",
"769 817 OFFCURVE",
"651 817 CURVE SMOOTH",
"450 817 LINE SMOOTH",
"450 817 OFFCURVE",
"450 721 OFFCURVE",
"450 721 CURVE",
"654 721 LINE SMOOTH",
"743 721 OFFCURVE",
"1026 713 OFFCURVE",
"1026 418 CURVE SMOOTH",
"1026 141 OFFCURVE",
"802 101 OFFCURVE",
"658 101 CURVE SMOOTH",
"503 101 OFFCURVE",
"495 138 OFFCURVE",
"495 138 CURVE",
"455 0 LINE"
);
},
{
closed = 1;
nodes = (
"609 0 LINE SMOOTH",
"631 0 OFFCURVE",
"643 16 OFFCURVE",
"643 31 CURVE SMOOTH",
"643 61 OFFCURVE",
"635 65 OFFCURVE",
"607 68 CURVE SMOOTH",
"558 73 OFFCURVE",
"495 19 OFFCURVE",
"495 105 CURVE SMOOTH",
"495 1347 LINE",
"543 1395 LINE",
"463 1419 LINE",
"105 1419 LINE SMOOTH",
"82 1419 OFFCURVE",
"71 1383 OFFCURVE",
"71 1368 CURVE SMOOTH",
"71 1338 OFFCURVE",
"79 1334 OFFCURVE",
"107 1331 CURVE",
"180 1326 OFFCURVE",
"289 1320 OFFCURVE",
"289 1234 CURVE SMOOTH",
"288 152 LINE SMOOTH",
"288 108 OFFCURVE",
"192 93 OFFCURVE",
"113 88 CURVE",
"87 85 OFFCURVE",
"80 72 OFFCURVE",
"80 51 CURVE SMOOTH",
"80 36 OFFCURVE",
"91 0 OFFCURVE",
"114 0 CURVE SMOOTH"
);
}
);
};
layerId = "DD6F9F34-BC40-4E8F-B1D3-DF3B42A9710F";
paths = (
{
closed = 1;
nodes = (
"752 0 LINE SMOOTH",
"991 0 OFFCURVE",
"1267 124 OFFCURVE",
"1267 416 CURVE SMOOTH",
"1267 691 OFFCURVE",
"1036 766 OFFCURVE",
"869 778 CURVE",
"865 771 LINE",
"1026 793 OFFCURVE",
"1182 901 OFFCURVE",
"1182 1100 CURVE SMOOTH",
"1182 1349 OFFCURVE",
"911 1419 OFFCURVE",
"670 1419 CURVE SMOOTH",
"130 1419 LINE SMOOTH",
"107 1419 OFFCURVE",
"96 1383 OFFCURVE",
"96 1368 CURVE SMOOTH",
"96 1338 OFFCURVE",
"104 1334 OFFCURVE",
"132 1331 CURVE",
"205 1326 OFFCURVE",
"314 1320 OFFCURVE",
"314 1234 CURVE SMOOTH",
"313 152 LINE SMOOTH",
"313 108 OFFCURVE",
"217 93 OFFCURVE",
"138 88 CURVE",
"112 85 OFFCURVE",
"105 72 OFFCURVE",
"105 51 CURVE SMOOTH",
"105 36 OFFCURVE",
"116 0 OFFCURVE",
"139 0 CURVE SMOOTH"
);
},
{
closed = 1;
nodes = (
"520 1334 LINE",
"633 1334 LINE SMOOTH",
"802 1334 OFFCURVE",
"971 1268 OFFCURVE",
"971 1085 CURVE SMOOTH",
"971 881 OFFCURVE",
"761 814 OFFCURVE",
"606 814 CURVE SMOOTH",
"520 814 LINE"
);
},
{
closed = 1;
nodes = (
"521 102 OFFCURVE",
"520 139 OFFCURVE",
"520 139 CURVE SMOOTH",
"520 718 LINE",
"609 718 LINE SMOOTH",
"753 718 OFFCURVE",
"1043 725 OFFCURVE",
"1048 430 CURVE SMOOTH",
"1053 141 OFFCURVE",
"815 102 OFFCURVE",
"676 102 CURVE SMOOTH"
);
}
);
width = 1339;
},
{
anchors = (
{
name = bottom;
position = "{779, 0}";
},
{
name = top;
position = "{778, 1419}";
}
);
layerId = "62CA62AF-CD91-478A-AB8B-28A62CC47DA0";
paths = (
{
closed = 1;
nodes = (
"890 0 LINE SMOOTH",
"1284 0 OFFCURVE",
"1476 139 OFFCURVE",
"1476 421 CURVE SMOOTH",
"1476 684 OFFCURVE",
"1171 781 OFFCURVE",
"998 767 CURVE",
"999 767 LINE",
"1143 766 OFFCURVE",
"1379 881 OFFCURVE",
"1379 1110 CURVE SMOOTH",
"1379 1329 OFFCURVE",
"1180 1419 OFFCURVE",
"829 1419 CURVE SMOOTH",
"135 1419 LINE SMOOTH",
"112 1419 OFFCURVE",
"101 1383 OFFCURVE",
"101 1368 CURVE SMOOTH",
"101 1338 OFFCURVE",
"109 1334 OFFCURVE",
"137 1331 CURVE",
"210 1326 OFFCURVE",
"319 1320 OFFCURVE",
"319 1234 CURVE SMOOTH",
"318 152 LINE SMOOTH",
"318 108 OFFCURVE",
"222 93 OFFCURVE",
"143 88 CURVE",
"117 85 OFFCURVE",
"110 72 OFFCURVE",
"110 51 CURVE SMOOTH {name = hr00;}",
"110 36 OFFCURVE",
"121 0 OFFCURVE",
"144 0 CURVE SMOOTH"
);
},
{
closed = 1;
nodes = (
"655 1322 LINE",
"768 1322 LINE SMOOTH",
"937 1322 OFFCURVE",
"1052 1256 OFFCURVE",
"1052 1073 CURVE SMOOTH",
"1052 869 OFFCURVE",
"896 802 OFFCURVE",
"741 802 CURVE SMOOTH",
"655 802 LINE"
);
},
{
closed = 1;
nodes = (
"656 101 OFFCURVE",
"655 138 OFFCURVE",
"655 138 CURVE",
"655 706 LINE",
"744 706 LINE SMOOTH",
"888 706 OFFCURVE",
"1112 713 OFFCURVE",
"1112 418 CURVE SMOOTH",
"1112 141 OFFCURVE",
"950 101 OFFCURVE",
"811 101 CURVE SMOOTH"
);
}
);
width = 1551;
}
);
leftKerningGroup = H;
rightKerningGroup = B;
unicode = 0042;
},
{
color = 10;
glyphname = C;
lastChange = "2018-07-13 20:13:33 +0000";
layers = (
{
anchors = (
{
name = bottom;
position = "{762, 0}";
},
{
name = top;
position = "{752, 1419}";
}
);
layerId = "DD6F9F34-BC40-4E8F-B1D3-DF3B42A9710F";
paths = (
{
closed = 1;
nodes = (
"1005 -30 OFFCURVE",
"1180 80 OFFCURVE",
"1183 108 CURVE SMOOTH",
"1215 372 LINE",
"1215 395 OFFCURVE",
"1170 406 OFFCURVE",
"1154 406 CURVE SMOOTH",
"1132 406 OFFCURVE",
"1122 399 OFFCURVE",
"1117 373 CURVE SMOOTH",
"1084 200 OFFCURVE",
"983 65 OFFCURVE",
"751 65 CURVE SMOOTH",
"592 65 OFFCURVE",
"314 152 OFFCURVE",
"314 706 CURVE SMOOTH",
"314 1289 OFFCURVE",
"568 1353 OFFCURVE",
"739 1353 CURVE SMOOTH",
"975 1353 OFFCURVE",
"1097 1207 OFFCURVE",
"1144 1039 CURVE",
"1148 1013 OFFCURVE",
"1168 1008 OFFCURVE",
"1190 1011 CURVE SMOOTH",
"1206 1013 OFFCURVE",
"1229 1028 OFFCURVE",
"1226 1051 CURVE",
"1204 1361 LINE",
"1133 1392 OFFCURVE",
"1006 1449 OFFCURVE",
"741 1449 CURVE SMOOTH",
"453 1449 OFFCURVE",
"65 1235 OFFCURVE",
"65 706 CURVE SMOOTH",
"65 144 OFFCURVE",
"431 -30 OFFCURVE",
"752 -30 CURVE SMOOTH"
);
}
);
width = 1315;
},
{
anchors = (
{
name = bottom;
position = "{855, 0}";
},
{
name = top;
position = "{859, 1419}";
}
);
layerId = "62CA62AF-CD91-478A-AB8B-28A62CC47DA0";
paths = (
{
closed = 1;
nodes = (
"1127 -30 OFFCURVE",
"1328 80 OFFCURVE",
"1331 108 CURVE SMOOTH",
"1359 402 LINE",
"1359 425 OFFCURVE",
"1304 436 OFFCURVE",
"1288 436 CURVE SMOOTH",
"1266 436 OFFCURVE",
"1245 429 OFFCURVE",
"1240 403 CURVE SMOOTH",
"1205 221 OFFCURVE",
"1091 65 OFFCURVE",
"888 65 CURVE SMOOTH",
"728 65 OFFCURVE",
"457 152 OFFCURVE",
"457 706 CURVE SMOOTH",
"457 1289 OFFCURVE",
"703 1353 OFFCURVE",
"866 1353 CURVE SMOOTH",
"1094 1353 OFFCURVE",
"1178 1210 OFFCURVE",
"1211 1039 CURVE SMOOTH",
"1216 1013 OFFCURVE",
"1280 1008 OFFCURVE",
"1302 1011 CURVE SMOOTH",
"1319 1013 OFFCURVE",
"1361 1028 OFFCURVE",
"1358 1051 CURVE",
"1341 1361 LINE",
"1287 1360 OFFCURVE",
"1193 1449 OFFCURVE",
"868 1449 CURVE SMOOTH",
"516 1449 OFFCURVE",
"78 1235 OFFCURVE",
"78 706 CURVE SMOOTH {name = hr00;}",
"78 144 OFFCURVE",
"488 -30 OFFCURVE",
"889 -30 CURVE SMOOTH"
);
}
);
width = 1465;
}
);
leftKerningGroup = O;
rightKerningGroup = C;
unicode = 0043;
},
{
color = 10;
glyphname = D;
lastChange = "2018-07-13 20:14:31 +0000";
layers = (
{
anchors = (
{
name = bottom;
position = "{766, 0}";
},
{
name = center;
position = "{766, 710}";
},
{
name = top;
position = "{766, 1419}";
}
);
background = {
paths = (
{
closed = 1;
nodes = (
"600 1419 LINE",
"135 1419 LINE SMOOTH",
"112 1419 OFFCURVE",
"101 1383 OFFCURVE",
"101 1368 CURVE SMOOTH",
"101 1338 OFFCURVE",
"109 1334 OFFCURVE",
"137 1331 CURVE SMOOTH",
"198 1326 OFFCURVE",
"289 1320 OFFCURVE",
"289 1234 CURVE SMOOTH",
"288 152 LINE SMOOTH",
"288 108 OFFCURVE",
"207 93 OFFCURVE",
"143 88 CURVE SMOOTH",
"117 85 OFFCURVE",
"110 72 OFFCURVE",
"110 51 CURVE SMOOTH",
"110 36 OFFCURVE",
"121 0 OFFCURVE",
"144 0 CURVE SMOOTH",
"609 0 LINE SMOOTH",
"643 0 OFFCURVE",
"663 16 OFFCURVE",
"663 31 CURVE SMOOTH",
"663 61 OFFCURVE",
"651 65 OFFCURVE",
"607 68 CURVE SMOOTH",
"558 73 OFFCURVE",
"495 49 OFFCURVE",
"495 135 CURVE SMOOTH",
"496 1342 LINE"
);
},
{
closed = 1;
nodes = (
"460 1417 OFFCURVE",
"446 1322 OFFCURVE",
"446 1322 CURVE",
"446 1322 OFFCURVE",
"533 1322 OFFCURVE",
"718 1322 CURVE SMOOTH",
"951 1322 OFFCURVE",
"1209 1229 OFFCURVE",
"1209 734 CURVE SMOOTH",
"1209 161 OFFCURVE",
"941 101 OFFCURVE",
"698 101 CURVE SMOOTH",
"524 101 OFFCURVE",
"495 140 OFFCURVE",
"495 168 CURVE",
"495 168 OFFCURVE",
"455 0 OFFCURVE",
"455 0 CURVE",
"455 0 OFFCURVE",
"536 0 OFFCURVE",
"767 0 CURVE SMOOTH",
"1067 0 OFFCURVE",
"1455 217 OFFCURVE",
"1455 738 CURVE SMOOTH",
"1455 1083 OFFCURVE",
"1269 1417 OFFCURVE",
"725 1419 CURVE",
"463 1419 LINE"
);
}
);
};
layerId = "DD6F9F34-BC40-4E8F-B1D3-DF3B42A9710F";
paths = (
{
closed = 1;
nodes = (
"778 0 LINE SMOOTH",
"1078 0 OFFCURVE",
"1456 217 OFFCURVE",
"1456 738 CURVE SMOOTH",
"1456 1083 OFFCURVE",
"1270 1417 OFFCURVE",
"726 1419 CURVE",
"130 1419 LINE SMOOTH",
"107 1419 OFFCURVE",
"96 1383 OFFCURVE",
"96 1368 CURVE SMOOTH",
"96 1338 OFFCURVE",
"104 1334 OFFCURVE",
"132 1331 CURVE SMOOTH",
"193 1324 OFFCURVE",
"284 1320 OFFCURVE",
"284 1234 CURVE SMOOTH",
"284 152 LINE SMOOTH",
"284 108 OFFCURVE",
"203 93 OFFCURVE",
"139 88 CURVE",
"113 85 OFFCURVE",
"106 72 OFFCURVE",
"106 51 CURVE SMOOTH {name = hr00;}",
"106 36 OFFCURVE",
"117 0 OFFCURVE",
"140 0 CURVE SMOOTH"
);
},
{
closed = 1;
nodes = (
"497 1322 LINE",
"694 1322 LINE SMOOTH",
"927 1322 OFFCURVE",
"1210 1229 OFFCURVE",
"1210 734 CURVE SMOOTH",
"1210 161 OFFCURVE",
"947 101 OFFCURVE",
"704 101 CURVE SMOOTH",
"530 101 OFFCURVE",
"496 140 OFFCURVE",
"496 168 CURVE SMOOTH"
);
}
);
width = 1534;
},
{
anchors = (
{
name = bottom;
position = "{826, 0}";
},
{
name = center;
position = "{826, 710}";
},
{
name = top;
position = "{826, 1419}";
}
);
layerId = "62CA62AF-CD91-478A-AB8B-28A62CC47DA0";
paths = (
{
closed = 1;
nodes = (
"903 0 LINE SMOOTH",
"1203 0 OFFCURVE",
"1641 217 OFFCURVE",
"1641 738 CURVE SMOOTH",
"1641 1083 OFFCURVE",
"1375 1417 OFFCURVE",
"831 1419 CURVE",
"135 1419 LINE SMOOTH",
"112 1419 OFFCURVE",
"101 1383 OFFCURVE",
"101 1368 CURVE SMOOTH",
"101 1338 OFFCURVE",
"109 1334 OFFCURVE",
"137 1331 CURVE SMOOTH",
"198 1324 OFFCURVE",
"289 1320 OFFCURVE",
"289 1234 CURVE SMOOTH",
"289 152 LINE SMOOTH",
"289 108 OFFCURVE",
"208 93 OFFCURVE",
"144 88 CURVE",
"118 85 OFFCURVE",
"111 72 OFFCURVE",
"111 51 CURVE SMOOTH {name = hr00;}",
"111 36 OFFCURVE",
"122 0 OFFCURVE",
"145 0 CURVE SMOOTH"
);
},
{
closed = 1;
nodes = (
"627 1322 LINE",
"824 1322 LINE SMOOTH",
"1057 1322 OFFCURVE",
"1251 1229 OFFCURVE",
"1251 734 CURVE SMOOTH",
"1251 161 OFFCURVE",
"1077 101 OFFCURVE",
"834 101 CURVE SMOOTH",
"660 101 OFFCURVE",
"626 140 OFFCURVE",
"626 168 CURVE SMOOTH"
);
}
);
width = 1708;
}
);
leftKerningGroup = H;
rightKerningGroup = O;
unicode = 0044;
},
{
color = 10;
glyphname = Eth;
lastChange = "2018-07-13 20:14:48 +0000";
layers = (
{
components = (
{
name = D;
transform = "{1, 0, 0, 1, -1, 0}";
}
);
layerId = "DD6F9F34-BC40-4E8F-B1D3-DF3B42A9710F";
paths = (
{
closed = 1;
nodes = (
"787 694 LINE",
"801 700 OFFCURVE",
"811 722 OFFCURVE",
"811 747 CURVE SMOOTH",
"811 763 OFFCURVE",
"803 780 OFFCURVE",
"787 781 CURVE",
"148 781 LINE",
"134 775 OFFCURVE",
"124 753 OFFCURVE",
"124 728 CURVE SMOOTH",
"124 712 OFFCURVE",
"132 695 OFFCURVE",
"148 694 CURVE"
);
}
);
width = 1534;
},
{
components = (
{
name = D;
transform = "{1, 0, 0, 1, -28, 0}";
}
);
layerId = "62CA62AF-CD91-478A-AB8B-28A62CC47DA0";
paths = (
{
closed = 1;
nodes = (
"890 694 LINE",
"904 700 OFFCURVE",
"914 722 OFFCURVE",
"914 747 CURVE SMOOTH",
"914 763 OFFCURVE",
"906 790 OFFCURVE",
"890 791 CURVE",
"121 791 LINE",
"107 785 OFFCURVE",
"97 753 OFFCURVE",
"97 728 CURVE SMOOTH",
"97 712 OFFCURVE",
"105 695 OFFCURVE",
"121 694 CURVE"
);
}
);
width = 1708;
}
);
leftKerningGroup = H;
rightKerningGroup = O;
unicode = 00D0;
},
{
color = 10;
glyphname = E;
lastChange = "2018-07-13 22:43:44 +0000";
layers = (
{
anchors = (
{
name = bottom;
position = "{622, 0}";
},
{
name = top;
position = "{591, 1419}";
}
);
background = {
paths = (
{
closed = 1;
nodes = (
"609 0 LINE SMOOTH",
"631 0 OFFCURVE",
"643 16 OFFCURVE",
"643 31 CURVE SMOOTH",
"643 61 OFFCURVE",
"659 100 OFFCURVE",
"607 100 CURVE SMOOTH",
"558 100 OFFCURVE",
"495 111 OFFCURVE",
"495 197 CURVE SMOOTH",
"496 1335 LINE",
"600 1419 LINE",
"135 1419 LINE SMOOTH",
"112 1419 OFFCURVE",
"101 1383 OFFCURVE",
"101 1368 CURVE SMOOTH",
"101 1338 OFFCURVE",
"109 1334 OFFCURVE",
"137 1331 CURVE SMOOTH",
"198 1326 OFFCURVE",
"289 1320 OFFCURVE",
"289 1234 CURVE SMOOTH",
"288 152 LINE SMOOTH",
"288 108 OFFCURVE",
"207 93 OFFCURVE",
"143 88 CURVE SMOOTH",
"117 85 OFFCURVE",
"110 72 OFFCURVE",
"110 51 CURVE SMOOTH",
"110 36 OFFCURVE",
"121 0 OFFCURVE",
"144 0 CURVE SMOOTH"
);
},
{
closed = 1;
nodes = (
"1253 1 LINE",
"1296 372 LINE",
"1296 395 OFFCURVE",
"1281 406 OFFCURVE",
"1256 406 CURVE SMOOTH",
"1235 406 OFFCURVE",
"1207 398 OFFCURVE",
"1199 373 CURVE SMOOTH",
"1186 332 OFFCURVE",
"1072 101 OFFCURVE",
"979 101 CURVE SMOOTH",
"377 101 LINE",
"344 1 LINE"
);
},
{
closed = 1;
nodes = (
"936 470 OFFCURVE",
"962 481 OFFCURVE",
"962 504 CURVE SMOOTH",
"962 947 LINE SMOOTH",
"962 970 OFFCURVE",
"936 981 OFFCURVE",
"921 981 CURVE SMOOTH",
"900 981 OFFCURVE",
"872 974 OFFCURVE",
"869 948 CURVE SMOOTH",
"864 908 OFFCURVE",
"826 780 OFFCURVE",
"774 773 CURVE",
"399 773 LINE",
"399 687 LINE",
"768 687 LINE SMOOTH",
"824 687 OFFCURVE",
"864 546 OFFCURVE",
"869 503 CURVE SMOOTH",
"872 477 OFFCURVE",
"900 470 OFFCURVE",
"921 470 CURVE SMOOTH"
);
},
{
closed = 1;
nodes = (
"1183 1060 OFFCURVE",
"1209 1071 OFFCURVE",
"1209 1094 CURVE SMOOTH",
"1174 1418 LINE",
"600 1419 LINE",
"377 1320 LINE",
"909 1320 LINE SMOOTH",
"1017 1320 OFFCURVE",
"1110 1134 OFFCURVE",
"1115 1093 CURVE SMOOTH",
"1118 1067 OFFCURVE",
"1147 1060 OFFCURVE",
"1168 1060 CURVE SMOOTH"
);
}
);
};
layerId = "DD6F9F34-BC40-4E8F-B1D3-DF3B42A9710F";
paths = (
{
closed = 1;
nodes = (
"105 36 OFFCURVE",
"116 0 OFFCURVE",
"139 0 CURVE SMOOTH",
"1199 1 LINE",
"1249 373 LINE",
"1246 396 OFFCURVE",
"1225 407 OFFCURVE",
"1200 407 CURVE SMOOTH",
"1179 407 OFFCURVE",
"1138 399 OFFCURVE",
"1132 374 CURVE SMOOTH",
"1084 173 OFFCURVE",
"992 102 OFFCURVE",
"872 102 CURVE SMOOTH",
"587 101 LINE",
"543 105 OFFCURVE",
"498 124 OFFCURVE",
"498 197 CURVE SMOOTH",
"498 682 LINE",
"726 683 LINE SMOOTH",
"782 683 OFFCURVE",
"827 547 OFFCURVE",
"830 504 CURVE",
"833 478 OFFCURVE",
"858 471 OFFCURVE",
"879 471 CURVE SMOOTH",
"894 471 OFFCURVE",
"920 482 OFFCURVE",
"920 505 CURVE SMOOTH",
"920 948 LINE SMOOTH",
"920 971 OFFCURVE",
"894 982 OFFCURVE",
"879 982 CURVE SMOOTH",
"858 982 OFFCURVE",
"836 976 OFFCURVE",
"833 950 CURVE SMOOTH",
"828 910 OFFCURVE",
"784 786 OFFCURVE",
"732 779 CURVE",
"498 778 LINE",
"498 1320 LINE",
"838 1321 LINE SMOOTH",
"946 1321 OFFCURVE",
"964 1244 OFFCURVE",
"1044 1094 CURVE SMOOTH",
"1060 1064 OFFCURVE",
"1087 1061 OFFCURVE",
"1108 1061 CURVE SMOOTH",
"1123 1061 OFFCURVE",
"1147 1072 OFFCURVE",
"1145 1095 CURVE SMOOTH",
"1110 1420 LINE",
"130 1419 LINE SMOOTH",
"107 1419 OFFCURVE",
"96 1383 OFFCURVE",
"96 1368 CURVE SMOOTH",
"96 1338 OFFCURVE",
"104 1334 OFFCURVE",
"132 1331 CURVE SMOOTH",
"193 1324 OFFCURVE",
"284 1320 OFFCURVE",
"284 1234 CURVE SMOOTH",
"284 152 LINE SMOOTH",
"284 108 OFFCURVE",
"202 93 OFFCURVE",
"138 88 CURVE",
"112 85 OFFCURVE",
"105 72 OFFCURVE",
"105 51 CURVE SMOOTH {name = hr00;}"
);
}
);
width = 1338;
},
{
anchors = (
{
name = bottom;
position = "{800, 0}";
},
{
name = top;
position = "{791, 1419}";
}
);
layerId = "62CA62AF-CD91-478A-AB8B-28A62CC47DA0";
paths = (
{
closed = 1;
nodes = (
"110 36 OFFCURVE",
"121 0 OFFCURVE",
"144 0 CURVE SMOOTH",
"1369 0 LINE",
"1409 372 LINE",
"1406 395 OFFCURVE",
"1375 406 OFFCURVE",
"1350 406 CURVE SMOOTH",
"1329 406 OFFCURVE",
"1293 397 OFFCURVE",
"1282 373 CURVE SMOOTH",
"1190 173 OFFCURVE",
"1118 101 OFFCURVE",
"998 101 CURVE SMOOTH",
"714 101 LINE",
"670 105 OFFCURVE",
"625 124 OFFCURVE",
"625 197 CURVE SMOOTH",
"625 682 LINE",
"888 682 LINE SMOOTH",
"944 682 OFFCURVE",
"989 546 OFFCURVE",
"992 503 CURVE",
"995 477 OFFCURVE",
"1020 470 OFFCURVE",
"1041 470 CURVE SMOOTH",
"1056 470 OFFCURVE",
"1092 481 OFFCURVE",
"1092 504 CURVE SMOOTH",
"1092 947 LINE SMOOTH",
"1092 970 OFFCURVE",
"1056 981 OFFCURVE",
"1041 981 CURVE SMOOTH",
"1020 981 OFFCURVE",
"998 975 OFFCURVE",
"995 949 CURVE SMOOTH",
"990 909 OFFCURVE",
"946 785 OFFCURVE",
"894 778 CURVE",
"625 778 LINE",
"625 1320 LINE",
"1014 1320 LINE SMOOTH",
"1122 1320 OFFCURVE",
"1140 1243 OFFCURVE",
"1220 1093 CURVE SMOOTH",
"1236 1063 OFFCURVE",
"1271 1060 OFFCURVE",
"1292 1060 CURVE SMOOTH",
"1307 1060 OFFCURVE",
"1331 1071 OFFCURVE",
"1329 1094 CURVE SMOOTH",
"1294 1419 LINE",
"135 1419 LINE SMOOTH",
"112 1419 OFFCURVE",
"101 1383 OFFCURVE",
"101 1368 CURVE SMOOTH",
"101 1338 OFFCURVE",
"109 1334 OFFCURVE",
"137 1331 CURVE SMOOTH",
"198 1324 OFFCURVE",
"289 1320 OFFCURVE",
"289 1234 CURVE SMOOTH",
"289 152 LINE SMOOTH",
"289 108 OFFCURVE",
"207 93 OFFCURVE",
"143 88 CURVE",
"117 85 OFFCURVE",
"110 72 OFFCURVE",
"110 51 CURVE SMOOTH {name = hr00;}"
);
}
);
width = 1477;
}
);
leftKerningGroup = H;
rightKerningGroup = E;
unicode = 0045;
},
{
color = 10;
glyphname = Eogonek;
lastChange = "2018-07-13 05:41:16 +0000";
layers = (
{
components = (
{
name = E;
}
);
layerId = "DD6F9F34-BC40-4E8F-B1D3-DF3B42A9710F";
paths = (
{
closed = 1;
nodes = (
"918 0 LINE",
"737 -43 OFFCURVE",
"673 -119 OFFCURVE",
"673 -224 CURVE SMOOTH",
"673 -329 OFFCURVE",
"782 -407 OFFCURVE",
"912 -407 CURVE SMOOTH",
"972 -407 OFFCURVE",
"1058 -389 OFFCURVE",
"1101 -360 CURVE SMOOTH",
"1131 -340 OFFCURVE",
"1125 -239 OFFCURVE",
"1101 -243 CURVE SMOOTH",
"1067 -249 OFFCURVE",
"1051 -259 OFFCURVE",
"1019 -259 CURVE SMOOTH",
"930 -259 OFFCURVE",
"896 -233 OFFCURVE",
"896 -172 CURVE SMOOTH",
"896 -96 OFFCURVE",
"971 -32 OFFCURVE",
"1067 0 CURVE",
"1030 69 LINE"
);
}
);
width = 1338;
},
{
components = (
{
name = E;
}
);
layerId = "62CA62AF-CD91-478A-AB8B-28A62CC47DA0";
paths = (
{
closed = 1;
nodes = (
"1109 0 LINE",
"890 -52 OFFCURVE",
"822 -157 OFFCURVE",
"822 -264 CURVE SMOOTH",
"822 -370 OFFCURVE",
"934 -444 OFFCURVE",
"1091 -444 CURVE SMOOTH",
"1164 -444 OFFCURVE",
"1268 -422 OFFCURVE",
"1320 -387 CURVE SMOOTH",
"1356 -363 OFFCURVE",
"1347 -237 OFFCURVE",
"1320 -246 CURVE SMOOTH",
"1279 -260 OFFCURVE",
"1259 -265 OFFCURVE",
"1221 -265 CURVE SMOOTH",
"1113 -265 OFFCURVE",
"1072 -234 OFFCURVE",
"1072 -184 CURVE SMOOTH",
"1072 -116 OFFCURVE",
"1164 -39 OFFCURVE",
"1279 0 CURVE",
"1184 32 LINE"
);
}
);
width = 1553;
}
);
leftKerningGroup = H;
rightKerningGroup = E;
unicode = 0118;
},
{
color = 4;
glyphname = F;
lastChange = "2018-07-12 15:53:51 +0000";
layers = (
{
anchors = (
{
name = top;
position = "{690, 1419}";
}
);
layerId = "DD6F9F34-BC40-4E8F-B1D3-DF3B42A9710F";
paths = (
{
closed = 1;
nodes = (
"734 0 LINE SMOOTH",
"757 0 OFFCURVE",
"768 36 OFFCURVE",
"768 51 CURVE SMOOTH",
"768 81 OFFCURVE",
"754 88 OFFCURVE",
"732 88 CURVE SMOOTH",
"647 88 OFFCURVE",
"510 111 OFFCURVE",
"510 197 CURVE SMOOTH",
"510 655 LINE",
"768 655 LINE SMOOTH",
"824 655 OFFCURVE",
"864 514 OFFCURVE",
"869 471 CURVE SMOOTH",
"872 445 OFFCURVE",
"900 438 OFFCURVE",
"921 438 CURVE SMOOTH",
"936 438 OFFCURVE",
"962 449 OFFCURVE",
"962 472 CURVE SMOOTH",
"962 915 LINE SMOOTH",
"962 938 OFFCURVE",
"936 949 OFFCURVE",
"921 949 CURVE SMOOTH",
"900 949 OFFCURVE",
"872 942 OFFCURVE",
"869 916 CURVE SMOOTH",
"864 876 OFFCURVE",
"826 748 OFFCURVE",
"774 741 CURVE",
"510 741 LINE",
"510 1320 LINE",
"889 1320 LINE SMOOTH",
"997 1320 OFFCURVE",
"1092 1108 OFFCURVE",
"1097 1069 CURVE SMOOTH",
"1100 1043 OFFCURVE",
"1119 1036 OFFCURVE",
"1140 1036 CURVE SMOOTH",
"1155 1036 OFFCURVE",
"1181 1047 OFFCURVE",
"1181 1070 CURVE",
"1144 1418 LINE",
"120 1419 LINE SMOOTH",
"97 1419 OFFCURVE",
"86 1383 OFFCURVE",
"86 1368 CURVE SMOOTH",
"86 1338 OFFCURVE",
"94 1334 OFFCURVE",
"122 1331 CURVE",
"195 1326 OFFCURVE",
"304 1320 OFFCURVE",
"304 1234 CURVE SMOOTH",
"303 152 LINE SMOOTH",
"303 108 OFFCURVE",
"207 93 OFFCURVE",
"128 88 CURVE",
"102 85 OFFCURVE",
"95 72 OFFCURVE",
"95 51 CURVE SMOOTH",
"95 36 OFFCURVE",
"106 0 OFFCURVE",
"129 0 CURVE SMOOTH"
);
}
);
width = 1227;
},
{
anchors = (
{
name = top;
position = "{736, 1419}";
}
);
layerId = "62CA62AF-CD91-478A-AB8B-28A62CC47DA0";
paths = (
{
closed = 1;
nodes = (
"847 0 LINE SMOOTH",
"870 0 OFFCURVE",
"881 36 OFFCURVE",
"881 51 CURVE SMOOTH",
"881 81 OFFCURVE",
"867 88 OFFCURVE",
"845 88 CURVE SMOOTH",
"760 88 OFFCURVE",
"623 111 OFFCURVE",
"623 197 CURVE SMOOTH",
"623 650 LINE",
"896 650 LINE SMOOTH",
"952 650 OFFCURVE",
"997 514 OFFCURVE",
"1000 471 CURVE",
"1003 445 OFFCURVE",
"1028 438 OFFCURVE",
"1049 438 CURVE SMOOTH",
"1064 438 OFFCURVE",
"1090 449 OFFCURVE",
"1090 472 CURVE SMOOTH",
"1090 915 LINE SMOOTH",
"1090 938 OFFCURVE",
"1064 949 OFFCURVE",
"1049 949 CURVE SMOOTH",
"1028 949 OFFCURVE",
"1006 943 OFFCURVE",
"1003 917 CURVE SMOOTH",
"998 877 OFFCURVE",
"954 753 OFFCURVE",
"902 746 CURVE",
"623 746 LINE",
"623 1320 LINE",
"1000 1320 LINE SMOOTH",
"1108 1320 OFFCURVE",
"1130 1219 OFFCURVE",
"1210 1069 CURVE SMOOTH",
"1226 1039 OFFCURVE",
"1266 1036 OFFCURVE",
"1287 1036 CURVE SMOOTH",
"1302 1036 OFFCURVE",
"1324 1047 OFFCURVE",
"1324 1070 CURVE",
"1285 1418 LINE",
"103 1419 LINE SMOOTH",
"80 1419 OFFCURVE",
"69 1383 OFFCURVE",
"69 1368 CURVE SMOOTH",
"69 1338 OFFCURVE",
"77 1334 OFFCURVE",
"105 1331 CURVE",
"178 1326 OFFCURVE",
"287 1320 OFFCURVE",
"287 1234 CURVE SMOOTH",
"287 152 LINE SMOOTH",
"287 108 OFFCURVE",
"190 93 OFFCURVE",
"111 88 CURVE",
"85 85 OFFCURVE",
"78 72 OFFCURVE",
"78 51 CURVE SMOOTH {name = hr00;}",
"78 36 OFFCURVE",
"89 0 OFFCURVE",
"112 0 CURVE SMOOTH"
);
}
);
width = 1375;
}
);
leftKerningGroup = H;
rightKerningGroup = F;
unicode = 0046;
},
{
color = 4;
glyphname = G;
lastChange = "2018-07-12 15:53:51 +0000";
layers = (
{
anchors = (
{
name = bottom;
position = "{785, 0}";
},
{
name = top;
position = "{789, 1419}";
}
);
layerId = "DD6F9F34-BC40-4E8F-B1D3-DF3B42A9710F";
paths = (
{
closed = 1;
nodes = (
"1072 -30 OFFCURVE",
"1251 79 OFFCURVE",
"1283 123 CURVE",
"1276 489 LINE",
"1276 533 OFFCURVE",
"1342 548 OFFCURVE",
"1401 553 CURVE SMOOTH",
"1427 556 OFFCURVE",
"1434 569 OFFCURVE",
"1434 590 CURVE SMOOTH",
"1434 605 OFFCURVE",
"1423 641 OFFCURVE",
"1400 641 CURVE SMOOTH",
"885 641 LINE SMOOTH",
"862 641 OFFCURVE",
"851 605 OFFCURVE",
"851 590 CURVE SMOOTH",
"851 560 OFFCURVE",
"859 556 OFFCURVE",
"887 553 CURVE",
"964 548 OFFCURVE",
"1073 542 OFFCURVE",
"1073 456 CURVE SMOOTH",
"1073 199 LINE SMOOTH",
"1073 135 OFFCURVE",
"1002 65 OFFCURVE",
"794 65 CURVE SMOOTH",
"624 65 OFFCURVE",
"327 217 OFFCURVE",
"327 706 CURVE SMOOTH",
"327 1260 OFFCURVE",
"623 1354 OFFCURVE",
"775 1353 CURVE SMOOTH",
"1011 1354 OFFCURVE",
"1133 1207 OFFCURVE",
"1180 1039 CURVE",
"1184 1013 OFFCURVE",
"1206 1008 OFFCURVE",
"1228 1011 CURVE SMOOTH",
"1244 1013 OFFCURVE",
"1267 1028 OFFCURVE",
"1264 1051 CURVE",
"1242 1361 LINE",
"1171 1392 OFFCURVE",
"1042 1449 OFFCURVE",
"777 1449 CURVE SMOOTH",
"481 1449 OFFCURVE",
"78 1256 OFFCURVE",
"78 706 CURVE SMOOTH",
"78 153 OFFCURVE",
"476 -30 OFFCURVE",
"748 -30 CURVE SMOOTH"
);
}
);
width = 1485;
},
{
anchors = (
{
name = bottom;
position = "{890, 0}";
},
{
name = top;
position = "{894, 1419}";
}
);
layerId = "62CA62AF-CD91-478A-AB8B-28A62CC47DA0";
paths = (
{
closed = 1;
nodes = (
"1194 -30 OFFCURVE",
"1416 79 OFFCURVE",
"1446 123 CURVE",
"1445 489 LINE SMOOTH",
"1445 533 OFFCURVE",
"1495 547 OFFCURVE",
"1554 553 CURVE SMOOTH",
"1580 556 OFFCURVE",
"1587 569 OFFCURVE",
"1587 590 CURVE SMOOTH",
"1587 605 OFFCURVE",
"1576 641 OFFCURVE",
"1553 641 CURVE SMOOTH",
"928 641 LINE SMOOTH",
"905 641 OFFCURVE",
"894 605 OFFCURVE",
"894 590 CURVE SMOOTH",
"894 560 OFFCURVE",
"902 555 OFFCURVE",
"930 553 CURVE SMOOTH",
"1007 546 OFFCURVE",
"1116 542 OFFCURVE",
"1116 456 CURVE SMOOTH",
"1116 194 LINE SMOOTH",
"1116 131 OFFCURVE",
"1083 65 OFFCURVE",
"897 65 CURVE SMOOTH",
"730 65 OFFCURVE",
"450 217 OFFCURVE",
"450 706 CURVE SMOOTH",
"450 1260 OFFCURVE",
"744 1353 OFFCURVE",
"888 1353 CURVE SMOOTH",
"1132 1353 OFFCURVE",
"1232 1207 OFFCURVE",
"1278 1039 CURVE",
"1283 1013 OFFCURVE",
"1342 1008 OFFCURVE",
"1364 1011 CURVE SMOOTH",
"1381 1013 OFFCURVE",
"1422 1028 OFFCURVE",
"1420 1051 CURVE SMOOTH",
"1398 1361 LINE",
"1328 1392 OFFCURVE",
"1150 1449 OFFCURVE",
"890 1449 CURVE SMOOTH",
"546 1449 OFFCURVE",
"71 1256 OFFCURVE",
"71 706 CURVE SMOOTH {name = hr00;}",
"71 153 OFFCURVE",
"564 -30 OFFCURVE",
"880 -30 CURVE SMOOTH"
);
}
);
width = 1653;
}
);
leftKerningGroup = O;
rightKerningGroup = G;
unicode = 0047;
},
{
color = 9;
glyphname = H;
lastChange = "2018-07-14 03:46:48 +0000";
layers = (
{
anchors = (
{
name = bottom;
position = "{832, 0}";
},
{
name = center;
position = "{832, 710}";
},
{
name = top;
position = "{832, 1419}";
},
{
name = topleft;
position = "{17, 1419}";
}
);
layerId = "DD6F9F34-BC40-4E8F-B1D3-DF3B42A9710F";
paths = (
{
closed = 1;
nodes = (
"634 0 LINE SMOOTH",
"657 0 OFFCURVE",
"668 36 OFFCURVE",
"668 51 CURVE SMOOTH",
"668 81 OFFCURVE",
"660 85 OFFCURVE",
"632 88 CURVE SMOOTH",
"571 95 OFFCURVE",
"480 99 OFFCURVE",
"480 185 CURVE SMOOTH",
"481 1267 LINE SMOOTH",
"481 1311 OFFCURVE",
"562 1326 OFFCURVE",
"626 1331 CURVE SMOOTH",
"652 1333 OFFCURVE",
"659 1347 OFFCURVE",
"659 1368 CURVE SMOOTH",
"659 1383 OFFCURVE",
"648 1419 OFFCURVE",
"625 1419 CURVE SMOOTH",
"130 1419 LINE SMOOTH",
"107 1419 OFFCURVE",
"96 1383 OFFCURVE",
"96 1368 CURVE SMOOTH",
"96 1338 OFFCURVE",
"104 1334 OFFCURVE",
"132 1331 CURVE SMOOTH",
"193 1324 OFFCURVE",
"274 1320 OFFCURVE",
"274 1234 CURVE",
"273 152 LINE SMOOTH",
"273 108 OFFCURVE",
"202 93 OFFCURVE",
"138 88 CURVE SMOOTH",
"112 86 OFFCURVE",
"105 72 OFFCURVE",
"105 51 CURVE SMOOTH",
"105 36 OFFCURVE",
"116 0 OFFCURVE",
"139 0 CURVE SMOOTH"
);
},
{
closed = 1;
nodes = (
"1539 0 LINE SMOOTH",
"1562 0 OFFCURVE",
"1573 36 OFFCURVE",
"1573 51 CURVE SMOOTH",
"1573 81 OFFCURVE",
"1565 85 OFFCURVE",
"1537 88 CURVE SMOOTH",
"1476 95 OFFCURVE",
"1385 99 OFFCURVE",
"1385 185 CURVE SMOOTH",
"1386 1267 LINE SMOOTH",
"1386 1311 OFFCURVE",
"1467 1326 OFFCURVE",
"1531 1331 CURVE SMOOTH",
"1557 1333 OFFCURVE",
"1564 1347 OFFCURVE",
"1564 1368 CURVE SMOOTH",
"1564 1383 OFFCURVE",
"1553 1419 OFFCURVE",
"1530 1419 CURVE SMOOTH",
"1025 1419 LINE SMOOTH",
"1002 1419 OFFCURVE",
"991 1383 OFFCURVE",
"991 1368 CURVE SMOOTH",
"991 1338 OFFCURVE",
"999 1334 OFFCURVE",
"1027 1331 CURVE SMOOTH",
"1088 1324 OFFCURVE",
"1179 1320 OFFCURVE",
"1179 1234 CURVE SMOOTH",
"1178 152 LINE SMOOTH",
"1178 108 OFFCURVE",
"1097 93 OFFCURVE",
"1033 88 CURVE SMOOTH",
"1007 86 OFFCURVE",
"1000 72 OFFCURVE",
"1000 51 CURVE SMOOTH",
"1000 36 OFFCURVE",
"1011 0 OFFCURVE",
"1034 0 CURVE SMOOTH"
);
},
{
closed = 1;
nodes = (
"1216 700 LINE",
"1216 796 LINE",
"419 796 LINE",
"419 700 LINE"
);
}
);
width = 1669;
},
{
anchors = (
{
name = bottom;
position = "{931, 0}";
},
{
name = center;
position = "{931, 710}";
},
{
name = top;
position = "{931, 1419}";
},
{
name = topleft;
position = "{16, 1419}";
}
);
layerId = "62CA62AF-CD91-478A-AB8B-28A62CC47DA0";
paths = (
{
closed = 1;
nodes = (
"769 0 LINE SMOOTH",
"792 0 OFFCURVE",
"803 36 OFFCURVE",
"803 51 CURVE SMOOTH",
"803 81 OFFCURVE",
"795 85 OFFCURVE",
"767 88 CURVE SMOOTH",
"706 93 OFFCURVE",
"616 99 OFFCURVE",
"616 185 CURVE SMOOTH",
"616 1267 LINE SMOOTH",
"616 1311 OFFCURVE",
"693 1326 OFFCURVE",
"761 1331 CURVE",
"787 1334 OFFCURVE",
"794 1347 OFFCURVE",
"794 1368 CURVE SMOOTH",
"794 1383 OFFCURVE",
"783 1419 OFFCURVE",
"760 1419 CURVE SMOOTH",
"135 1419 LINE SMOOTH",
"112 1419 OFFCURVE",
"101 1383 OFFCURVE",
"101 1368 CURVE SMOOTH",
"101 1338 OFFCURVE",
"109 1334 OFFCURVE",
"137 1331 CURVE SMOOTH",
"198 1326 OFFCURVE",
"279 1320 OFFCURVE",
"279 1234 CURVE SMOOTH",
"279 152 LINE SMOOTH",
"279 108 OFFCURVE",
"207 93 OFFCURVE",
"143 88 CURVE",
"117 85 OFFCURVE",
"110 72 OFFCURVE",
"110 51 CURVE SMOOTH {name = hr00;}",
"110 36 OFFCURVE",
"121 0 OFFCURVE",
"144 0 CURVE SMOOTH"
);
},
{
closed = 1;
nodes = (
"1735 0 LINE SMOOTH",
"1758 0 OFFCURVE",
"1769 36 OFFCURVE",
"1769 51 CURVE SMOOTH",
"1769 81 OFFCURVE",
"1761 85 OFFCURVE",
"1733 88 CURVE SMOOTH",
"1672 95 OFFCURVE",
"1582 99 OFFCURVE",
"1582 185 CURVE SMOOTH",
"1582 1267 LINE SMOOTH",
"1582 1311 OFFCURVE",
"1659 1326 OFFCURVE",
"1727 1331 CURVE",
"1753 1334 OFFCURVE",
"1760 1347 OFFCURVE",
"1760 1368 CURVE SMOOTH",
"1760 1383 OFFCURVE",
"1749 1419 OFFCURVE",
"1726 1419 CURVE SMOOTH",
"1091 1419 LINE SMOOTH",
"1068 1419 OFFCURVE",
"1057 1383 OFFCURVE",
"1057 1368 CURVE SMOOTH",
"1057 1338 OFFCURVE",
"1065 1334 OFFCURVE",
"1093 1331 CURVE SMOOTH",
"1154 1324 OFFCURVE",
"1245 1320 OFFCURVE",
"1245 1234 CURVE SMOOTH",
"1245 152 LINE SMOOTH",
"1245 108 OFFCURVE",
"1163 93 OFFCURVE",
"1099 88 CURVE",
"1073 85 OFFCURVE",
"1066 72 OFFCURVE",
"1066 51 CURVE SMOOTH",
"1066 36 OFFCURVE",
"1077 0 OFFCURVE",
"1100 0 CURVE SMOOTH"
);
},
{
closed = 1;
nodes = (
"1331 608 LINE",
"1331 744 LINE",
"534 744 LINE",
"534 608 LINE"
);
}
);
width = 1870;
}
);
leftKerningGroup = H;
rightKerningGroup = H;
unicode = 0048;
},
{
color = 9;
glyphname = Hbar;
lastChange = "2018-07-14 03:46:48 +0000";
layers = (
{
anchors = (
{
name = bottom;
position = "{832, 0}";
},
{
name = center;
position = "{832, 710}";
},
{
name = top;
position = "{832, 1419}";
},
{
name = topleft;
position = "{17, 1419}";
}
);
layerId = "DD6F9F34-BC40-4E8F-B1D3-DF3B42A9710F";
paths = (
{
closed = 1;
nodes = (
"1541 0 LINE SMOOTH",
"1564 0 OFFCURVE",
"1575 36 OFFCURVE",
"1575 51 CURVE SMOOTH",
"1575 81 OFFCURVE",
"1567 85 OFFCURVE",
"1539 88 CURVE SMOOTH",
"1478 93 OFFCURVE",
"1387 99 OFFCURVE",
"1387 185 CURVE SMOOTH",
"1388 1267 LINE SMOOTH",
"1388 1311 OFFCURVE",
"1469 1326 OFFCURVE",
"1533 1331 CURVE SMOOTH",
"1559 1334 OFFCURVE",
"1566 1347 OFFCURVE",
"1566 1368 CURVE SMOOTH",
"1566 1383 OFFCURVE",
"1555 1419 OFFCURVE",
"1532 1419 CURVE SMOOTH",
"1027 1419 LINE SMOOTH",
"1004 1419 OFFCURVE",
"993 1383 OFFCURVE",
"993 1368 CURVE SMOOTH",
"993 1338 OFFCURVE",
"1001 1334 OFFCURVE",
"1029 1331 CURVE SMOOTH",
"1090 1326 OFFCURVE",
"1181 1320 OFFCURVE",
"1181 1234 CURVE SMOOTH",
"1180 152 LINE SMOOTH",
"1180 108 OFFCURVE",
"1099 93 OFFCURVE",
"1035 88 CURVE SMOOTH",
"1009 85 OFFCURVE",
"1002 72 OFFCURVE",
"1002 51 CURVE SMOOTH",
"1002 36 OFFCURVE",
"1013 0 OFFCURVE",
"1036 0 CURVE SMOOTH"
);
},
{
closed = 1;
nodes = (
"636 0 LINE SMOOTH",
"659 0 OFFCURVE",
"670 36 OFFCURVE",
"670 51 CURVE SMOOTH",
"670 81 OFFCURVE",
"662 85 OFFCURVE",
"634 88 CURVE SMOOTH",
"573 93 OFFCURVE",
"482 99 OFFCURVE",
"482 185 CURVE SMOOTH",
"483 1267 LINE SMOOTH",
"483 1311 OFFCURVE",
"564 1326 OFFCURVE",
"628 1331 CURVE SMOOTH",
"654 1334 OFFCURVE",
"661 1347 OFFCURVE",
"661 1368 CURVE SMOOTH",
"661 1383 OFFCURVE",
"650 1419 OFFCURVE",
"627 1419 CURVE SMOOTH",
"132 1419 LINE SMOOTH",
"109 1419 OFFCURVE",
"98 1383 OFFCURVE",
"98 1368 CURVE SMOOTH",
"98 1338 OFFCURVE",
"106 1334 OFFCURVE",
"134 1331 CURVE SMOOTH",
"195 1326 OFFCURVE",
"276 1320 OFFCURVE",
"276 1234 CURVE",
"275 152 LINE SMOOTH",
"275 108 OFFCURVE",
"204 93 OFFCURVE",
"140 88 CURVE SMOOTH",
"114 85 OFFCURVE",
"107 72 OFFCURVE",
"107 51 CURVE SMOOTH",
"107 36 OFFCURVE",
"118 0 OFFCURVE",
"141 0 CURVE SMOOTH"
);
},
{
closed = 1;
nodes = (
"1218 545 LINE",
"1218 631 LINE",
"421 631 LINE",
"421 545 LINE"
);
},
{
closed = 1;
nodes = (
"1569 887 LINE",
"1583 893 OFFCURVE",
"1593 935 OFFCURVE",
"1593 960 CURVE SMOOTH",
"1593 976 OFFCURVE",
"1585 993 OFFCURVE",
"1569 994 CURVE",
"123 994 LINE",
"109 988 OFFCURVE",
"99 966 OFFCURVE",
"99 941 CURVE SMOOTH",
"99 925 OFFCURVE",
"107 888 OFFCURVE",
"123 887 CURVE"
);
}
);
width = 1669;
},
{
anchors = (
{
name = bottom;
position = "{902, 0}";
},
{
name = center;
position = "{902, 710}";
},
{
name = top;
position = "{902, 1419}";
},
{
name = topleft;
position = "{-13, 1419}";
}
);
layerId = "62CA62AF-CD91-478A-AB8B-28A62CC47DA0";
paths = (
{
closed = 1;
nodes = (
"1707 0 LINE SMOOTH",
"1730 0 OFFCURVE",
"1741 36 OFFCURVE",
"1741 51 CURVE SMOOTH",
"1741 81 OFFCURVE",
"1733 85 OFFCURVE",
"1705 88 CURVE SMOOTH",
"1644 93 OFFCURVE",
"1554 99 OFFCURVE",
"1554 185 CURVE SMOOTH",
"1554 1267 LINE SMOOTH",
"1554 1311 OFFCURVE",
"1631 1326 OFFCURVE",
"1699 1331 CURVE",
"1725 1334 OFFCURVE",
"1732 1347 OFFCURVE",
"1732 1368 CURVE SMOOTH",
"1732 1383 OFFCURVE",
"1721 1419 OFFCURVE",
"1698 1419 CURVE SMOOTH",
"1063 1419 LINE SMOOTH",
"1040 1419 OFFCURVE",
"1029 1383 OFFCURVE",
"1029 1368 CURVE SMOOTH",
"1029 1338 OFFCURVE",
"1037 1334 OFFCURVE",
"1065 1331 CURVE SMOOTH",
"1126 1326 OFFCURVE",
"1217 1320 OFFCURVE",
"1217 1234 CURVE SMOOTH",
"1217 152 LINE SMOOTH",
"1217 108 OFFCURVE",
"1135 93 OFFCURVE",
"1071 88 CURVE",
"1045 85 OFFCURVE",
"1038 72 OFFCURVE",
"1038 51 CURVE SMOOTH",
"1038 36 OFFCURVE",
"1049 0 OFFCURVE",
"1072 0 CURVE SMOOTH"
);
},
{
closed = 1;
nodes = (
"740 0 LINE SMOOTH",
"763 0 OFFCURVE",
"774 36 OFFCURVE",
"774 51 CURVE SMOOTH",
"774 81 OFFCURVE",
"766 85 OFFCURVE",
"738 88 CURVE SMOOTH",
"677 93 OFFCURVE",
"587 99 OFFCURVE",
"587 185 CURVE SMOOTH",
"587 1267 LINE SMOOTH",
"587 1311 OFFCURVE",
"664 1326 OFFCURVE",
"732 1331 CURVE",
"758 1334 OFFCURVE",
"765 1347 OFFCURVE",
"765 1368 CURVE SMOOTH",
"765 1383 OFFCURVE",
"754 1419 OFFCURVE",
"731 1419 CURVE SMOOTH",
"106 1419 LINE SMOOTH",
"83 1419 OFFCURVE",
"72 1383 OFFCURVE",
"72 1368 CURVE SMOOTH",
"72 1338 OFFCURVE",
"80 1334 OFFCURVE",
"108 1331 CURVE SMOOTH",
"169 1326 OFFCURVE",
"250 1320 OFFCURVE",
"250 1234 CURVE SMOOTH",
"250 152 LINE SMOOTH",
"250 108 OFFCURVE",
"178 93 OFFCURVE",
"114 88 CURVE",
"88 85 OFFCURVE",
"81 72 OFFCURVE",
"81 51 CURVE SMOOTH {name = hr00;}",
"81 36 OFFCURVE",
"92 0 OFFCURVE",
"115 0 CURVE SMOOTH"
);
},
{
closed = 1;
nodes = (
"1302 493 LINE",
"1302 629 LINE",
"505 629 LINE",
"505 493 LINE"
);
},
{
closed = 1;
nodes = (
"1731 887 LINE",
"1745 893 OFFCURVE",
"1755 935 OFFCURVE",
"1755 960 CURVE SMOOTH",
"1755 976 OFFCURVE",
"1747 993 OFFCURVE",
"1731 994 CURVE",
"93 994 LINE",
"79 988 OFFCURVE",
"69 966 OFFCURVE",
"69 941 CURVE SMOOTH",
"69 925 OFFCURVE",
"77 888 OFFCURVE",
"93 887 CURVE"
);
}
);
width = 1870;
}
);
leftKerningGroup = H;
rightKerningGroup = H;
unicode = 0126;
},
{
color = 9;
glyphname = I;
lastChange = "2018-07-14 03:46:58 +0000";
layers = (
{
anchors = (
{
name = bottom;
position = "{410, 0}";
},
{
name = ogonek;
position = "{689, 10}";
},
{
name = top;
position = "{397, 1419}";
},
{
name = topleft;
position = "{-9, 1419}";
}
);
layerId = "DD6F9F34-BC40-4E8F-B1D3-DF3B42A9710F";
paths = (
{
closed = 1;
nodes = (
"656 0 LINE SMOOTH",
"679 0 OFFCURVE",
"690 36 OFFCURVE",
"690 51 CURVE SMOOTH",
"690 81 OFFCURVE",
"682 85 OFFCURVE",
"654 88 CURVE SMOOTH",
"593 95 OFFCURVE",
"502 99 OFFCURVE",
"502 185 CURVE SMOOTH",
"503 1267 LINE SMOOTH",
"503 1311 OFFCURVE",
"584 1326 OFFCURVE",
"648 1331 CURVE SMOOTH",
"674 1333 OFFCURVE",
"681 1347 OFFCURVE",
"681 1368 CURVE SMOOTH",
"681 1383 OFFCURVE",
"670 1419 OFFCURVE",
"647 1419 CURVE SMOOTH",
"142 1419 LINE SMOOTH",
"119 1419 OFFCURVE",
"108 1383 OFFCURVE",
"108 1368 CURVE SMOOTH",
"108 1338 OFFCURVE",
"116 1334 OFFCURVE",
"144 1331 CURVE SMOOTH",
"205 1324 OFFCURVE",
"296 1320 OFFCURVE",
"296 1234 CURVE SMOOTH",
"295 152 LINE SMOOTH",
"295 108 OFFCURVE",
"214 93 OFFCURVE",
"150 88 CURVE SMOOTH",
"124 86 OFFCURVE",
"117 72 OFFCURVE",
"117 51 CURVE SMOOTH",
"117 36 OFFCURVE",
"128 0 OFFCURVE",
"151 0 CURVE SMOOTH"
);
}
);
width = 798;
},
{
anchors = (
{
name = bottom;
position = "{467, 0}";
},
{
name = ogonek;
position = "{823, 10}";
},
{
name = top;
position = "{456, 1419}";
},
{
name = topleft;
position = "{21, 1419}";
}
);
layerId = "62CA62AF-CD91-478A-AB8B-28A62CC47DA0";
paths = (
{
closed = 1;
nodes = (
"779 0 LINE SMOOTH",
"802 0 OFFCURVE",
"813 36 OFFCURVE",
"813 51 CURVE SMOOTH",
"813 81 OFFCURVE",
"805 85 OFFCURVE",
"777 88 CURVE SMOOTH",
"716 93 OFFCURVE",
"625 99 OFFCURVE",
"625 185 CURVE SMOOTH",
"626 1267 LINE SMOOTH",
"626 1311 OFFCURVE",
"703 1326 OFFCURVE",
"771 1331 CURVE SMOOTH",
"797 1334 OFFCURVE",
"804 1347 OFFCURVE",
"804 1368 CURVE SMOOTH",
"804 1383 OFFCURVE",
"793 1419 OFFCURVE",
"770 1419 CURVE SMOOTH",
"135 1419 LINE SMOOTH",
"112 1419 OFFCURVE",
"101 1383 OFFCURVE",
"101 1368 CURVE SMOOTH",
"101 1338 OFFCURVE",
"109 1334 OFFCURVE",
"137 1331 CURVE SMOOTH",
"198 1326 OFFCURVE",
"289 1320 OFFCURVE",
"289 1234 CURVE SMOOTH",
"288 152 LINE SMOOTH",
"288 108 OFFCURVE",
"207 93 OFFCURVE",
"143 88 CURVE SMOOTH",
"117 85 OFFCURVE",
"110 72 OFFCURVE",
"110 51 CURVE SMOOTH {name = hr00;}",
"110 36 OFFCURVE",
"121 0 OFFCURVE",
"144 0 CURVE SMOOTH"
);
}
);
width = 913;
}
);
leftKerningGroup = I;
rightKerningGroup = I;
unicode = 0049;
},
{
color = 5;
glyphname = Iogonek;
lastChange = "2018-07-12 21:08:59 +0000";
layers = (
{
components = (
{
name = I;
}
);
layerId = "DD6F9F34-BC40-4E8F-B1D3-DF3B42A9710F";
paths = (
{
closed = 1;
nodes = (
"383 0 LINE",
"231 -36 OFFCURVE",
"138 -119 OFFCURVE",
"138 -224 CURVE SMOOTH",
"138 -329 OFFCURVE",
"247 -407 OFFCURVE",
"377 -407 CURVE SMOOTH",
"437 -407 OFFCURVE",
"523 -389 OFFCURVE",
"566 -360 CURVE SMOOTH",
"596 -340 OFFCURVE",
"590 -239 OFFCURVE",
"566 -243 CURVE SMOOTH",
"532 -249 OFFCURVE",
"516 -259 OFFCURVE",
"484 -259 CURVE SMOOTH",
"395 -259 OFFCURVE",
"361 -233 OFFCURVE",
"361 -172 CURVE SMOOTH",
"361 -96 OFFCURVE",
"436 -32 OFFCURVE",
"532 0 CURVE",
"495 69 LINE"
);
}
);
width = 798;
},
{
components = (
{
name = I;
}
);
layerId = "62CA62AF-CD91-478A-AB8B-28A62CC47DA0";
paths = (
{
closed = 1;
nodes = (
"443 0 LINE",
"224 -52 OFFCURVE",
"156 -157 OFFCURVE",
"156 -264 CURVE SMOOTH",
"156 -370 OFFCURVE",
"268 -444 OFFCURVE",
"425 -444 CURVE SMOOTH",
"498 -444 OFFCURVE",
"602 -422 OFFCURVE",
"654 -387 CURVE SMOOTH",
"690 -363 OFFCURVE",
"681 -237 OFFCURVE",
"654 -246 CURVE SMOOTH",
"613 -260 OFFCURVE",
"593 -265 OFFCURVE",
"555 -265 CURVE SMOOTH",
"447 -265 OFFCURVE",
"406 -234 OFFCURVE",
"406 -184 CURVE SMOOTH",
"406 -116 OFFCURVE",
"498 -39 OFFCURVE",
"613 0 CURVE",
"518 32 LINE"
);
}
);
width = 913;
}
);
leftKerningGroup = I;
rightKerningGroup = I;
unicode = 012E;
},
{
color = 4;
glyphname = J;
lastChange = "2018-07-12 15:53:51 +0000";
layers = (
{
anchors = (
{
name = bottom;
position = "{403, 0}";
},
{
name = top;
position = "{683, 1419}";
}
);
layerId = "DD6F9F34-BC40-4E8F-B1D3-DF3B42A9710F";
paths = (
{
closed = 1;
nodes = (
"522 -30 OFFCURVE",
"793 48 OFFCURVE",
"793 439 CURVE SMOOTH",
"793 1267 LINE SMOOTH",
"793 1311 OFFCURVE",
"860 1326 OFFCURVE",
"919 1331 CURVE SMOOTH",
"945 1334 OFFCURVE",
"952 1347 OFFCURVE",
"952 1368 CURVE SMOOTH",
"952 1383 OFFCURVE",
"941 1419 OFFCURVE",
"918 1419 CURVE SMOOTH",
"403 1419 LINE SMOOTH",
"380 1419 OFFCURVE",
"369 1383 OFFCURVE",
"369 1368 CURVE SMOOTH",
"369 1338 OFFCURVE",
"377 1334 OFFCURVE",
"405 1331 CURVE",
"478 1326 OFFCURVE",
"587 1320 OFFCURVE",
"587 1234 CURVE SMOOTH",
"586 406 LINE SMOOTH",
"586 161 OFFCURVE",
"502 59 OFFCURVE",
"362 59 CURVE SMOOTH",
"294 59 OFFCURVE",
"238 82 OFFCURVE",
"198 113 CURVE",
"211 232 OFFCURVE",
"234 399 OFFCURVE",
"222 431 CURVE SMOOTH",
"210 464 OFFCURVE",
"174 471 OFFCURVE",
"150 471 CURVE SMOOTH",
"97 471 OFFCURVE",
"50 427 OFFCURVE",
"28 373 CURVE SMOOTH",
"-1 303 OFFCURVE",
"-3 171 OFFCURVE",
"95 76 CURVE",
"183 1 OFFCURVE",
"281 -30 OFFCURVE",
"371 -30 CURVE SMOOTH"
);
}
);
width = 1060;
},
{
anchors = (
{
name = bottom;
position = "{457, 0}";
},
{
name = top;
position = "{790, 1419}";
}
);
layerId = "62CA62AF-CD91-478A-AB8B-28A62CC47DA0";
paths = (
{
closed = 1;
nodes = (
"654 -30 OFFCURVE",
"959 48 OFFCURVE",
"959 439 CURVE SMOOTH",
"959 1267 LINE SMOOTH",
"959 1311 OFFCURVE",
"1024 1327 OFFCURVE",
"1125 1331 CURVE SMOOTH",
"1151 1332 OFFCURVE",
"1158 1347 OFFCURVE",
"1158 1368 CURVE SMOOTH",
"1158 1383 OFFCURVE",
"1147 1419 OFFCURVE",
"1124 1419 CURVE SMOOTH",
"419 1419 LINE SMOOTH",
"396 1419 OFFCURVE",
"385 1383 OFFCURVE",
"385 1368 CURVE SMOOTH",
"385 1338 OFFCURVE",
"393 1334 OFFCURVE",
"421 1331 CURVE",
"502 1326 OFFCURVE",
"623 1320 OFFCURVE",
"623 1234 CURVE SMOOTH",
"622 406 LINE SMOOTH",
"622 161 OFFCURVE",
"559 59 OFFCURVE",
"418 59 CURVE SMOOTH",
"368 59 OFFCURVE",
"325 69 OFFCURVE",
"289 84 CURVE",
"315 211 OFFCURVE",
"346 404 OFFCURVE",
"348 461 CURVE SMOOTH",
"349 496 OFFCURVE",
"301 541 OFFCURVE",
"224 541 CURVE SMOOTH",
"148 541 OFFCURVE",
"59 486 OFFCURVE",
"38 431 CURVE SMOOTH",
"-2 329 OFFCURVE",
"12 183 OFFCURVE",
"115 94 CURVE SMOOTH {name = hr00;}",
"209 13 OFFCURVE",
"331 -30 OFFCURVE",
"427 -30 CURVE SMOOTH"
);
}
);
width = 1219;
}
);
leftKerningGroup = J;
rightKerningGroup = U;
unicode = 004A;
},
{
color = 4;
glyphname = K;
lastChange = "2018-07-12 15:53:51 +0000";
layers = (
{
anchors = (
{
name = bottom;
position = "{712, 0}";
},
{
name = top;
position = "{712, 1419}";
}
);
layerId = "DD6F9F34-BC40-4E8F-B1D3-DF3B42A9710F";
paths = (
{
closed = 1;
nodes = (
"640 0 LINE SMOOTH",
"663 0 OFFCURVE",
"674 36 OFFCURVE",
"674 51 CURVE SMOOTH",
"674 81 OFFCURVE",
"666 85 OFFCURVE",
"638 88 CURVE SMOOTH",
"577 93 OFFCURVE",
"496 99 OFFCURVE",
"496 185 CURVE SMOOTH",
"497 1267 LINE SMOOTH",
"497 1311 OFFCURVE",
"568 1326 OFFCURVE",
"632 1331 CURVE",
"658 1334 OFFCURVE",
"665 1347 OFFCURVE",
"665 1368 CURVE SMOOTH",
"665 1383 OFFCURVE",
"654 1419 OFFCURVE",
"631 1419 CURVE SMOOTH",
"136 1419 LINE SMOOTH",
"113 1419 OFFCURVE",
"102 1383 OFFCURVE",
"102 1368 CURVE SMOOTH",
"102 1338 OFFCURVE",
"110 1334 OFFCURVE",
"138 1331 CURVE SMOOTH",
"199 1326 OFFCURVE",
"290 1320 OFFCURVE",
"290 1234 CURVE SMOOTH",
"289 152 LINE SMOOTH",
"289 108 OFFCURVE",
"208 93 OFFCURVE",
"144 88 CURVE",
"118 85 OFFCURVE",
"111 72 OFFCURVE",
"111 51 CURVE SMOOTH",
"111 36 OFFCURVE",
"122 0 OFFCURVE",
"145 0 CURVE SMOOTH"
);
},
{
closed = 1;
nodes = (
"1412 0 LINE SMOOTH",
"1434 0 OFFCURVE",
"1446 17 OFFCURVE",
"1446 32 CURVE SMOOTH",
"1446 62 OFFCURVE",
"1438 86 OFFCURVE",
"1410 89 CURVE SMOOTH",
"1361 94 OFFCURVE",
"1260 155 OFFCURVE",
"1214 222 CURVE SMOOTH",
"1104 384 OFFCURVE",
"879 689 OFFCURVE",
"751 773 CURVE",
"1160 1263 LINE",
"1213 1302 OFFCURVE",
"1289 1330 OFFCURVE",
"1357 1330 CURVE SMOOTH",
"1379 1330 OFFCURVE",
"1390 1343 OFFCURVE",
"1390 1367 CURVE SMOOTH",
"1390 1382 OFFCURVE",
"1379 1418 OFFCURVE",
"1356 1418 CURVE SMOOTH",
"924 1418 LINE SMOOTH",
"901 1418 OFFCURVE",
"890 1382 OFFCURVE",
"890 1367 CURVE SMOOTH",
"890 1346 OFFCURVE",
"895 1333 OFFCURVE",
"921 1330 CURVE SMOOTH",
"963 1326 OFFCURVE",
"1065 1319 OFFCURVE",
"1027 1276 CURVE SMOOTH",
"544 692 LINE",
"687 674 OFFCURVE",
"915 219 OFFCURVE",
"1072 52 CURVE SMOOTH",
"1103 19 OFFCURVE",
"1122 0 OFFCURVE",
"1197 0 CURVE SMOOTH"
);
}
);
width = 1422;
},
{
anchors = (
{
name = bottom;
position = "{875, 0}";
},
{
name = top;
position = "{875, 1419}";
}
);
layerId = "62CA62AF-CD91-478A-AB8B-28A62CC47DA0";
paths = (
{
closed = 1;
nodes = (
"735 0 LINE SMOOTH",
"758 0 OFFCURVE",
"769 36 OFFCURVE",
"769 51 CURVE SMOOTH",
"769 81 OFFCURVE",
"761 85 OFFCURVE",
"733 88 CURVE SMOOTH",
"672 93 OFFCURVE",
"591 99 OFFCURVE",
"591 185 CURVE SMOOTH",
"592 1267 LINE SMOOTH",
"592 1311 OFFCURVE",
"673 1326 OFFCURVE",
"727 1331 CURVE SMOOTH",
"753 1334 OFFCURVE",
"760 1347 OFFCURVE",
"760 1368 CURVE SMOOTH",
"760 1383 OFFCURVE",
"749 1419 OFFCURVE",
"726 1419 CURVE SMOOTH",
"101 1419 LINE SMOOTH",
"78 1419 OFFCURVE",
"67 1383 OFFCURVE",
"67 1368 CURVE SMOOTH",
"67 1338 OFFCURVE",
"75 1334 OFFCURVE",
"103 1331 CURVE SMOOTH",
"164 1326 OFFCURVE",
"255 1320 OFFCURVE",
"255 1234 CURVE SMOOTH",
"254 162 LINE SMOOTH",
"254 118 OFFCURVE",
"173 93 OFFCURVE",
"109 88 CURVE",
"83 85 OFFCURVE",
"76 72 OFFCURVE",
"76 51 CURVE SMOOTH {name = hr00;}",
"76 36 OFFCURVE",
"87 0 OFFCURVE",
"110 0 CURVE SMOOTH"
);
},
{
closed = 1;
nodes = (
"1583 0 LINE SMOOTH",
"1605 0 OFFCURVE",
"1617 31 OFFCURVE",
"1617 46 CURVE SMOOTH",
"1617 76 OFFCURVE",
"1609 86 OFFCURVE",
"1581 89 CURVE SMOOTH",
"1532 94 OFFCURVE",
"1454 156 OFFCURVE",
"1357 293 CURVE SMOOTH",
"1231 472 OFFCURVE",
"981 779 OFFCURVE",
"876 826 CURVE",
"1321 1260 LINE SMOOTH",
"1368 1306 OFFCURVE",
"1454 1330 OFFCURVE",
"1522 1330 CURVE SMOOTH",
"1544 1330 OFFCURVE",
"1555 1343 OFFCURVE",
"1555 1367 CURVE SMOOTH",
"1555 1382 OFFCURVE",
"1544 1418 OFFCURVE",
"1521 1418 CURVE SMOOTH",
"1039 1418 LINE SMOOTH",
"1016 1418 OFFCURVE",
"1005 1382 OFFCURVE",
"1005 1367 CURVE SMOOTH",
"1005 1346 OFFCURVE",
"1010 1333 OFFCURVE",
"1036 1330 CURVE SMOOTH",
"1080 1326 OFFCURVE",
"1182 1319 OFFCURVE",
"1142 1276 CURVE SMOOTH",
"593 692 LINE",
"756 704 OFFCURVE",
"902 324 OFFCURVE",
"1053 122 CURVE SMOOTH",
"1107 50 OFFCURVE",
"1162 0 OFFCURVE",
"1219 0 CURVE SMOOTH"
);
}
);
width = 1673;
}
);
leftKerningGroup = H;
rightKerningGroup = K;
unicode = 004B;
},
{
color = 4;
glyphname = L;
lastChange = "2018-07-12 15:53:51 +0000";
layers = (
{
anchors = (
{
name = bottom;
position = "{615, 0}";
},
{
name = center;
position = "{615, 710}";
},
{
name = top;
position = "{615, 1419}";
},
{
name = topright;
position = "{1005, 994}";
}
);
layerId = "DD6F9F34-BC40-4E8F-B1D3-DF3B42A9710F";
paths = (
{
closed = 1;
nodes = (
"1148 1 LINE",
"1207 439 LINE SMOOTH",
"1210 462 OFFCURVE",
"1192 473 OFFCURVE",
"1167 473 CURVE SMOOTH",
"1146 473 OFFCURVE",
"1127 464 OFFCURVE",
"1119 440 CURVE SMOOTH",
"1069 296 OFFCURVE",
"972 101 OFFCURVE",
"879 101 CURVE SMOOTH",
"584 101 LINE SMOOTH",
"535 101 OFFCURVE",
"492 111 OFFCURVE",
"492 177 CURVE SMOOTH",
"493 1237 LINE SMOOTH",
"493 1311 OFFCURVE",
"582 1331 OFFCURVE",
"648 1331 CURVE SMOOTH",
"674 1331 OFFCURVE",
"681 1347 OFFCURVE",
"681 1368 CURVE SMOOTH",
"681 1383 OFFCURVE",
"670 1419 OFFCURVE",
"647 1419 CURVE SMOOTH",
"132 1419 LINE SMOOTH",
"109 1419 OFFCURVE",
"98 1383 OFFCURVE",
"98 1368 CURVE SMOOTH",
"98 1338 OFFCURVE",
"106 1334 OFFCURVE",
"134 1331 CURVE SMOOTH",
"195 1326 OFFCURVE",
"286 1320 OFFCURVE",
"286 1234 CURVE SMOOTH",
"285 152 LINE SMOOTH",
"285 108 OFFCURVE",
"204 93 OFFCURVE",
"140 88 CURVE",
"114 85 OFFCURVE",
"107 72 OFFCURVE",
"107 51 CURVE SMOOTH",
"107 36 OFFCURVE",
"118 0 OFFCURVE",
"141 0 CURVE"
);
}
);
width = 1236;
},
{
anchors = (
{
name = bottom;
position = "{677, 0}";
},
{
name = center;
position = "{677, 710}";
},
{
name = top;
position = "{677, 1419}";
},
{
name = topright;
position = "{1115, 975}";
}
);
layerId = "62CA62AF-CD91-478A-AB8B-28A62CC47DA0";
paths = (
{
closed = 1;
nodes = (
"1280 0 LINE",
"1339 439 LINE SMOOTH",
"1342 462 OFFCURVE",
"1307 473 OFFCURVE",
"1282 473 CURVE SMOOTH",
"1261 473 OFFCURVE",
"1211 464 OFFCURVE",
"1203 440 CURVE SMOOTH",
"1153 296 OFFCURVE",
"1053 101 OFFCURVE",
"960 101 CURVE SMOOTH",
"686 101 LINE SMOOTH",
"637 101 OFFCURVE",
"594 111 OFFCURVE",
"594 177 CURVE SMOOTH",
"594 1237 LINE SMOOTH",
"594 1311 OFFCURVE",
"675 1331 OFFCURVE",
"789 1331 CURVE SMOOTH",
"815 1331 OFFCURVE",
"822 1347 OFFCURVE",
"822 1368 CURVE SMOOTH",
"822 1383 OFFCURVE",
"811 1419 OFFCURVE",
"788 1419 CURVE SMOOTH",
"103 1419 LINE SMOOTH",
"80 1419 OFFCURVE",
"69 1383 OFFCURVE",
"69 1368 CURVE SMOOTH",
"69 1338 OFFCURVE",
"77 1333 OFFCURVE",
"105 1331 CURVE SMOOTH",
"176 1326 OFFCURVE",
"257 1320 OFFCURVE",
"257 1234 CURVE SMOOTH",
"257 162 LINE SMOOTH",
"257 118 OFFCURVE",
"176 93 OFFCURVE",
"112 88 CURVE",
"86 85 OFFCURVE",
"79 72 OFFCURVE",
"79 51 CURVE SMOOTH {name = hr00;}",
"79 36 OFFCURVE",
"90 0 OFFCURVE",
"113 0 CURVE SMOOTH"
);
}
);
width = 1404;
}
);
leftKerningGroup = H;
rightKerningGroup = L;
unicode = 004C;
},
{
color = 5;
glyphname = Lslash;
lastChange = "2018-07-12 15:53:51 +0000";
layers = (
{
components = (
{
name = L;
transform = "{1, 0, 0, 1, -11, 0}";
}
);
layerId = "DD6F9F34-BC40-4E8F-B1D3-DF3B42A9710F";
paths = (
{
closed = 1;
nodes = (
"760 899 LINE",
"771 910 OFFCURVE",
"765 953 OFFCURVE",
"756 976 CURVE SMOOTH",
"750 991 OFFCURVE",
"736 1004 OFFCURVE",
"721 999 CURVE",
"108 752 LINE",
"98 741 OFFCURVE",
"96 717 OFFCURVE",
"105 694 CURVE SMOOTH",
"111 679 OFFCURVE",
"132 647 OFFCURVE",
"147 652 CURVE"
);
}
);
width = 1236;
},
{
components = (
{
name = L;
transform = "{1, 0, 0, 1, -27, 0}";
}
);
layerId = "62CA62AF-CD91-478A-AB8B-28A62CC47DA0";
paths = (
{
closed = 1;
nodes = (
"844 899 LINE",
"855 910 OFFCURVE",
"849 953 OFFCURVE",
"840 976 CURVE SMOOTH",
"834 991 OFFCURVE",
"820 1004 OFFCURVE",
"805 999 CURVE",
"92 752 LINE",
"82 741 OFFCURVE",
"80 717 OFFCURVE",
"89 694 CURVE SMOOTH",
"95 679 OFFCURVE",
"116 647 OFFCURVE",
"131 652 CURVE"
);
}
);
width = 1404;
}
);
leftKerningGroup = H;
rightKerningGroup = L;
unicode = 0141;
},
{
color = 4;
glyphname = M;
lastChange = "2018-07-12 15:53:51 +0000";
layers = (
{
anchors = (
{
name = bottom;
position = "{928, 0}";
},
{
name = top;
position = "{937, 1311}";
}
);
layerId = "DD6F9F34-BC40-4E8F-B1D3-DF3B42A9710F";
paths = (
{
closed = 1;
nodes = (
"556 0 LINE SMOOTH",
"579 0 OFFCURVE",
"590 36 OFFCURVE",
"590 51 CURVE SMOOTH",
"590 81 OFFCURVE",
"582 85 OFFCURVE",
"554 88 CURVE",
"481 93 OFFCURVE",
"362 99 OFFCURVE",
"362 185 CURVE SMOOTH",
"362 1281 LINE",
"399 1281 LINE",
"877 0 LINE",
"878 3 LINE",
"878 0 LINE",
"928 0 LINE",
"1364 1281 LINE",
"1392 1281 LINE",
"1391 152 LINE SMOOTH",
"1391 108 OFFCURVE",
"1300 93 OFFCURVE",
"1236 88 CURVE",
"1210 85 OFFCURVE",
"1203 72 OFFCURVE",
"1203 51 CURVE SMOOTH",
"1203 36 OFFCURVE",
"1214 0 OFFCURVE",
"1237 0 CURVE SMOOTH",
"1752 0 LINE SMOOTH",
"1775 0 OFFCURVE",
"1786 36 OFFCURVE",
"1786 51 CURVE SMOOTH",
"1786 81 OFFCURVE",
"1778 85 OFFCURVE",
"1750 88 CURVE SMOOTH",
"1689 93 OFFCURVE",
"1598 99 OFFCURVE",
"1598 185 CURVE SMOOTH",
"1599 1267 LINE SMOOTH",
"1599 1311 OFFCURVE",
"1680 1326 OFFCURVE",
"1744 1331 CURVE",
"1770 1334 OFFCURVE",
"1777 1347 OFFCURVE",
"1777 1368 CURVE SMOOTH",
"1777 1383 OFFCURVE",
"1766 1419 OFFCURVE",
"1743 1419 CURVE SMOOTH",
"1305 1419 LINE",
"1295 1373 OFFCURVE",
"1278 1326 OFFCURVE",
"1252 1246 CURVE SMOOTH",
"950 366 LINE",
"938 366 LINE",
"576 1419 LINE",
"82 1419 LINE",
"59 1418 OFFCURVE",
"48 1383 OFFCURVE",
"48 1368 CURVE SMOOTH",
"48 1338 OFFCURVE",
"56 1334 OFFCURVE",
"84 1331 CURVE",
"157 1326 OFFCURVE",
"265 1320 OFFCURVE",
"265 1234 CURVE SMOOTH",
"265 184 LINE SMOOTH",
"265 100 OFFCURVE",
"169 93 OFFCURVE",
"90 88 CURVE",
"64 85 OFFCURVE",
"57 72 OFFCURVE",
"57 51 CURVE SMOOTH",
"57 36 OFFCURVE",
"68 0 OFFCURVE",
"91 0 CURVE SMOOTH"
);
}
);
width = 1899;
},
{
anchors = (
{
name = bottom;
position = "{1018, 0}";
},
{
name = top;
position = "{1052, 1326}";
}
);
layerId = "62CA62AF-CD91-478A-AB8B-28A62CC47DA0";
paths = (
{
closed = 1;
nodes = (
"543 0 LINE SMOOTH",
"566 0 OFFCURVE",
"577 36 OFFCURVE",
"577 51 CURVE SMOOTH",
"577 81 OFFCURVE",
"569 85 OFFCURVE",
"541 88 CURVE",
"468 93 OFFCURVE",
"349 99 OFFCURVE",
"349 185 CURVE SMOOTH",
"349 1281 LINE",
"387 1281 LINE",
"905 0 LINE",
"906 3 LINE",
"906 0 LINE",
"956 0 LINE",
"1448 1281 LINE",
"1476 1281 LINE",
"1476 152 LINE SMOOTH",
"1476 108 OFFCURVE",
"1385 93 OFFCURVE",
"1321 88 CURVE",
"1295 85 OFFCURVE",
"1288 72 OFFCURVE",
"1288 51 CURVE SMOOTH",
"1288 36 OFFCURVE",
"1299 0 OFFCURVE",
"1322 0 CURVE SMOOTH",
"1967 0 LINE SMOOTH",
"1990 0 OFFCURVE",
"2001 36 OFFCURVE",
"2001 51 CURVE SMOOTH",
"2001 81 OFFCURVE",
"1993 85 OFFCURVE",
"1965 88 CURVE SMOOTH",
"1904 93 OFFCURVE",
"1814 99 OFFCURVE",
"1814 185 CURVE SMOOTH",
"1814 1267 LINE SMOOTH",
"1814 1311 OFFCURVE",
"1891 1326 OFFCURVE",
"1959 1331 CURVE",
"1985 1334 OFFCURVE",
"1992 1347 OFFCURVE",
"1992 1368 CURVE SMOOTH",
"1992 1383 OFFCURVE",
"1981 1419 OFFCURVE",
"1958 1419 CURVE SMOOTH",
"1381 1419 LINE",
"1381 1398 OFFCURVE",
"1371 1350 OFFCURVE",
"1364 1331 CURVE SMOOTH",
"1040 497 LINE",
"711 1414 LINE",
"711 1419 LINE",
"69 1419 LINE",
"46 1418 OFFCURVE",
"35 1383 OFFCURVE",
"35 1368 CURVE SMOOTH",
"35 1338 OFFCURVE",
"43 1334 OFFCURVE",
"71 1331 CURVE",
"144 1326 OFFCURVE",
"252 1320 OFFCURVE",
"252 1234 CURVE SMOOTH",
"252 184 LINE SMOOTH",
"252 100 OFFCURVE",
"156 93 OFFCURVE",
"77 88 CURVE",
"51 85 OFFCURVE",
"44 72 OFFCURVE",
"44 51 CURVE SMOOTH {name = hr00;}",
"44 36 OFFCURVE",
"55 0 OFFCURVE",
"78 0 CURVE SMOOTH"
);
}
);
width = 2096;
}
);
leftKerningGroup = M;
rightKerningGroup = M;
unicode = 004D;
userData = {
com.typemytype.robofont.guides = (
{
angle = 0;
isGlobal = 0;
magnetic = 5;
x = 0;
y = 1281;
}
);
};
},
{
color = 4;
glyphname = N;
lastChange = "2018-07-12 15:53:51 +0000";
layers = (
{
anchors = (
{
name = bottom;
position = "{739, 0}";
},
{
name = top;
position = "{777, 1419}";
}
);
layerId = "DD6F9F34-BC40-4E8F-B1D3-DF3B42A9710F";
paths = (
{
closed = 1;
nodes = (
"492 0 LINE SMOOTH",
"515 0 OFFCURVE",
"526 36 OFFCURVE",
"526 51 CURVE SMOOTH",
"526 81 OFFCURVE",
"518 85 OFFCURVE",
"490 88 CURVE SMOOTH",
"429 93 OFFCURVE",
"318 99 OFFCURVE",
"318 185 CURVE SMOOTH",
"318 1130 LINE",
"335 1130 LINE",
"1176 -8 LINE",
"1186 -20 OFFCURVE",
"1209 -30 OFFCURVE",
"1230 -30 CURVE SMOOTH",
"1258 -30 OFFCURVE",
"1295 -16 OFFCURVE",
"1290 40 CURVE SMOOTH",
"1287 78 OFFCURVE",
"1284 88 OFFCURVE",
"1284 113 CURVE SMOOTH",
"1284 1234 LINE SMOOTH",
"1284 1320 OFFCURVE",
"1398 1325 OFFCURVE",
"1459 1331 CURVE SMOOTH",
"1485 1334 OFFCURVE",
"1492 1347 OFFCURVE",
"1492 1368 CURVE SMOOTH",
"1492 1383 OFFCURVE",
"1481 1419 OFFCURVE",
"1458 1419 CURVE SMOOTH",
"1003 1419 LINE SMOOTH",
"980 1419 OFFCURVE",
"969 1383 OFFCURVE",
"969 1368 CURVE SMOOTH",
"969 1338 OFFCURVE",
"977 1334 OFFCURVE",
"1005 1331 CURVE SMOOTH",
"1066 1326 OFFCURVE",
"1187 1320 OFFCURVE",
"1187 1234 CURVE SMOOTH",
"1187 343 LINE",
"1175 343 LINE",
"396 1419 LINE",
"58 1419 LINE SMOOTH",
"35 1419 OFFCURVE",
"24 1383 OFFCURVE",
"24 1368 CURVE SMOOTH",
"24 1338 OFFCURVE",
"32 1334 OFFCURVE",
"60 1331 CURVE SMOOTH",
"121 1326 OFFCURVE",
"221 1320 OFFCURVE",
"221 1234 CURVE SMOOTH",
"221 172 LINE SMOOTH",
"221 108 OFFCURVE",
"130 93 OFFCURVE",
"66 88 CURVE",
"40 85 OFFCURVE",
"33 72 OFFCURVE",
"33 51 CURVE SMOOTH",
"33 36 OFFCURVE",
"44 0 OFFCURVE",
"67 0 CURVE SMOOTH"
);
}
);
width = 1571;
},
{
anchors = (
{
name = bottom;
position = "{820, 0}";
},
{
name = top;
position = "{873, 1419}";
}
);
layerId = "62CA62AF-CD91-478A-AB8B-28A62CC47DA0";
paths = (
{
closed = 1;
nodes = (
"578 0 LINE SMOOTH",
"601 0 OFFCURVE",
"612 36 OFFCURVE",
"612 51 CURVE SMOOTH",
"612 81 OFFCURVE",
"604 85 OFFCURVE",
"576 88 CURVE SMOOTH",
"515 93 OFFCURVE",
"374 99 OFFCURVE",
"374 185 CURVE SMOOTH",
"374 1080 LINE",
"391 1080 LINE",
"1272 -8 LINE SMOOTH {name = hr02;}",
"1282 -20 OFFCURVE",
"1305 -30 OFFCURVE",
"1326 -30 CURVE SMOOTH",
"1367 -30 OFFCURVE",
"1440 -12 OFFCURVE",
"1436 40 CURVE SMOOTH",
"1433 78 OFFCURVE",
"1430 88 OFFCURVE",
"1430 113 CURVE SMOOTH",
"1430 1239 LINE SMOOTH",
"1430 1306 OFFCURVE",
"1544 1325 OFFCURVE",
"1605 1331 CURVE SMOOTH",
"1631 1334 OFFCURVE",
"1638 1347 OFFCURVE",
"1638 1368 CURVE SMOOTH",
"1638 1383 OFFCURVE",
"1627 1419 OFFCURVE",
"1604 1419 CURVE SMOOTH",
"1129 1419 LINE SMOOTH",
"1106 1419 OFFCURVE",
"1095 1383 OFFCURVE",
"1095 1368 CURVE SMOOTH",
"1095 1338 OFFCURVE",
"1103 1334 OFFCURVE",
"1131 1331 CURVE SMOOTH",
"1192 1326 OFFCURVE",
"1313 1320 OFFCURVE",
"1313 1234 CURVE SMOOTH",
"1313 483 LINE",
"1301 483 LINE",
"542 1419 LINE",
"84 1419 LINE SMOOTH",
"61 1419 OFFCURVE",
"50 1383 OFFCURVE",
"50 1368 CURVE SMOOTH",
"50 1338 OFFCURVE",
"58 1334 OFFCURVE",
"86 1331 CURVE SMOOTH",
"147 1326 OFFCURVE",
"247 1320 OFFCURVE",
"247 1234 CURVE SMOOTH",
"247 172 LINE SMOOTH",
"247 108 OFFCURVE",
"126 93 OFFCURVE",
"62 88 CURVE {name = hr03;}",
"36 85 OFFCURVE",
"29 72 OFFCURVE",
"29 51 CURVE SMOOTH {name = hr01;}",
"29 36 OFFCURVE",
"40 0 OFFCURVE",
"63 0 CURVE SMOOTH"
);
}
);
width = 1719;
}
);
leftKerningGroup = H;
rightKerningGroup = H;
unicode = 004E;
},
{
color = 5;
glyphname = Eng;
lastChange = "2018-07-12 15:53:51 +0000";
layers = (
{
layerId = "DD6F9F34-BC40-4E8F-B1D3-DF3B42A9710F";
paths = (
{
closed = 1;
nodes = (
"1125 -449 OFFCURVE",
"1264 -198 OFFCURVE",
"1264 44 CURVE SMOOTH",
"1264 1267 LINE SMOOTH",
"1264 1311 OFFCURVE",
"1358 1326 OFFCURVE",
"1419 1331 CURVE SMOOTH",
"1445 1334 OFFCURVE",
"1452 1347 OFFCURVE",
"1452 1368 CURVE SMOOTH",
"1452 1383 OFFCURVE",
"1441 1419 OFFCURVE",
"1418 1419 CURVE SMOOTH",
"1013 1419 LINE SMOOTH",
"990 1419 OFFCURVE",
"979 1383 OFFCURVE",
"979 1368 CURVE SMOOTH",
"979 1338 OFFCURVE",
"987 1334 OFFCURVE",
"1015 1331 CURVE SMOOTH",
"1076 1326 OFFCURVE",
"1167 1320 OFFCURVE",
"1167 1234 CURVE SMOOTH",
"1167 333 LINE",
"1155 333 LINE",
"376 1419 LINE",
"58 1419 LINE SMOOTH",
"35 1419 OFFCURVE",
"24 1383 OFFCURVE",
"24 1368 CURVE SMOOTH",
"24 1338 OFFCURVE",
"32 1334 OFFCURVE",
"60 1331 CURVE SMOOTH",
"121 1326 OFFCURVE",
"201 1320 OFFCURVE",
"201 1234 CURVE SMOOTH",
"201 172 LINE SMOOTH",
"201 108 OFFCURVE",
"130 93 OFFCURVE",
"66 88 CURVE",
"40 85 OFFCURVE",
"33 72 OFFCURVE",
"33 51 CURVE SMOOTH",
"33 36 OFFCURVE",
"44 0 OFFCURVE",
"67 0 CURVE SMOOTH",
"442 0 LINE SMOOTH",
"465 0 OFFCURVE",
"476 36 OFFCURVE",
"476 51 CURVE SMOOTH",
"476 81 OFFCURVE",
"468 85 OFFCURVE",
"440 88 CURVE SMOOTH",
"379 93 OFFCURVE",
"298 99 OFFCURVE",
"298 185 CURVE SMOOTH",
"298 1140 LINE",
"315 1140 LINE",
"1156 -7 LINE",
"1141 -276 OFFCURVE",
"1021 -345 OFFCURVE",
"947 -356 CURVE",
"869 -212 LINE",
"847 -198 OFFCURVE",
"737 -220 OFFCURVE",
"737 -310 CURVE SMOOTH",
"737 -379 OFFCURVE",
"785 -449 OFFCURVE",
"913 -449 CURVE SMOOTH"
);
}
);
width = 1571;
},
{
layerId = "62CA62AF-CD91-478A-AB8B-28A62CC47DA0";
paths = (
{
closed = 1;
nodes = (
"1398 -449 OFFCURVE",
"1430 -147 OFFCURVE",
"1430 88 CURVE SMOOTH",
"1430 1239 LINE SMOOTH",
"1430 1306 OFFCURVE",
"1544 1325 OFFCURVE",
"1605 1331 CURVE SMOOTH",
"1631 1334 OFFCURVE",
"1638 1347 OFFCURVE",
"1638 1368 CURVE SMOOTH",
"1638 1383 OFFCURVE",
"1627 1419 OFFCURVE",
"1604 1419 CURVE SMOOTH",
"1129 1419 LINE SMOOTH",
"1106 1419 OFFCURVE",
"1095 1383 OFFCURVE",
"1095 1368 CURVE SMOOTH",
"1095 1338 OFFCURVE",
"1103 1334 OFFCURVE",
"1131 1331 CURVE SMOOTH",
"1192 1326 OFFCURVE",
"1313 1320 OFFCURVE",
"1313 1234 CURVE SMOOTH",
"1313 483 LINE",
"1301 483 LINE",
"542 1419 LINE",
"84 1419 LINE SMOOTH",
"61 1419 OFFCURVE",
"50 1383 OFFCURVE",
"50 1368 CURVE SMOOTH",
"50 1338 OFFCURVE",
"58 1334 OFFCURVE",
"86 1331 CURVE SMOOTH",
"147 1326 OFFCURVE",
"247 1320 OFFCURVE",
"247 1234 CURVE SMOOTH",
"247 172 LINE SMOOTH",
"247 108 OFFCURVE",
"126 93 OFFCURVE",
"62 88 CURVE",
"36 85 OFFCURVE",
"29 72 OFFCURVE",
"29 51 CURVE SMOOTH {name = hr00;}",
"29 36 OFFCURVE",
"40 0 OFFCURVE",
"63 0 CURVE SMOOTH",
"578 0 LINE SMOOTH",
"601 0 OFFCURVE",
"612 36 OFFCURVE",
"612 51 CURVE SMOOTH",
"612 81 OFFCURVE",
"604 85 OFFCURVE",
"576 88 CURVE SMOOTH",
"515 93 OFFCURVE",
"374 99 OFFCURVE",
"374 185 CURVE SMOOTH",
"374 1080 LINE",
"391 1080 LINE",
"1309 -55 LINE",
"1283 -278 OFFCURVE",
"1165 -347 OFFCURVE",
"993 -347 CURVE",
"837 -64 LINE",
"758 -64 OFFCURVE",
"661 -140 OFFCURVE",
"661 -234 CURVE SMOOTH",
"661 -351 OFFCURVE",
"803 -449 OFFCURVE",
"976 -449 CURVE SMOOTH"
);
}
);
width = 1719;
}
);
leftKerningGroup = Eng;
rightKerningGroup = Eng;
unicode = 014A;
},
{
color = 10;
glyphname = O;
lastChange = "2018-07-13 22:40:04 +0000";
layers = (
{
anchors = (
{
name = bottom;
position = "{748, 0}";
},
{
name = center;
position = "{748, 710}";
},
{
name = ogonek;
position = "{1358, 10}";
},
{
name = top;
position = "{748, 1419}";
},
{
name = topleft;
position = "{6, 1419}";
},
{
name = topright;
position = "{1490, 1419}";
}
);
layerId = "DD6F9F34-BC40-4E8F-B1D3-DF3B42A9710F";
paths = (
{
closed = 1;
nodes = (
"1181 -29 OFFCURVE",
"1430 306 OFFCURVE",
"1430 716 CURVE SMOOTH",
"1430 1126 OFFCURVE",
"1191 1449 OFFCURVE",
"769 1449 CURVE SMOOTH",
"347 1449 OFFCURVE",
"94 1126 OFFCURVE",
"94 716 CURVE SMOOTH",
"94 306 OFFCURVE",
"338 -29 OFFCURVE",
"759 -29 CURVE SMOOTH"
);
},
{
closed = 1;
nodes = (
"432 65 OFFCURVE",
"339 312 OFFCURVE",
"339 714 CURVE SMOOTH",
"339 1116 OFFCURVE",
"425 1356 OFFCURVE",
"758 1356 CURVE SMOOTH",
"1088 1356 OFFCURVE",
"1182 1116 OFFCURVE",
"1182 714 CURVE SMOOTH",
"1182 312 OFFCURVE",
"1094 65 OFFCURVE",
"763 65 CURVE SMOOTH"
);
}
);
width = 1524;
},
{
anchors = (
{
name = bottom;
position = "{840, 0}";
},
{
name = center;
position = "{840, 710}";
},
{
name = ogonek;
position = "{1511, 10}";
},
{
name = top;
position = "{840, 1419}";
},
{
name = topleft;
position = "{20, 1419}";
},
{
name = topright;
position = "{1659, 1419}";
}
);
layerId = "62CA62AF-CD91-478A-AB8B-28A62CC47DA0";
paths = (
{
closed = 1;
nodes = (
"1302 -29 OFFCURVE",
"1596 306 OFFCURVE",
"1596 716 CURVE SMOOTH",
"1596 1126 OFFCURVE",
"1303 1449 OFFCURVE",
"839 1449 CURVE SMOOTH",
"375 1449 OFFCURVE",
"83 1126 OFFCURVE",
"83 716 CURVE SMOOTH {name = hr00;}",
"83 306 OFFCURVE",
"376 -29 OFFCURVE",
"839 -29 CURVE SMOOTH"
);
},
{
closed = 1;
nodes = (
"590 65 OFFCURVE",
"469 312 OFFCURVE",
"469 714 CURVE SMOOTH",
"469 1116 OFFCURVE",
"584 1356 OFFCURVE",
"837 1356 CURVE SMOOTH",
"1090 1356 OFFCURVE",
"1210 1116 OFFCURVE",
"1210 714 CURVE SMOOTH",
"1210 312 OFFCURVE",
"1096 65 OFFCURVE",
"843 65 CURVE SMOOTH"
);
}
);
width = 1679;
}
);
leftKerningGroup = O;
rightKerningGroup = O;
unicode = 004F;
},
{
color = 10;
glyphname = Ohorn;
lastChange = "2018-07-13 22:40:45 +0000";
layers = (
{
anchors = (
{
name = bottom;
position = "{762, 0}";
},
{
name = top;
position = "{762, 1419}";
}
);
components = (
{
name = O;
transform = "{1, 0, 0, 1, -11, 0}";
}
);
layerId = "DD6F9F34-BC40-4E8F-B1D3-DF3B42A9710F";
paths = (
{
closed = 1;
nodes = (
"1242 1322 OFFCURVE",
"1474 1398 OFFCURVE",
"1474 1633 CURVE SMOOTH",
"1474 1648 OFFCURVE",
"1472 1663 OFFCURVE",
"1469 1680 CURVE",
"1296 1680 LINE",
"1297 1671 OFFCURVE",
"1297 1659 OFFCURVE",
"1297 1644 CURVE SMOOTH",
"1297 1499 OFFCURVE",
"1181 1401 OFFCURVE",
"1022 1398 CURVE",
"1133 1322 LINE"
);
}
);
width = 1524;
},
{
anchors = (
{
name = bottom;
position = "{875, 0}";
},
{
name = top;
position = "{875, 1419}";
}
);
components = (
{
name = O;
transform = "{1, 0, 0, 1, 11, 0}";
}
);
layerId = "62CA62AF-CD91-478A-AB8B-28A62CC47DA0";
paths = (
{
closed = 1;
nodes = (
"1342 1329 OFFCURVE",
"1560 1421 OFFCURVE",
"1560 1627 CURVE SMOOTH",
"1560 1645 OFFCURVE",
"1557 1717 OFFCURVE",
"1554 1738 CURVE",
"1338 1738 LINE",
"1340 1727 OFFCURVE",
"1340 1712 OFFCURVE",
"1340 1694 CURVE SMOOTH",
"1340 1596 OFFCURVE",
"1289 1413 OFFCURVE",
"1073 1413 CURVE",
"1283 1329 LINE"
);
}
);
width = 1679;
}
);
leftKerningGroup = O;
rightKerningGroup = O;
unicode = 01A0;
},
{
color = 10;
glyphname = Oogonek;
lastChange = "2018-07-13 22:41:00 +0000";
layers = (
{
components = (
{
name = O;
}
);
layerId = "DD6F9F34-BC40-4E8F-B1D3-DF3B42A9710F";
paths = (
{
closed = 1;
nodes = (
"779 0 LINE",
"627 -36 OFFCURVE",
"534 -119 OFFCURVE",
"534 -224 CURVE SMOOTH",
"534 -329 OFFCURVE",
"643 -407 OFFCURVE",
"773 -407 CURVE SMOOTH",
"833 -407 OFFCURVE",
"919 -389 OFFCURVE",
"962 -360 CURVE SMOOTH",
"992 -340 OFFCURVE",
"986 -239 OFFCURVE",
"962 -243 CURVE SMOOTH",
"928 -249 OFFCURVE",
"912 -259 OFFCURVE",
"880 -259 CURVE SMOOTH",
"791 -259 OFFCURVE",
"757 -233 OFFCURVE",
"757 -172 CURVE SMOOTH",
"757 -96 OFFCURVE",
"832 -32 OFFCURVE",
"928 0 CURVE",
"886 49 LINE"
);
}
);
width = 1524;
},
{
components = (
{
name = O;
}
);
layerId = "62CA62AF-CD91-478A-AB8B-28A62CC47DA0";
paths = (
{
closed = 1;
nodes = (
"834 0 LINE",
"615 -52 OFFCURVE",
"547 -157 OFFCURVE",
"547 -264 CURVE SMOOTH",
"547 -370 OFFCURVE",
"659 -444 OFFCURVE",
"816 -444 CURVE SMOOTH",
"889 -444 OFFCURVE",
"993 -422 OFFCURVE",
"1045 -387 CURVE SMOOTH",
"1081 -363 OFFCURVE",
"1072 -237 OFFCURVE",
"1045 -246 CURVE SMOOTH",
"1004 -260 OFFCURVE",
"984 -265 OFFCURVE",
"946 -265 CURVE SMOOTH",
"838 -265 OFFCURVE",
"797 -234 OFFCURVE",
"797 -184 CURVE SMOOTH",
"797 -116 OFFCURVE",
"889 -39 OFFCURVE",
"1004 0 CURVE",
"909 32 LINE"
);
}
);
width = 1679;
}
);
leftKerningGroup = Oogonek;
rightKerningGroup = Oogonek;
unicode = 01EA;
},
{
color = 4;
glyphname = Oslash;
lastChange = "2018-07-12 15:53:51 +0000";
layers = (
{
components = (
{
name = O;
transform = "{1, 0, 0, 1, -14, 0}";
}
);
layerId = "DD6F9F34-BC40-4E8F-B1D3-DF3B42A9710F";
paths = (
{
closed = 1;
nodes = (
"269 -114 LINE {name = hr00;}",
"267 -129 OFFCURVE",
"280 -149 OFFCURVE",
"302 -162 CURVE SMOOTH",
"315 -170 OFFCURVE",
"342 -177 OFFCURVE",
"351 -164 CURVE",
"1187 1525 LINE",
"1189 1540 OFFCURVE",
"1167 1566 OFFCURVE",
"1146 1578 CURVE SMOOTH",
"1132 1586 OFFCURVE",
"1114 1588 OFFCURVE",
"1104 1575 CURVE"
);
}
);
width = 1524;
},
{
components = (
{
name = O;
transform = "{1, 0, 0, 1, -12, 0}";
}
);
layerId = "62CA62AF-CD91-478A-AB8B-28A62CC47DA0";
paths = (
{
closed = 1;
nodes = (
"271 -114 LINE {name = hr00;}",
"269 -129 OFFCURVE",
"282 -149 OFFCURVE",
"304 -162 CURVE SMOOTH",
"317 -170 OFFCURVE",
"344 -177 OFFCURVE",
"353 -164 CURVE",
"1359 1525 LINE",
"1361 1540 OFFCURVE",
"1339 1565 OFFCURVE",
"1318 1578 CURVE SMOOTH",
"1304 1586 OFFCURVE",
"1286 1588 OFFCURVE",
"1276 1575 CURVE"
);
}
);
width = 1679;
}
);
leftKerningGroup = O;
rightKerningGroup = O;
unicode = 00D8;
},
{
color = 10;
glyphname = OE;
lastChange = "2018-07-13 22:49:37 +0000";
layers = (
{
background = {
paths = (
{
closed = 1;
nodes = (
"837 36 OFFCURVE",
"848 0 OFFCURVE",
"871 0 CURVE SMOOTH",
"1931 1 LINE",
"1981 373 LINE",
"1978 396 OFFCURVE",
"1957 407 OFFCURVE",
"1932 407 CURVE SMOOTH",
"1911 407 OFFCURVE",
"1870 399 OFFCURVE",
"1864 374 CURVE SMOOTH",
"1816 173 OFFCURVE",
"1724 102 OFFCURVE",
"1604 102 CURVE SMOOTH",
"1319 101 LINE",
"1275 105 OFFCURVE",
"1230 124 OFFCURVE",
"1230 197 CURVE SMOOTH",
"1230 682 LINE",
"1458 683 LINE SMOOTH",
"1514 683 OFFCURVE",
"1559 547 OFFCURVE",
"1562 504 CURVE",
"1565 478 OFFCURVE",
"1590 471 OFFCURVE",
"1611 471 CURVE SMOOTH",
"1626 471 OFFCURVE",
"1652 482 OFFCURVE",
"1652 505 CURVE SMOOTH",
"1652 948 LINE SMOOTH",
"1652 971 OFFCURVE",
"1626 982 OFFCURVE",
"1611 982 CURVE SMOOTH",
"1590 982 OFFCURVE",
"1568 976 OFFCURVE",
"1565 950 CURVE SMOOTH",
"1560 910 OFFCURVE",
"1516 786 OFFCURVE",
"1464 779 CURVE",
"1230 778 LINE",
"1230 1320 LINE",
"1570 1321 LINE SMOOTH",
"1678 1321 OFFCURVE",
"1696 1244 OFFCURVE",
"1776 1094 CURVE SMOOTH",
"1792 1064 OFFCURVE",
"1819 1061 OFFCURVE",
"1840 1061 CURVE SMOOTH",
"1855 1061 OFFCURVE",
"1879 1072 OFFCURVE",
"1877 1095 CURVE SMOOTH",
"1842 1420 LINE",
"862 1419 LINE SMOOTH",
"839 1419 OFFCURVE",
"828 1383 OFFCURVE",
"828 1368 CURVE SMOOTH",
"828 1338 OFFCURVE",
"836 1334 OFFCURVE",
"864 1331 CURVE SMOOTH",
"925 1324 OFFCURVE",
"1016 1320 OFFCURVE",
"1016 1234 CURVE SMOOTH",
"1016 152 LINE SMOOTH",
"1016 108 OFFCURVE",
"934 93 OFFCURVE",
"870 88 CURVE",
"844 85 OFFCURVE",
"837 72 OFFCURVE",
"837 51 CURVE SMOOTH {name = hr00;}"
);
}
);
};
layerId = "DD6F9F34-BC40-4E8F-B1D3-DF3B42A9710F";
paths = (
{
closed = 1;
nodes = (
"904 -29 OFFCURVE",
"942 0 OFFCURVE",
"1123 0 CURVE SMOOTH",
"1886 1 LINE",
"1955 373 LINE",
"1955 396 OFFCURVE",
"1922 407 OFFCURVE",
"1906 407 CURVE SMOOTH",
"1884 407 OFFCURVE",
"1840 390 OFFCURVE",
"1838 364 CURVE SMOOTH",
"1830 260 OFFCURVE",
"1710 101 OFFCURVE",
"1617 101 CURVE SMOOTH",
"1297 101 LINE",
"1243 101 OFFCURVE",
"1196 130 OFFCURVE",
"1196 214 CURVE",
"1197 682 LINE",
"1433 682 LINE SMOOTH",
"1489 682 OFFCURVE",
"1532 548 OFFCURVE",
"1537 505 CURVE SMOOTH",
"1540 479 OFFCURVE",
"1564 472 OFFCURVE",
"1585 472 CURVE SMOOTH",
"1600 472 OFFCURVE",
"1626 483 OFFCURVE",
"1626 506 CURVE SMOOTH",
"1626 948 LINE SMOOTH",
"1626 971 OFFCURVE",
"1601 982 OFFCURVE",
"1585 982 CURVE SMOOTH",
"1563 982 OFFCURVE",
"1541 975 OFFCURVE",
"1539 949 CURVE",
"1534 909 OFFCURVE",
"1495 785 OFFCURVE",
"1443 778 CURVE",
"1197 778 LINE",
"1196 1321 LINE",
"1579 1320 LINE",
"1636 1320 OFFCURVE",
"1718 1168 OFFCURVE",
"1740 1111 CURVE SMOOTH",
"1750 1085 OFFCURVE",
"1775 1059 OFFCURVE",
"1810 1059 CURVE SMOOTH",
"1825 1059 OFFCURVE",
"1851 1070 OFFCURVE",
"1851 1093 CURVE",
"1816 1418 LINE",
"1007 1419 LINE SMOOTH",
"936 1419 OFFCURVE",
"901 1449 OFFCURVE",
"735 1449 CURVE SMOOTH",
"341 1449 OFFCURVE",
"94 1126 OFFCURVE",
"94 716 CURVE SMOOTH",
"94 306 OFFCURVE",
"320 -29 OFFCURVE",
"725 -29 CURVE SMOOTH"
);
},
{
closed = 1;
nodes = (
"412 65 OFFCURVE",
"336 312 OFFCURVE",
"336 714 CURVE SMOOTH",
"336 1116 OFFCURVE",
"421 1360 OFFCURVE",
"724 1360 CURVE SMOOTH",
"889 1360 OFFCURVE",
"960 1313 OFFCURVE",
"989 1275 CURVE",
"989 1274 LINE",
"988 141 LINE",
"949 78 OFFCURVE",
"865 65 OFFCURVE",
"729 65 CURVE SMOOTH"
);
}
);
width = 2044;
},
{
background = {
paths = (
{
closed = 1;
nodes = (
"866 36 OFFCURVE",
"877 0 OFFCURVE",
"900 0 CURVE SMOOTH",
"2125 0 LINE",
"2165 372 LINE",
"2162 395 OFFCURVE",
"2131 406 OFFCURVE",
"2106 406 CURVE SMOOTH",
"2085 406 OFFCURVE",
"2049 397 OFFCURVE",
"2038 373 CURVE SMOOTH",
"1946 173 OFFCURVE",
"1874 101 OFFCURVE",
"1754 101 CURVE SMOOTH",
"1470 101 LINE",
"1426 105 OFFCURVE",
"1381 124 OFFCURVE",
"1381 197 CURVE SMOOTH",
"1381 682 LINE",
"1644 682 LINE SMOOTH",
"1700 682 OFFCURVE",
"1745 546 OFFCURVE",
"1748 503 CURVE",
"1751 477 OFFCURVE",
"1776 470 OFFCURVE",
"1797 470 CURVE SMOOTH",
"1812 470 OFFCURVE",
"1848 481 OFFCURVE",
"1848 504 CURVE SMOOTH",
"1848 947 LINE SMOOTH",
"1848 970 OFFCURVE",
"1812 981 OFFCURVE",
"1797 981 CURVE SMOOTH",
"1776 981 OFFCURVE",
"1754 975 OFFCURVE",
"1751 949 CURVE SMOOTH",
"1746 909 OFFCURVE",
"1702 785 OFFCURVE",
"1650 778 CURVE",
"1381 778 LINE",
"1381 1320 LINE",
"1770 1320 LINE SMOOTH",
"1878 1320 OFFCURVE",
"1896 1243 OFFCURVE",
"1976 1093 CURVE SMOOTH",
"1992 1063 OFFCURVE",
"2027 1060 OFFCURVE",
"2048 1060 CURVE SMOOTH",
"2063 1060 OFFCURVE",
"2087 1071 OFFCURVE",
"2085 1094 CURVE SMOOTH",
"2050 1419 LINE",
"891 1419 LINE SMOOTH",
"868 1419 OFFCURVE",
"857 1383 OFFCURVE",
"857 1368 CURVE SMOOTH",
"857 1338 OFFCURVE",
"865 1334 OFFCURVE",
"893 1331 CURVE SMOOTH",
"954 1324 OFFCURVE",
"1045 1320 OFFCURVE",
"1045 1234 CURVE SMOOTH",
"1045 152 LINE SMOOTH",
"1045 108 OFFCURVE",
"963 93 OFFCURVE",
"899 88 CURVE",
"873 85 OFFCURVE",
"866 72 OFFCURVE",
"866 51 CURVE SMOOTH {name = hr00;}"
);
}
);
};
layerId = "62CA62AF-CD91-478A-AB8B-28A62CC47DA0";
paths = (
{
closed = 1;
nodes = (
"919 -29 OFFCURVE",
"991 0 OFFCURVE",
"1147 0 CURVE SMOOTH {name = hr02;}",
"2147 0 LINE",
"2186 372 LINE",
"2183 395 OFFCURVE",
"2162 406 OFFCURVE",
"2137 406 CURVE SMOOTH",
"2090 406 OFFCURVE",
"2063 388 OFFCURVE",
"2052 364 CURVE SMOOTH",
"1983 214 OFFCURVE",
"1910 101 OFFCURVE",
"1790 101 CURVE SMOOTH",
"1469 101 LINE",
"1425 105 OFFCURVE",
"1380 124 OFFCURVE",
"1380 197 CURVE SMOOTH",
"1380 682 LINE",
"1668 682 LINE SMOOTH",
"1724 682 OFFCURVE",
"1769 546 OFFCURVE",
"1772 503 CURVE",
"1775 477 OFFCURVE",
"1800 470 OFFCURVE",
"1821 470 CURVE SMOOTH",
"1836 470 OFFCURVE",
"1869 481 OFFCURVE",
"1869 504 CURVE SMOOTH",
"1869 947 LINE SMOOTH",
"1869 970 OFFCURVE",
"1836 981 OFFCURVE",
"1821 981 CURVE SMOOTH",
"1800 981 OFFCURVE",
"1778 975 OFFCURVE",
"1775 949 CURVE SMOOTH",
"1770 909 OFFCURVE",
"1726 785 OFFCURVE",
"1674 778 CURVE",
"1380 778 LINE",
"1380 1320 LINE",
"1794 1320 LINE SMOOTH",
"1902 1320 OFFCURVE",
"1920 1243 OFFCURVE",
"2000 1093 CURVE SMOOTH",
"2016 1063 OFFCURVE",
"2043 1060 OFFCURVE",
"2069 1060 CURVE SMOOTH",
"2084 1060 OFFCURVE",
"2108 1071 OFFCURVE",
"2106 1094 CURVE SMOOTH",
"2071 1419 LINE",
"1073 1419 LINE",
"1007 1421 OFFCURVE",
"951 1449 OFFCURVE",
"794 1449 CURVE SMOOTH {name = hr03;}",
"398 1449 OFFCURVE",
"83 1126 OFFCURVE",
"83 716 CURVE SMOOTH {name = hr01;}",
"83 306 OFFCURVE",
"391 -29 OFFCURVE",
"784 -29 CURVE SMOOTH"
);
},
{
closed = 1;
nodes = (
"584 65 OFFCURVE",
"455 312 OFFCURVE",
"455 714 CURVE SMOOTH",
"455 1116 OFFCURVE",
"581 1360 OFFCURVE",
"783 1360 CURVE SMOOTH",
"1000 1360 OFFCURVE",
"1027 1314 OFFCURVE",
"1044 1290 CURVE",
"1044 141 LINE",
"1043 143 LINE",
"1004 78 OFFCURVE",
"925 65 OFFCURVE",
"788 65 CURVE SMOOTH"
);
}
);
width = 2254;
}
);
leftKerningGroup = O;
rightKerningGroup = E;
unicode = 0152;
},
{
color = 10;
glyphname = P;
lastChange = "2018-07-13 22:50:22 +0000";
layers = (
{
anchors = (
{
name = bottom;
position = "{615, 0}";
},
{
name = top;
position = "{615, 1419}";
}
);
layerId = "DD6F9F34-BC40-4E8F-B1D3-DF3B42A9710F";
paths = (
{
closed = 1;
nodes = (
"694 0 LINE SMOOTH",
"717 0 OFFCURVE",
"728 36 OFFCURVE",
"728 51 CURVE SMOOTH",
"728 81 OFFCURVE",
"720 85 OFFCURVE",
"692 88 CURVE",
"615 93 OFFCURVE",
"490 99 OFFCURVE",
"490 185 CURVE SMOOTH",
"490 555 LINE",
"669 555 LINE SMOOTH",
"969 555 OFFCURVE",
"1192 742 OFFCURVE",
"1192 1010 CURVE SMOOTH",
"1192 1321 OFFCURVE",
"945 1431 OFFCURVE",
"710 1431 CURVE SMOOTH",
"572 1431 OFFCURVE",
"485 1419 OFFCURVE",
"353 1419 CURVE",
"130 1419 LINE",
"107 1419 OFFCURVE",
"96 1383 OFFCURVE",
"96 1368 CURVE SMOOTH",
"96 1338 OFFCURVE",
"104 1334 OFFCURVE",
"132 1331 CURVE SMOOTH",
"193 1324 OFFCURVE",
"284 1320 OFFCURVE",
"284 1234 CURVE SMOOTH",
"283 152 LINE SMOOTH",
"283 108 OFFCURVE",
"202 93 OFFCURVE",
"138 88 CURVE",
"112 85 OFFCURVE",
"105 72 OFFCURVE",
"105 51 CURVE SMOOTH",
"105 36 OFFCURVE",
"116 0 OFFCURVE",
"139 0 CURVE SMOOTH"
);
},
{
closed = 1;
nodes = (
"491 1342 LINE",
"633 1342 LINE SMOOTH",
"792 1342 OFFCURVE",
"974 1265 OFFCURVE",
"974 989 CURVE SMOOTH",
"974 721 OFFCURVE",
"741 641 OFFCURVE",
"666 641 CURVE SMOOTH",
"490 641 LINE"
);
}
);
width = 1249;
},
{
anchors = (
{
name = bottom;
position = "{691, 0}";
},
{
name = top;
position = "{691, 1419}";
}
);
layerId = "62CA62AF-CD91-478A-AB8B-28A62CC47DA0";
paths = (
{
closed = 1;
nodes = (
"849 0 LINE SMOOTH",
"872 0 OFFCURVE",
"883 36 OFFCURVE",
"883 51 CURVE SMOOTH",
"883 81 OFFCURVE",
"875 85 OFFCURVE",
"847 88 CURVE",
"770 93 OFFCURVE",
"626 99 OFFCURVE",
"626 185 CURVE SMOOTH",
"626 555 LINE",
"808 555 LINE SMOOTH",
"1215 555 OFFCURVE",
"1401 742 OFFCURVE",
"1401 1010 CURVE SMOOTH",
"1401 1321 OFFCURVE",
"1163 1429 OFFCURVE",
"838 1429 CURVE SMOOTH",
"729 1429 OFFCURVE",
"576 1419 OFFCURVE",
"430 1419 CURVE {name = hr02;}",
"135 1419 LINE SMOOTH",
"112 1419 OFFCURVE",
"101 1383 OFFCURVE",
"101 1368 CURVE SMOOTH",
"101 1338 OFFCURVE",
"109 1334 OFFCURVE",
"137 1331 CURVE SMOOTH",
"198 1324 OFFCURVE",
"288 1320 OFFCURVE",
"288 1234 CURVE SMOOTH",
"288 152 LINE SMOOTH",
"288 108 OFFCURVE",
"217 93 OFFCURVE",
"153 88 CURVE",
"127 85 OFFCURVE",
"120 72 OFFCURVE",
"120 51 CURVE SMOOTH {name = hr01;}",
"120 36 OFFCURVE",
"131 0 OFFCURVE",
"154 0 CURVE SMOOTH"
);
},
{
closed = 1;
nodes = (
"626 1332 LINE",
"725 1332 LINE SMOOTH",
"925 1332 OFFCURVE",
"1033 1265 OFFCURVE",
"1033 989 CURVE SMOOTH",
"1033 721 OFFCURVE",
"869 651 OFFCURVE",
"725 651 CURVE SMOOTH",
"626 651 LINE"
);
}
);
width = 1436;
}
);
leftKerningGroup = H;
rightKerningGroup = P;
unicode = 0050;
},
{
color = 4;
glyphname = Thorn;
lastChange = "2018-07-12 15:53:51 +0000";
layers = (
{
layerId = "DD6F9F34-BC40-4E8F-B1D3-DF3B42A9710F";
paths = (
{
closed = 1;
nodes = (
"694 0 LINE SMOOTH",
"717 0 OFFCURVE",
"728 36 OFFCURVE",
"728 51 CURVE SMOOTH",
"728 81 OFFCURVE",
"720 85 OFFCURVE",
"692 88 CURVE SMOOTH",
"631 93 OFFCURVE",
"490 99 OFFCURVE",
"490 185 CURVE SMOOTH",
"490 309 LINE",
"699 309 LINE SMOOTH",
"999 309 OFFCURVE",
"1192 492 OFFCURVE",
"1192 754 CURVE SMOOTH",
"1192 1057 OFFCURVE",
"975 1155 OFFCURVE",
"740 1155 CURVE SMOOTH",
"491 1153 LINE",
"491 1267 LINE SMOOTH",
"491 1311 OFFCURVE",
"572 1326 OFFCURVE",
"636 1331 CURVE",
"662 1334 OFFCURVE",
"669 1347 OFFCURVE",
"669 1368 CURVE SMOOTH",
"669 1383 OFFCURVE",
"658 1419 OFFCURVE",
"635 1419 CURVE SMOOTH",
"130 1419 LINE SMOOTH",
"107 1419 OFFCURVE",
"96 1383 OFFCURVE",
"96 1368 CURVE SMOOTH",
"96 1338 OFFCURVE",
"104 1334 OFFCURVE",
"132 1331 CURVE SMOOTH",
"193 1326 OFFCURVE",
"284 1320 OFFCURVE",
"284 1234 CURVE SMOOTH",
"283 152 LINE SMOOTH",
"283 108 OFFCURVE",
"202 93 OFFCURVE",
"138 88 CURVE",
"112 85 OFFCURVE",
"105 72 OFFCURVE",
"105 51 CURVE SMOOTH",
"105 36 OFFCURVE",
"116 0 OFFCURVE",
"139 0 CURVE SMOOTH"
);
},
{
closed = 1;
nodes = (
"491 1076 LINE",
"663 1076 LINE SMOOTH",
"822 1076 OFFCURVE",
"974 1001 OFFCURVE",
"974 733 CURVE SMOOTH",
"974 473 OFFCURVE",
"771 395 OFFCURVE",
"696 395 CURVE SMOOTH",
"490 395 LINE"
);
}
);
width = 1258;
},
{
layerId = "62CA62AF-CD91-478A-AB8B-28A62CC47DA0";
paths = (
{
closed = 1;
nodes = (
"737 0 LINE SMOOTH",
"760 0 OFFCURVE",
"771 36 OFFCURVE",
"771 51 CURVE SMOOTH",
"771 81 OFFCURVE",
"763 85 OFFCURVE",
"735 88 CURVE SMOOTH",
"674 93 OFFCURVE",
"584 99 OFFCURVE",
"584 185 CURVE SMOOTH",
"584 318 LINE",
"789 318 LINE SMOOTH",
"1194 318 OFFCURVE",
"1362 503 OFFCURVE",
"1362 749 CURVE SMOOTH",
"1362 1024 OFFCURVE",
"1158 1144 OFFCURVE",
"760 1140 CURVE SMOOTH",
"584 1138 LINE",
"584 1267 LINE SMOOTH",
"584 1311 OFFCURVE",
"661 1326 OFFCURVE",
"729 1331 CURVE",
"755 1334 OFFCURVE",
"762 1347 OFFCURVE",
"762 1368 CURVE SMOOTH",
"762 1383 OFFCURVE",
"751 1419 OFFCURVE",
"728 1419 CURVE SMOOTH",
"103 1419 LINE SMOOTH",
"80 1419 OFFCURVE",
"69 1383 OFFCURVE",
"69 1368 CURVE SMOOTH",
"69 1338 OFFCURVE",
"77 1334 OFFCURVE",
"105 1331 CURVE SMOOTH",
"166 1326 OFFCURVE",
"247 1320 OFFCURVE",
"247 1234 CURVE SMOOTH",
"247 152 LINE SMOOTH",
"247 108 OFFCURVE",
"175 93 OFFCURVE",
"111 88 CURVE",
"85 85 OFFCURVE",
"78 72 OFFCURVE",
"78 51 CURVE SMOOTH {name = hr00;}",
"78 36 OFFCURVE",
"89 0 OFFCURVE",
"112 0 CURVE SMOOTH"
);
},
{
closed = 1;
nodes = (
"584 1061 LINE",
"649 1061 LINE SMOOTH",
"807 1061 OFFCURVE",
"994 1018 OFFCURVE",
"994 728 CURVE SMOOTH",
"994 436 OFFCURVE",
"761 401 OFFCURVE",
"686 401 CURVE SMOOTH",
"584 401 LINE"
);
}
);
width = 1450;
}
);
leftKerningGroup = H;
rightKerningGroup = Thorn;
unicode = 00DE;
},
{
color = 10;
glyphname = Q;
lastChange = "2018-07-13 05:37:57 +0000";
layers = (
{
anchors = (
{
name = bottom;
position = "{748, 0}";
},
{
name = top;
position = "{748, 1419}";
}
);
background = {
paths = (
{
closed = 1;
nodes = (
"1365 -393 CURVE",
"1365 -393 OFFCURVE",
"1365 -323 OFFCURVE",
"1365 -323 CURVE",
"993 -330 OFFCURVE",
"928 -76 OFFCURVE",
"925 29 CURVE SMOOTH",
"925 29 OFFCURVE",
"673 0 OFFCURVE",
"673 0 CURVE",
"733 -369 OFFCURVE",
"974 -427 OFFCURVE",
"1196 -427 CURVE SMOOTH",
"1305 -427 OFFCURVE",
"1365 -393 OFFCURVE"
);
}
);
};
components = (
{
name = O;
transform = "{1, 0, 0, 1, -14, 0}";
}
);
layerId = "DD6F9F34-BC40-4E8F-B1D3-DF3B42A9710F";
paths = (
{
closed = 1;
nodes = (
"1351 -324 LINE",
"1037 -324 OFFCURVE",
"937 -155 OFFCURVE",
"912 1 CURVE",
"659 -6 LINE {name = hr00;}",
"714 -376 OFFCURVE",
"975 -426 OFFCURVE",
"1169 -426 CURVE SMOOTH",
"1259 -426 OFFCURVE",
"1324 -405 OFFCURVE",
"1351 -393 CURVE"
);
}
);
width = 1524;
},
{
anchors = (
{
name = bottom;
position = "{852, 0}";
},
{
name = top;
position = "{852, 1419}";
}
);
components = (
{
name = O;
transform = "{1, 0, 0, 1, 12, 0}";
}
);
layerId = "62CA62AF-CD91-478A-AB8B-28A62CC47DA0";
paths = (
{
closed = 1;
nodes = (
"1445 -303 LINE",
"1109 -309 OFFCURVE",
"1056 -113 OFFCURVE",
"1047 1 CURVE",
"665 -6 LINE {name = hr00;}",
"729 -364 OFFCURVE",
"1012 -419 OFFCURVE",
"1232 -419 CURVE SMOOTH",
"1341 -419 OFFCURVE",
"1418 -405 OFFCURVE",
"1445 -393 CURVE"
);
}
);
width = 1679;
}
);
leftKerningGroup = O;
rightKerningGroup = O;
unicode = 0051;
},
{
color = 10;
glyphname = R;
lastChange = "2018-07-13 22:37:15 +0000";
layers = (
{
anchors = (
{
name = bottom;
position = "{716, 0}";
},
{
name = top;
position = "{716, 1419}";
}
);
layerId = "DD6F9F34-BC40-4E8F-B1D3-DF3B42A9710F";
paths = (
{
closed = 1;
nodes = (
"664 0 LINE SMOOTH",
"687 0 OFFCURVE",
"698 36 OFFCURVE",
"698 51 CURVE SMOOTH",
"698 81 OFFCURVE",
"690 85 OFFCURVE",
"662 88 CURVE",
"589 93 OFFCURVE",
"490 99 OFFCURVE",
"490 185 CURVE SMOOTH",
"490 625 LINE",
"695 625 LINE SMOOTH",
"990 625 OFFCURVE",
"868 0 OFFCURVE",
"1199 0 CURVE SMOOTH",
"1402 0 LINE SMOOTH",
"1424 0 OFFCURVE",
"1436 31 OFFCURVE",
"1436 46 CURVE SMOOTH",
"1436 76 OFFCURVE",
"1428 86 OFFCURVE",
"1400 89 CURVE SMOOTH",
"1351 94 OFFCURVE",
"1284 119 OFFCURVE",
"1239 206 CURVE",
"1124 389 OFFCURVE",
"1119 628 OFFCURVE",
"854 654 CURVE",
"1069 712 OFFCURVE",
"1206 840 OFFCURVE",
"1206 1050 CURVE SMOOTH",
"1206 1329 OFFCURVE",
"982 1426 OFFCURVE",
"700 1428 CURVE SMOOTH",
"555 1429 OFFCURVE",
"494 1420 OFFCURVE",
"326 1420 CURVE SMOOTH",
"273 1420 OFFCURVE",
"210 1419 OFFCURVE",
"130 1419 CURVE SMOOTH",
"107 1419 OFFCURVE",
"96 1383 OFFCURVE",
"96 1368 CURVE SMOOTH",
"96 1338 OFFCURVE",
"104 1334 OFFCURVE",
"132 1331 CURVE SMOOTH",
"193 1324 OFFCURVE",
"284 1320 OFFCURVE",
"284 1234 CURVE SMOOTH",
"283 152 LINE SMOOTH",
"283 108 OFFCURVE",
"202 93 OFFCURVE",
"138 88 CURVE",
"112 85 OFFCURVE",
"105 72 OFFCURVE",
"105 51 CURVE SMOOTH",
"105 36 OFFCURVE",
"116 0 OFFCURVE",
"139 0 CURVE SMOOTH"
);
},
{
closed = 1;
nodes = (
"491 1332 LINE",
"653 1332 LINE SMOOTH",
"845 1332 OFFCURVE",
"997 1263 OFFCURVE",
"997 1019 CURVE SMOOTH",
"997 775 OFFCURVE",
"811 711 OFFCURVE",
"646 711 CURVE SMOOTH",
"490 711 LINE"
);
}
);
width = 1437;
},
{
anchors = (
{
name = bottom;
position = "{787, 0}";
},
{
name = top;
position = "{787, 1419}";
}
);
background = {
paths = (
{
closed = 1;
nodes = (
"763 0 LINE SMOOTH",
"786 0 OFFCURVE",
"797 36 OFFCURVE",
"797 51 CURVE SMOOTH",
"797 81 OFFCURVE",
"789 85 OFFCURVE",
"761 88 CURVE",
"688 93 OFFCURVE",
"619 99 OFFCURVE",
"619 185 CURVE SMOOTH",
"619 615 LINE",
"801 615 LINE",
"903 500 OFFCURVE",
"984 200 OFFCURVE",
"1086 70 CURVE",
"1114 37 OFFCURVE",
"1148 0 OFFCURVE",
"1219 0 CURVE SMOOTH",
"1571 0 LINE SMOOTH",
"1593 0 OFFCURVE",
"1606 17 OFFCURVE",
"1607 32 CURVE SMOOTH",
"1609 62 OFFCURVE",
"1603 86 OFFCURVE",
"1575 89 CURVE SMOOTH",
"1487 99 OFFCURVE",
"1392 245 OFFCURVE",
"1335 317 CURVE",
"1258 418 OFFCURVE",
"1196 560 OFFCURVE",
"1121 656 CURVE",
"1322 723 OFFCURVE",
"1406 846 OFFCURVE",
"1406 1050 CURVE SMOOTH",
"1406 1337 OFFCURVE",
"1184 1429 OFFCURVE",
"816 1429 CURVE SMOOTH",
"639 1429 OFFCURVE",
"563 1419 OFFCURVE",
"366 1419 CURVE SMOOTH {name = hr02;}",
"129 1419 LINE SMOOTH",
"106 1419 OFFCURVE",
"95 1383 OFFCURVE",
"95 1368 CURVE SMOOTH",
"95 1338 OFFCURVE",
"103 1334 OFFCURVE",
"131 1331 CURVE SMOOTH",
"192 1326 OFFCURVE",
"283 1320 OFFCURVE",
"283 1234 CURVE SMOOTH",
"283 152 LINE SMOOTH",
"283 108 OFFCURVE",
"211 93 OFFCURVE",
"147 88 CURVE",
"121 85 OFFCURVE",
"114 72 OFFCURVE",
"114 51 CURVE SMOOTH {name = hr01;}",
"114 36 OFFCURVE",
"125 0 OFFCURVE",
"148 0 CURVE SMOOTH"
);
},
{
closed = 1;
nodes = (
"619 1325 LINE",
"645 1328 OFFCURVE",
"673 1332 OFFCURVE",
"733 1332 CURVE SMOOTH",
"941 1332 OFFCURVE",
"1027 1271 OFFCURVE",
"1027 1019 CURVE SMOOTH",
"1027 751 OFFCURVE",
"918 711 OFFCURVE",
"753 711 CURVE SMOOTH",
"619 711 LINE"
);
}
);
};
layerId = "62CA62AF-CD91-478A-AB8B-28A62CC47DA0";
paths = (
{
closed = 1;
nodes = (
"793 0 LINE SMOOTH",
"816 0 OFFCURVE",
"827 36 OFFCURVE",
"827 51 CURVE SMOOTH",
"827 81 OFFCURVE",
"819 85 OFFCURVE",
"791 88 CURVE",
"718 93 OFFCURVE",
"621 99 OFFCURVE",
"621 185 CURVE SMOOTH",
"621 625 LINE",
"698 625 LINE SMOOTH",
"986 625 OFFCURVE",
"891 0 OFFCURVE",
"1222 0 CURVE SMOOTH",
"1575 0 LINE SMOOTH",
"1597 0 OFFCURVE",
"1609 31 OFFCURVE",
"1609 46 CURVE SMOOTH",
"1609 76 OFFCURVE",
"1601 86 OFFCURVE",
"1573 89 CURVE SMOOTH",
"1524 94 OFFCURVE",
"1457 119 OFFCURVE",
"1412 206 CURVE",
"1297 389 OFFCURVE",
"1268 628 OFFCURVE",
"1003 654 CURVE",
"1218 712 OFFCURVE",
"1409 769 OFFCURVE",
"1409 1050 CURVE SMOOTH",
"1409 1329 OFFCURVE",
"1187 1429 OFFCURVE",
"829 1429 CURVE SMOOTH",
"650 1429 OFFCURVE",
"456 1421 OFFCURVE",
"326 1421 CURVE SMOOTH",
"263 1421 OFFCURVE",
"218 1419 OFFCURVE",
"135 1419 CURVE SMOOTH",
"112 1419 OFFCURVE",
"101 1383 OFFCURVE",
"101 1368 CURVE SMOOTH",
"101 1338 OFFCURVE",
"109 1334 OFFCURVE",
"137 1331 CURVE SMOOTH",
"198 1324 OFFCURVE",
"289 1320 OFFCURVE",
"289 1234 CURVE SMOOTH",
"288 152 LINE SMOOTH",
"288 108 OFFCURVE",
"207 93 OFFCURVE",
"143 88 CURVE",
"117 85 OFFCURVE",
"110 72 OFFCURVE",
"110 51 CURVE SMOOTH",
"110 36 OFFCURVE",
"121 0 OFFCURVE",
"144 0 CURVE SMOOTH"
);
},
{
closed = 1;
nodes = (
"621 1332 LINE",
"772 1332 LINE SMOOTH",
"964 1332 OFFCURVE",
"1032 1223 OFFCURVE",
"1032 1019 CURVE SMOOTH",
"1032 785 OFFCURVE",
"940 711 OFFCURVE",
"775 711 CURVE SMOOTH",
"621 711 LINE"
);
}
);
width = 1633;
}
);
leftKerningGroup = H;
rightKerningGroup = R;
unicode = 0052;
},
{
color = 10;
glyphname = S;
lastChange = "2018-07-13 22:38:50 +0000";
layers = (
{
anchors = (
{
name = bottom;
position = "{562, 0}";
},
{
name = top;
position = "{562, 1419}";
}
);
layerId = "DD6F9F34-BC40-4E8F-B1D3-DF3B42A9710F";
paths = (
{
closed = 1;
nodes = (
"865 -30 OFFCURVE",
"1041 121 OFFCURVE",
"1041 382 CURVE SMOOTH",
"1041 581 OFFCURVE",
"849 713 OFFCURVE",
"664 815 CURVE SMOOTH",
"506 899 OFFCURVE",
"358 1000 OFFCURVE",
"358 1129 CURVE SMOOTH",
"358 1308 OFFCURVE",
"456 1370 OFFCURVE",
"594 1370 CURVE SMOOTH",
"739 1370 OFFCURVE",
"867 1265 OFFCURVE",
"907 1051 CURVE SMOOTH",
"912 1023 OFFCURVE",
"1015 1003 OFFCURVE",
"1002 1100 CURVE SMOOTH",
"988 1210 OFFCURVE",
"977 1369 OFFCURVE",
"977 1394 CURVE SMOOTH",
"977 1421 OFFCURVE",
"926 1444 OFFCURVE",
"896 1425 CURVE SMOOTH",
"873 1411 OFFCURVE",
"869 1391 OFFCURVE",
"814 1401 CURVE SMOOTH",
"779 1407 OFFCURVE",
"695 1449 OFFCURVE",
"577 1449 CURVE SMOOTH",
"394 1449 OFFCURVE",
"167 1344 OFFCURVE",
"167 1069 CURVE SMOOTH",
"167 831 OFFCURVE",
"359 720 OFFCURVE",
"543 626 CURVE SMOOTH",
"700 544 OFFCURVE",
"837 452 OFFCURVE",
"837 321 CURVE SMOOTH",
"837 125 OFFCURVE",
"727 59 OFFCURVE",
"607 59 CURVE SMOOTH",
"503 59 OFFCURVE",
"341 121 OFFCURVE",
"269 274 CURVE SMOOTH",
"215 389 OFFCURVE",
"202 444 OFFCURVE",
"195 478 CURVE SMOOTH",
"183 538 OFFCURVE",
"85 536 OFFCURVE",
"95 458 CURVE",
"104 378 OFFCURVE",
"122 214 OFFCURVE",
"113 72 CURVE SMOOTH",
"110 22 OFFCURVE",
"167 -1 OFFCURVE",
"225 65 CURVE SMOOTH",
"262 107 OFFCURVE",
"283 62 OFFCURVE",
"339 41 CURVE SMOOTH",
"383 25 OFFCURVE",
"462 -30 OFFCURVE",
"624 -30 CURVE SMOOTH"
);
}
);
width = 1149;
},
{
anchors = (
{
name = bottom;
position = "{619, 0}";
},
{
name = top;
position = "{619, 1419}";
}
);
layerId = "62CA62AF-CD91-478A-AB8B-28A62CC47DA0";
paths = (
{
closed = 1;
nodes = (
"1043 -30 OFFCURVE",
"1261 117 OFFCURVE",
"1261 372 CURVE SMOOTH {name = hr02;}",
"1261 591 OFFCURVE",
"1049 743 OFFCURVE",
"833 848 CURVE SMOOTH",
"655 935 OFFCURVE",
"465 1035 OFFCURVE",
"465 1194 CURVE SMOOTH",
"465 1326 OFFCURVE",
"576 1366 OFFCURVE",
"720 1366 CURVE SMOOTH",
"841 1366 OFFCURVE",
"1001 1298 OFFCURVE",
"1052 1051 CURVE SMOOTH",
"1058 1022 OFFCURVE",
"1181 1003 OFFCURVE",
"1167 1100 CURVE",
"1153 1210 OFFCURVE",
"1142 1369 OFFCURVE",
"1142 1394 CURVE SMOOTH {name = hr03;}",
"1142 1421 OFFCURVE",
"1071 1443 OFFCURVE",
"1041 1425 CURVE SMOOTH",
"1018 1411 OFFCURVE",
"1021 1389 OFFCURVE",
"966 1398 CURVE SMOOTH {name = hr04;}",
"931 1404 OFFCURVE",
"817 1448 OFFCURVE",
"688 1448 CURVE SMOOTH",
"374 1448 OFFCURVE",
"160 1326 OFFCURVE",
"160 1069 CURVE SMOOTH",
"160 831 OFFCURVE",
"363 692 OFFCURVE",
"542 601 CURVE SMOOTH",
"738 501 OFFCURVE",
"944 413 OFFCURVE",
"944 240 CURVE SMOOTH",
"944 90 OFFCURVE",
"806 61 OFFCURVE",
"666 61 CURVE SMOOTH",
"556 61 OFFCURVE",
"381 141 OFFCURVE",
"305 294 CURVE",
"251 409 OFFCURVE",
"238 444 OFFCURVE",
"231 478 CURVE SMOOTH",
"219 538 OFFCURVE",
"101 536 OFFCURVE",
"111 458 CURVE",
"120 378 OFFCURVE",
"138 195 OFFCURVE",
"129 53 CURVE SMOOTH {name = hr01;}",
"126 3 OFFCURVE",
"204 -21 OFFCURVE",
"261 46 CURVE SMOOTH",
"298 89 OFFCURVE",
"312 61 OFFCURVE",
"368 41 CURVE SMOOTH",
"415 24 OFFCURVE",
"550 -30 OFFCURVE",
"683 -30 CURVE SMOOTH"
);
}
);
width = 1329;
}
);
leftKerningGroup = S;
rightKerningGroup = S;
unicode = 0053;
},
{
color = 10;
glyphname = Germandbls;
lastChange = "2018-07-13 22:39:43 +0000";
layers = (
{
layerId = "DD6F9F34-BC40-4E8F-B1D3-DF3B42A9710F";
paths = (
{
closed = 1;
nodes = (
"1246 -23 OFFCURVE",
"1371 163 OFFCURVE",
"1371 407 CURVE SMOOTH",
"1371 693 OFFCURVE",
"1109 810 OFFCURVE",
"968 810 CURVE",
"1279 1419 LINE",
"781 1417 LINE SMOOTH",
"419 1417 OFFCURVE",
"220 1225 OFFCURVE",
"220 903 CURVE SMOOTH",
"221 185 LINE SMOOTH",
"221 99 OFFCURVE",
"151 92 OFFCURVE",
"90 88 CURVE SMOOTH",
"62 86 OFFCURVE",
"54 81 OFFCURVE",
"54 51 CURVE SMOOTH",
"54 36 OFFCURVE",
"65 0 OFFCURVE",
"88 0 CURVE SMOOTH",
"438 0 LINE",
"437 895 LINE",
"437 1207 OFFCURVE",
"577 1323 OFFCURVE",
"785 1323 CURVE SMOOTH",
"1003 1323 LINE",
"741 813 OFFCURVE",
"735 808 OFFCURVE",
"735 785 CURVE SMOOTH",
"735 759 OFFCURVE",
"754 722 OFFCURVE",
"806 716 CURVE SMOOTH",
"1058 687 OFFCURVE",
"1147 559 OFFCURVE",
"1147 399 CURVE SMOOTH",
"1147 171 OFFCURVE",
"1077 72 OFFCURVE",
"932 72 CURVE SMOOTH",
"817 72 OFFCURVE",
"769 139 OFFCURVE",
"769 139 CURVE",
"804 315 LINE",
"796 357 OFFCURVE",
"746 383 OFFCURVE",
"700 383 CURVE SMOOTH",
"660 383 OFFCURVE",
"592 352 OFFCURVE",
"592 254 CURVE SMOOTH",
"592 94 OFFCURVE",
"746 -23 OFFCURVE",
"945 -23 CURVE SMOOTH"
);
}
);
width = 1409;
},
{
layerId = "62CA62AF-CD91-478A-AB8B-28A62CC47DA0";
paths = (
{
closed = 1;
nodes = (
"1399 -19 OFFCURVE",
"1613 121 OFFCURVE",
"1613 382 CURVE SMOOTH",
"1613 653 OFFCURVE",
"1420 789 OFFCURVE",
"1170 789 CURVE",
"1481 1419 LINE",
"899 1420 LINE SMOOTH",
"468 1421 OFFCURVE",
"239 1225 OFFCURVE",
"239 903 CURVE SMOOTH",
"240 185 LINE SMOOTH",
"240 99 OFFCURVE",
"179 95 OFFCURVE",
"118 88 CURVE SMOOTH",
"90 85 OFFCURVE",
"82 81 OFFCURVE",
"82 51 CURVE SMOOTH",
"82 36 OFFCURVE",
"93 0 OFFCURVE",
"116 0 CURVE SMOOTH",
"587 0 LINE",
"586 895 LINE",
"586 1207 OFFCURVE",
"679 1326 OFFCURVE",
"903 1326 CURVE SMOOTH",
"1105 1326 LINE",
"845 796 OFFCURVE",
"836 788 OFFCURVE",
"836 761 CURVE SMOOTH",
"836 732 OFFCURVE",
"855 693 OFFCURVE",
"907 683 CURVE SMOOTH",
"1176 631 OFFCURVE",
"1276 512 OFFCURVE",
"1276 331 CURVE SMOOTH",
"1276 180 OFFCURVE",
"1164 76 OFFCURVE",
"1044 76 CURVE SMOOTH",
"930 76 OFFCURVE",
"876 143 OFFCURVE",
"876 143 CURVE",
"911 347 LINE",
"903 389 OFFCURVE",
"853 397 OFFCURVE",
"807 397 CURVE SMOOTH",
"767 397 OFFCURVE",
"684 356 OFFCURVE",
"684 258 CURVE SMOOTH",
"684 95 OFFCURVE",
"872 -19 OFFCURVE",
"1042 -19 CURVE SMOOTH"
);
}
);
width = 1681;
}
);
leftKerningGroup = uni1E9E;
rightKerningGroup = uni1E9E;
unicode = 1E9E;
},
{
color = 4;
glyphname = Schwa;
lastChange = "2018-07-10 17:39:46 +0000";
layers = (
{
layerId = "DD6F9F34-BC40-4E8F-B1D3-DF3B42A9710F";
paths = (
{
closed = 1;
nodes = (
"999 -30 OFFCURVE",
"1397 153 OFFCURVE",
"1397 706 CURVE SMOOTH",
"1397 1256 OFFCURVE",
"994 1449 OFFCURVE",
"698 1449 CURVE SMOOTH",
"433 1449 OFFCURVE",
"304 1392 OFFCURVE",
"233 1361 CURVE",
"211 1051 LINE",
"208 1028 OFFCURVE",
"231 1013 OFFCURVE",
"247 1011 CURVE SMOOTH",
"269 1008 OFFCURVE",
"291 1013 OFFCURVE",
"295 1039 CURVE",
"342 1207 OFFCURVE",
"464 1354 OFFCURVE",
"700 1353 CURVE SMOOTH",
"852 1354 OFFCURVE",
"1148 1260 OFFCURVE",
"1148 706 CURVE SMOOTH",
"1148 217 OFFCURVE",
"851 65 OFFCURVE",
"681 65 CURVE SMOOTH",
"473 65 OFFCURVE",
"414 298 OFFCURVE",
"402 370 CURVE SMOOTH",
"382 490 OFFCURVE",
"395 587 OFFCURVE",
"402 628 CURVE",
"1175 628 LINE",
"1203 631 OFFCURVE",
"1211 635 OFFCURVE",
"1211 665 CURVE SMOOTH",
"1211 680 OFFCURVE",
"1200 716 OFFCURVE",
"1177 716 CURVE SMOOTH",
"207 716 LINE SMOOTH",
"164 716 OFFCURVE",
"108 -30 OFFCURVE",
"727 -30 CURVE SMOOTH"
);
}
);
width = 1485;
},
{
layerId = "62CA62AF-CD91-478A-AB8B-28A62CC47DA0";
paths = (
{
closed = 1;
nodes = (
"1064 -30 OFFCURVE",
"1557 153 OFFCURVE",
"1557 706 CURVE SMOOTH {name = hr00;}",
"1557 1256 OFFCURVE",
"1082 1449 OFFCURVE",
"738 1449 CURVE SMOOTH",
"478 1449 OFFCURVE",
"300 1392 OFFCURVE",
"230 1361 CURVE",
"208 1051 LINE SMOOTH",
"206 1028 OFFCURVE",
"247 1013 OFFCURVE",
"264 1011 CURVE SMOOTH",
"286 1008 OFFCURVE",
"345 1013 OFFCURVE",
"350 1039 CURVE",
"396 1207 OFFCURVE",
"496 1353 OFFCURVE",
"740 1353 CURVE SMOOTH",
"884 1353 OFFCURVE",
"1178 1260 OFFCURVE",
"1178 706 CURVE SMOOTH",
"1178 217 OFFCURVE",
"898 65 OFFCURVE",
"731 65 CURVE SMOOTH",
"545 65 OFFCURVE",
"519 300 OFFCURVE",
"512 363 CURVE SMOOTH",
"505 424 OFFCURVE",
"512 485 OFFCURVE",
"512 546 CURVE",
"1251 553 LINE",
"1279 555 OFFCURVE",
"1287 560 OFFCURVE",
"1287 590 CURVE SMOOTH",
"1287 605 OFFCURVE",
"1276 641 OFFCURVE",
"1253 641 CURVE SMOOTH",
"196 641 LINE SMOOTH",
"144 641 OFFCURVE",
"88 -30 OFFCURVE",
"748 -30 CURVE SMOOTH"
);
}
);
width = 1653;
}
);
leftKerningGroup = O;
rightKerningGroup = O;
unicode = 018F;
},
{
color = 10;
glyphname = T;
lastChange = "2018-07-13 05:37:57 +0000";
layers = (
{
anchors = (
{
name = bottom;
position = "{624, 0}";
},
{
name = center;
position = "{624, 710}";
},
{
name = top;
position = "{624, 1419}";
}
);
layerId = "DD6F9F34-BC40-4E8F-B1D3-DF3B42A9710F";
paths = (
{
closed = 1;
nodes = (
"930 0 LINE SMOOTH",
"953 0 OFFCURVE",
"964 36 OFFCURVE",
"964 51 CURVE SMOOTH",
"964 81 OFFCURVE",
"956 85 OFFCURVE",
"928 88 CURVE",
"847 93 OFFCURVE",
"726 99 OFFCURVE",
"726 185 CURVE SMOOTH",
"727 1320 LINE",
"990 1320 LINE SMOOTH",
"1104 1320 OFFCURVE",
"1139 1084 OFFCURVE",
"1144 1019 CURVE",
"1147 993 OFFCURVE",
"1160 986 OFFCURVE",
"1181 986 CURVE SMOOTH",
"1196 986 OFFCURVE",
"1232 997 OFFCURVE",
"1232 1020 CURVE",
"1228 1151 OFFCURVE",
"1207 1419 OFFCURVE",
"1192 1419 CURVE SMOOTH",
"55 1419 LINE SMOOTH",
"40 1419 OFFCURVE",
"19 1151 OFFCURVE",
"15 1020 CURVE SMOOTH",
"15 997 OFFCURVE",
"51 986 OFFCURVE",
"66 986 CURVE SMOOTH",
"87 986 OFFCURVE",
"100 993 OFFCURVE",
"103 1019 CURVE",
"108 1084 OFFCURVE",
"143 1320 OFFCURVE",
"257 1320 CURVE SMOOTH",
"520 1320 LINE",
"519 182 LINE SMOOTH",
"519 108 OFFCURVE",
"408 93 OFFCURVE",
"314 88 CURVE",
"288 85 OFFCURVE",
"281 72 OFFCURVE",
"281 51 CURVE SMOOTH",
"281 36 OFFCURVE",
"292 0 OFFCURVE",
"315 0 CURVE SMOOTH"
);
}
);
width = 1267;
},
{
anchors = (
{
name = bottom;
position = "{717, 0}";
},
{
name = center;
position = "{717, 710}";
},
{
name = top;
position = "{717, 1419}";
}
);
layerId = "62CA62AF-CD91-478A-AB8B-28A62CC47DA0";
paths = (
{
closed = 1;
nodes = (
"1079 0 LINE SMOOTH",
"1102 0 OFFCURVE",
"1113 36 OFFCURVE",
"1113 51 CURVE SMOOTH",
"1113 81 OFFCURVE",
"1105 85 OFFCURVE",
"1077 88 CURVE",
"996 93 OFFCURVE",
"875 99 OFFCURVE",
"875 185 CURVE SMOOTH",
"875 1320 LINE",
"1122 1320 LINE SMOOTH",
"1237 1320 OFFCURVE",
"1270 1084 OFFCURVE",
"1276 1019 CURVE SMOOTH",
"1279 993 OFFCURVE",
"1312 986 OFFCURVE",
"1333 986 CURVE SMOOTH",
"1348 986 OFFCURVE",
"1384 997 OFFCURVE",
"1384 1020 CURVE",
"1380 1151 OFFCURVE",
"1369 1419 OFFCURVE",
"1354 1419 CURVE SMOOTH",
"47 1419 LINE SMOOTH",
"32 1419 OFFCURVE",
"21 1151 OFFCURVE",
"17 1020 CURVE",
"17 997 OFFCURVE",
"53 986 OFFCURVE",
"68 986 CURVE SMOOTH",
"89 986 OFFCURVE",
"122 993 OFFCURVE",
"125 1019 CURVE",
"130 1084 OFFCURVE",
"165 1320 OFFCURVE",
"279 1320 CURVE SMOOTH",
"539 1320 LINE",
"539 182 LINE SMOOTH",
"539 108 OFFCURVE",
"427 93 OFFCURVE",
"333 88 CURVE",
"307 85 OFFCURVE",
"300 72 OFFCURVE",
"300 51 CURVE SMOOTH {name = hr00;}",
"300 36 OFFCURVE",
"311 0 OFFCURVE",
"334 0 CURVE SMOOTH"
);
}
);
width = 1401;
}
);
leftKerningGroup = T;
rightKerningGroup = T;
unicode = 0054;
},
{
color = 5;
glyphname = Tbar;
lastChange = "2018-07-12 15:53:51 +0000";
layers = (
{
components = (
{
name = T;
transform = "{1, 0, 0, 1, -10, 0}";
}
);
layerId = "DD6F9F34-BC40-4E8F-B1D3-DF3B42A9710F";
paths = (
{
closed = 1;
nodes = (
"990 586 LINE",
"1004 592 OFFCURVE",
"1014 634 OFFCURVE",
"1014 659 CURVE SMOOTH",
"1014 675 OFFCURVE",
"1006 692 OFFCURVE",
"990 693 CURVE",
"248 693 LINE",
"234 687 OFFCURVE",
"224 665 OFFCURVE",
"224 640 CURVE SMOOTH",
"224 624 OFFCURVE",
"232 587 OFFCURVE",
"248 586 CURVE"
);
}
);
width = 1267;
},
{
components = (
{
name = T;
transform = "{1, 0, 0, 1, 12, 0}";
}
);
layerId = "62CA62AF-CD91-478A-AB8B-28A62CC47DA0";
paths = (
{
closed = 1;
nodes = (
"1136 586 LINE",
"1150 592 OFFCURVE",
"1160 634 OFFCURVE",
"1160 659 CURVE SMOOTH",
"1160 675 OFFCURVE",
"1152 692 OFFCURVE",
"1136 693 CURVE",
"270 693 LINE",
"256 687 OFFCURVE",
"246 665 OFFCURVE",
"246 640 CURVE SMOOTH",
"246 624 OFFCURVE",
"254 587 OFFCURVE",
"270 586 CURVE"
);
}
);
width = 1401;
}
);
leftKerningGroup = T;
rightKerningGroup = T;
unicode = 0166;
},
{
color = 10;
glyphname = U;
lastChange = "2018-07-13 05:37:57 +0000";
layers = (
{
anchors = (
{
name = bottom;
position = "{767, 0}";
},
{
name = ogonek;
position = "{1386, 10}";
},
{
name = top;
position = "{767, 1419}";
},
{
name = topright;
position = "{1521, 1419}";
}
);
layerId = "DD6F9F34-BC40-4E8F-B1D3-DF3B42A9710F";
paths = (
{
closed = 1;
nodes = (
"1296 1294 OFFCURVE",
"1368 1326 OFFCURVE",
"1471 1331 CURVE SMOOTH",
"1497 1332 OFFCURVE",
"1504 1347 OFFCURVE",
"1504 1368 CURVE SMOOTH",
"1504 1383 OFFCURVE",
"1493 1419 OFFCURVE",
"1470 1419 CURVE SMOOTH",
"1014 1419 LINE SMOOTH",
"991 1419 OFFCURVE",
"980 1383 OFFCURVE",
"980 1368 CURVE SMOOTH",
"980 1338 OFFCURVE",
"988 1334 OFFCURVE",
"1016 1331 CURVE SMOOTH",
"1071 1326 OFFCURVE",
"1192 1311 OFFCURVE",
"1192 1244 CURVE SMOOTH",
"1192 514 LINE SMOOTH",
"1192 250 OFFCURVE",
"1100 65 OFFCURVE",
"785 65 CURVE SMOOTH",
"577 65 OFFCURVE",
"468 212 OFFCURVE",
"468 524 CURVE SMOOTH",
"469 1267 LINE SMOOTH",
"469 1311 OFFCURVE",
"555 1326 OFFCURVE",
"624 1331 CURVE SMOOTH",
"650 1334 OFFCURVE",
"657 1347 OFFCURVE",
"657 1368 CURVE SMOOTH",
"657 1383 OFFCURVE",
"646 1419 OFFCURVE",
"623 1419 CURVE SMOOTH",
"108 1419 LINE SMOOTH",
"85 1419 OFFCURVE",
"74 1383 OFFCURVE",
"74 1368 CURVE SMOOTH",
"74 1338 OFFCURVE",
"82 1334 OFFCURVE",
"110 1331 CURVE SMOOTH",
"171 1326 OFFCURVE",
"252 1320 OFFCURVE",
"252 1234 CURVE SMOOTH",
"251 516 LINE SMOOTH",
"251 194 OFFCURVE",
"419 -29 OFFCURVE",
"781 -29 CURVE SMOOTH",
"1101 -29 OFFCURVE",
"1293 154 OFFCURVE",
"1294 516 CURVE SMOOTH",
"1296 1230 LINE SMOOTH"
);
}
);
width = 1549;
},
{
anchors = (
{
name = bottom;
position = "{835, 0}";
},
{
name = ogonek;
position = "{1517, 10}";
},
{
name = top;
position = "{835, 1419}";
},
{
name = topright;
position = "{1668, 1419}";
}
);
background = {
paths = (
{
closed = 1;
nodes = (
"256 194 OFFCURVE",
"415 -29 OFFCURVE",
"901 -29 CURVE SMOOTH",
"1242 -29 OFFCURVE",
"1463 169 OFFCURVE",
"1463 566 CURVE SMOOTH",
"1463 1230 LINE SMOOTH",
"1463 1294 OFFCURVE",
"1531 1326 OFFCURVE",
"1634 1331 CURVE SMOOTH",
"1660 1332 OFFCURVE",
"1667 1347 OFFCURVE",
"1667 1368 CURVE SMOOTH",
"1667 1383 OFFCURVE",
"1656 1419 OFFCURVE",
"1633 1419 CURVE SMOOTH",
"1177 1419 LINE SMOOTH",
"1154 1419 OFFCURVE",
"1143 1383 OFFCURVE",
"1143 1368 CURVE SMOOTH",
"1143 1338 OFFCURVE",
"1151 1334 OFFCURVE",
"1179 1331 CURVE SMOOTH",
"1235 1326 OFFCURVE",
"1353 1311 OFFCURVE",
"1353 1244 CURVE SMOOTH",
"1353 564 LINE SMOOTH",
"1353 297 OFFCURVE",
"1254 65 OFFCURVE",
"918 65 CURVE SMOOTH",
"684 65 OFFCURVE",
"603 227 OFFCURVE",
"603 574 CURVE SMOOTH",
"603 1267 LINE SMOOTH",
"603 1311 OFFCURVE",
"690 1326 OFFCURVE",
"758 1331 CURVE SMOOTH",
"784 1334 OFFCURVE",
"791 1347 OFFCURVE",
"791 1368 CURVE SMOOTH",
"791 1383 OFFCURVE",
"780 1419 OFFCURVE",
"757 1419 CURVE SMOOTH",
"112 1419 LINE SMOOTH",
"89 1419 OFFCURVE",
"78 1383 OFFCURVE",
"78 1368 CURVE SMOOTH",
"78 1338 OFFCURVE",
"86 1334 OFFCURVE",
"114 1331 CURVE SMOOTH",
"175 1326 OFFCURVE",
"256 1320 OFFCURVE",
"256 1234 CURVE SMOOTH",
"256 566 LINE SMOOTH {name = hr00;}"
);
}
);
};
layerId = "62CA62AF-CD91-478A-AB8B-28A62CC47DA0";
paths = (
{
closed = 1;
nodes = (
"1445 1294 OFFCURVE",
"1508 1327 OFFCURVE",
"1611 1331 CURVE SMOOTH",
"1637 1332 OFFCURVE",
"1644 1347 OFFCURVE",
"1644 1368 CURVE SMOOTH",
"1644 1383 OFFCURVE",
"1633 1419 OFFCURVE",
"1610 1419 CURVE SMOOTH",
"1154 1419 LINE SMOOTH",
"1131 1419 OFFCURVE",
"1120 1383 OFFCURVE",
"1120 1368 CURVE SMOOTH",
"1120 1338 OFFCURVE",
"1128 1334 OFFCURVE",
"1156 1331 CURVE SMOOTH",
"1211 1325 OFFCURVE",
"1333 1311 OFFCURVE",
"1333 1244 CURVE SMOOTH",
"1333 514 LINE SMOOTH",
"1333 286 OFFCURVE",
"1220 65 OFFCURVE",
"905 65 CURVE SMOOTH",
"681 65 OFFCURVE",
"588 212 OFFCURVE",
"588 524 CURVE SMOOTH",
"589 1267 LINE SMOOTH",
"589 1311 OFFCURVE",
"675 1326 OFFCURVE",
"744 1331 CURVE SMOOTH",
"770 1333 OFFCURVE",
"777 1347 OFFCURVE",
"777 1368 CURVE SMOOTH",
"777 1383 OFFCURVE",
"766 1419 OFFCURVE",
"743 1419 CURVE SMOOTH",
"98 1419 LINE SMOOTH",
"75 1419 OFFCURVE",
"64 1383 OFFCURVE",
"64 1368 CURVE SMOOTH",
"64 1338 OFFCURVE",
"72 1334 OFFCURVE",
"100 1331 CURVE SMOOTH",
"161 1326 OFFCURVE",
"242 1320 OFFCURVE",
"242 1234 CURVE SMOOTH",
"241 516 LINE SMOOTH",
"241 194 OFFCURVE",
"470 -29 OFFCURVE",
"901 -29 CURVE SMOOTH",
"1221 -29 OFFCURVE",
"1442 186 OFFCURVE",
"1443 516 CURVE SMOOTH",
"1445 1230 LINE SMOOTH"
);
}
);
width = 1707;
}
);
leftKerningGroup = U;
rightKerningGroup = U;
unicode = 0055;
},
{
color = 4;
glyphname = Uhorn;
lastChange = "2018-07-12 03:39:16 +0000";
layers = (
{
anchors = (
{
name = bottom;
position = "{775, 0}";
},
{
name = ogonek;
position = "{1394, 10}";
},
{
name = top;
position = "{826, 1419}";
}
);
components = (
{
name = horncomb.case;
}
);
layerId = "DD6F9F34-BC40-4E8F-B1D3-DF3B42A9710F";
paths = (
{
closed = 1;
nodes = (
"1378 1322 LINE",
"1487 1322 OFFCURVE",
"1659 1478 OFFCURVE",
"1669 1633 CURVE SMOOTH",
"1670 1648 OFFCURVE",
"1667 1663 OFFCURVE",
"1664 1680 CURVE",
"1491 1680 LINE",
"1492 1671 OFFCURVE",
"1492 1659 OFFCURVE",
"1492 1644 CURVE SMOOTH",
"1492 1564 OFFCURVE",
"1468 1417 OFFCURVE",
"1309 1414 CURVE"
);
},
{
closed = 1;
nodes = (
"1304 1294 OFFCURVE",
"1344 1322 OFFCURVE",
"1378 1322 CURVE SMOOTH",
"1404 1322 OFFCURVE",
"1450 1365 OFFCURVE",
"1450 1386 CURVE SMOOTH",
"1450 1401 OFFCURVE",
"1501 1419 OFFCURVE",
"1478 1419 CURVE SMOOTH",
"1022 1419 LINE SMOOTH",
"999 1419 OFFCURVE",
"988 1383 OFFCURVE",
"988 1368 CURVE SMOOTH",
"988 1338 OFFCURVE",
"996 1334 OFFCURVE",
"1024 1331 CURVE SMOOTH",
"1079 1326 OFFCURVE",
"1200 1311 OFFCURVE",
"1200 1244 CURVE SMOOTH",
"1200 514 LINE SMOOTH",
"1200 250 OFFCURVE",
"1108 65 OFFCURVE",
"793 65 CURVE SMOOTH",
"585 65 OFFCURVE",
"476 212 OFFCURVE",
"476 524 CURVE SMOOTH",
"477 1267 LINE SMOOTH",
"477 1311 OFFCURVE",
"563 1326 OFFCURVE",
"632 1331 CURVE SMOOTH",
"658 1334 OFFCURVE",
"665 1347 OFFCURVE",
"665 1368 CURVE SMOOTH",
"665 1383 OFFCURVE",
"654 1419 OFFCURVE",
"631 1419 CURVE SMOOTH",
"116 1419 LINE SMOOTH",
"93 1419 OFFCURVE",
"82 1383 OFFCURVE",
"82 1368 CURVE SMOOTH",
"82 1338 OFFCURVE",
"90 1334 OFFCURVE",
"118 1331 CURVE SMOOTH",
"179 1326 OFFCURVE",
"260 1320 OFFCURVE",
"260 1234 CURVE SMOOTH",
"259 516 LINE SMOOTH",
"259 194 OFFCURVE",
"427 -29 OFFCURVE",
"789 -29 CURVE SMOOTH",
"1109 -29 OFFCURVE",
"1301 154 OFFCURVE",
"1302 516 CURVE SMOOTH",
"1304 1230 LINE SMOOTH"
);
}
);
width = 1549;
},
{
anchors = (
{
name = bottom;
position = "{853, 0}";
},
{
name = ogonek;
position = "{1535, 10}";
},
{
name = top;
position = "{953, 1419}";
}
);
components = (
{
name = horncomb.case;
}
);
layerId = "62CA62AF-CD91-478A-AB8B-28A62CC47DA0";
paths = (
{
closed = 1;
nodes = (
"1600 1329 LINE",
"1659 1329 OFFCURVE",
"1817 1421 OFFCURVE",
"1817 1627 CURVE SMOOTH",
"1817 1645 OFFCURVE",
"1814 1717 OFFCURVE",
"1811 1738 CURVE",
"1595 1738 LINE",
"1597 1727 OFFCURVE",
"1597 1712 OFFCURVE",
"1597 1694 CURVE SMOOTH",
"1597 1596 OFFCURVE",
"1612 1413 OFFCURVE",
"1396 1413 CURVE"
);
},
{
closed = 1;
nodes = (
"1463 1294 OFFCURVE",
"1497 1325 OFFCURVE",
"1600 1329 CURVE SMOOTH",
"1626 1330 OFFCURVE",
"1662 1347 OFFCURVE",
"1662 1368 CURVE SMOOTH",
"1662 1383 OFFCURVE",
"1651 1419 OFFCURVE",
"1628 1419 CURVE SMOOTH",
"1172 1419 LINE SMOOTH",
"1149 1419 OFFCURVE",
"1138 1383 OFFCURVE",
"1138 1368 CURVE SMOOTH",
"1138 1338 OFFCURVE",
"1146 1334 OFFCURVE",
"1174 1331 CURVE SMOOTH",
"1229 1325 OFFCURVE",
"1351 1311 OFFCURVE",
"1351 1244 CURVE SMOOTH",
"1351 514 LINE SMOOTH",
"1351 286 OFFCURVE",
"1238 65 OFFCURVE",
"923 65 CURVE SMOOTH",
"699 65 OFFCURVE",
"606 212 OFFCURVE",
"606 524 CURVE SMOOTH",
"607 1267 LINE SMOOTH",
"607 1311 OFFCURVE",
"693 1326 OFFCURVE",
"762 1331 CURVE SMOOTH",
"788 1333 OFFCURVE",
"795 1347 OFFCURVE",
"795 1368 CURVE SMOOTH",
"795 1383 OFFCURVE",
"784 1419 OFFCURVE",
"761 1419 CURVE SMOOTH",
"116 1419 LINE SMOOTH",
"93 1419 OFFCURVE",
"82 1383 OFFCURVE",
"82 1368 CURVE SMOOTH",
"82 1338 OFFCURVE",
"90 1334 OFFCURVE",
"118 1331 CURVE SMOOTH",
"179 1326 OFFCURVE",
"260 1320 OFFCURVE",
"260 1234 CURVE SMOOTH",
"259 516 LINE SMOOTH",
"259 194 OFFCURVE",
"488 -29 OFFCURVE",
"919 -29 CURVE SMOOTH",
"1239 -29 OFFCURVE",
"1460 186 OFFCURVE",
"1461 516 CURVE SMOOTH",
"1463 1230 LINE SMOOTH"
);
}
);
width = 1706;
}
);
leftKerningGroup = U;
rightKerningGroup = U;
unicode = 01AF;
},
{
color = 5;
glyphname = Uogonek;
lastChange = "2018-07-13 02:45:54 +0000";
layers = (
{
components = (
{
name = U;
}
);
layerId = "DD6F9F34-BC40-4E8F-B1D3-DF3B42A9710F";
paths = (
{
closed = 1;
nodes = (
"819 0 LINE",
"667 -36 OFFCURVE",
"574 -119 OFFCURVE",
"574 -224 CURVE SMOOTH",
"574 -329 OFFCURVE",
"683 -407 OFFCURVE",
"813 -407 CURVE SMOOTH",
"873 -407 OFFCURVE",
"959 -389 OFFCURVE",
"1002 -360 CURVE SMOOTH",
"1032 -340 OFFCURVE",
"1026 -239 OFFCURVE",
"1002 -243 CURVE SMOOTH",
"968 -249 OFFCURVE",
"952 -259 OFFCURVE",
"920 -259 CURVE SMOOTH",
"831 -259 OFFCURVE",
"797 -233 OFFCURVE",
"797 -172 CURVE SMOOTH",
"797 -96 OFFCURVE",
"872 -32 OFFCURVE",
"968 0 CURVE",
"926 49 LINE"
);
}
);
width = 1549;
},
{
components = (
{
name = U;
}
);
layerId = "62CA62AF-CD91-478A-AB8B-28A62CC47DA0";
paths = (
{
closed = 1;
nodes = (
"901 0 LINE",
"682 -52 OFFCURVE",
"614 -157 OFFCURVE",
"614 -264 CURVE SMOOTH",
"614 -370 OFFCURVE",
"726 -444 OFFCURVE",
"883 -444 CURVE SMOOTH",
"956 -444 OFFCURVE",
"1060 -422 OFFCURVE",
"1112 -387 CURVE SMOOTH",
"1148 -363 OFFCURVE",
"1139 -237 OFFCURVE",
"1112 -246 CURVE SMOOTH",
"1071 -260 OFFCURVE",
"1051 -265 OFFCURVE",
"1013 -265 CURVE SMOOTH",
"905 -265 OFFCURVE",
"864 -234 OFFCURVE",
"864 -184 CURVE SMOOTH",
"864 -116 OFFCURVE",
"956 -39 OFFCURVE",
"1071 0 CURVE",
"976 32 LINE"
);
}
);
width = 1707;
}
);
leftKerningGroup = U;
rightKerningGroup = U;
unicode = 0172;
},
{
color = 10;
glyphname = V;
lastChange = "2018-07-13 05:37:57 +0000";
layers = (
{
anchors = (
{
name = bottom;
position = "{689, 0}";
},
{
name = top;
position = "{689, 1419}";
}
);
layerId = "DD6F9F34-BC40-4E8F-B1D3-DF3B42A9710F";
paths = (
{
closed = 1;
nodes = (
"767 -18 LINE",
"1232 1254 LINE SMOOTH",
"1265 1342 OFFCURVE",
"1344 1326 OFFCURVE",
"1393 1331 CURVE SMOOTH",
"1421 1334 OFFCURVE",
"1429 1338 OFFCURVE",
"1429 1368 CURVE SMOOTH",
"1429 1383 OFFCURVE",
"1417 1419 OFFCURVE",
"1395 1419 CURVE SMOOTH",
"940 1419 LINE SMOOTH",
"917 1419 OFFCURVE",
"906 1383 OFFCURVE",
"906 1368 CURVE SMOOTH",
"906 1347 OFFCURVE",
"913 1334 OFFCURVE",
"939 1331 CURVE",
"1030 1326 OFFCURVE",
"1113 1304 OFFCURVE",
"1097 1257 CURVE SMOOTH",
"750 232 LINE",
"384 1287 LINE SMOOTH",
"367 1334 OFFCURVE",
"431 1326 OFFCURVE",
"522 1331 CURVE",
"548 1334 OFFCURVE",
"555 1347 OFFCURVE",
"555 1368 CURVE SMOOTH",
"555 1383 OFFCURVE",
"544 1419 OFFCURVE",
"521 1419 CURVE SMOOTH",
"-4 1419 LINE SMOOTH",
"-26 1419 OFFCURVE",
"-38 1383 OFFCURVE",
"-38 1368 CURVE SMOOTH",
"-38 1338 OFFCURVE",
"-30 1334 OFFCURVE",
"-2 1331 CURVE SMOOTH",
"47 1326 OFFCURVE",
"126 1342 OFFCURVE",
"159 1254 CURVE SMOOTH",
"644 -18 LINE"
);
}
);
width = 1365;
},
{
anchors = (
{
name = bottom;
position = "{774, 0}";
},
{
name = top;
position = "{774, 1419}";
}
);
layerId = "62CA62AF-CD91-478A-AB8B-28A62CC47DA0";
paths = (
{
closed = 1;
nodes = (
"877 -18 LINE",
"1397 1254 LINE SMOOTH",
"1418 1306 OFFCURVE",
"1449 1326 OFFCURVE",
"1568 1331 CURVE SMOOTH",
"1596 1332 OFFCURVE",
"1604 1338 OFFCURVE",
"1604 1368 CURVE SMOOTH",
"1604 1383 OFFCURVE",
"1592 1419 OFFCURVE",
"1570 1419 CURVE SMOOTH",
"1105 1419 LINE SMOOTH",
"1082 1419 OFFCURVE",
"1071 1383 OFFCURVE",
"1071 1368 CURVE SMOOTH",
"1071 1347 OFFCURVE",
"1078 1334 OFFCURVE",
"1104 1331 CURVE",
"1195 1326 OFFCURVE",
"1278 1304 OFFCURVE",
"1262 1257 CURVE",
"912 347 LINE",
"509 1287 LINE",
"492 1334 OFFCURVE",
"556 1326 OFFCURVE",
"647 1331 CURVE",
"673 1334 OFFCURVE",
"680 1347 OFFCURVE",
"680 1368 CURVE SMOOTH",
"680 1383 OFFCURVE",
"669 1419 OFFCURVE",
"646 1419 CURVE SMOOTH",
"-9 1419 LINE SMOOTH",
"-31 1419 OFFCURVE",
"-43 1383 OFFCURVE",
"-43 1368 CURVE SMOOTH",
"-43 1338 OFFCURVE",
"-35 1334 OFFCURVE",
"-7 1331 CURVE SMOOTH",
"42 1326 OFFCURVE",
"121 1342 OFFCURVE",
"154 1254 CURVE",
"754 -18 LINE {name = hr00;}"
);
}
);
width = 1561;
}
);
leftKerningGroup = V;
rightKerningGroup = V;
unicode = 0056;
},
{
color = 10;
glyphname = W;
lastChange = "2018-07-13 05:37:57 +0000";
layers = (
{
anchors = (
{
name = bottom;
position = "{1009, 0}";
},
{
name = top;
position = "{1059, 1419}";
}
);
layerId = "DD6F9F34-BC40-4E8F-B1D3-DF3B42A9710F";
paths = (
{
closed = 1;
nodes = (
"675 -18 LINE",
"1001 1046 LINE",
"1355 -18 LINE",
"1478 -18 LINE",
"1851 1254 LINE SMOOTH",
"1878 1344 OFFCURVE",
"1953 1326 OFFCURVE",
"2002 1331 CURVE SMOOTH",
"2030 1334 OFFCURVE",
"2038 1338 OFFCURVE",
"2038 1368 CURVE SMOOTH",
"2038 1383 OFFCURVE",
"2026 1419 OFFCURVE",
"2004 1419 CURVE SMOOTH",
"1559 1419 LINE SMOOTH",
"1536 1419 OFFCURVE",
"1525 1383 OFFCURVE",
"1525 1368 CURVE SMOOTH",
"1525 1347 OFFCURVE",
"1532 1334 OFFCURVE",
"1558 1331 CURVE",
"1649 1326 OFFCURVE",
"1746 1335 OFFCURVE",
"1733 1287 CURVE SMOOTH",
"1464 282 LINE",
"1109 1399 LINE",
"1001 1399 LINE",
"664 286 LINE",
"388 1287 LINE",
"371 1334 OFFCURVE",
"455 1326 OFFCURVE",
"546 1331 CURVE",
"572 1334 OFFCURVE",
"579 1347 OFFCURVE",
"579 1368 CURVE SMOOTH",
"579 1383 OFFCURVE",
"568 1419 OFFCURVE",
"545 1419 CURVE SMOOTH",
"30 1419 LINE SMOOTH",
"8 1419 OFFCURVE",
"-4 1383 OFFCURVE",
"-4 1368 CURVE SMOOTH",
"-4 1338 OFFCURVE",
"4 1334 OFFCURVE",
"32 1331 CURVE SMOOTH",
"81 1326 OFFCURVE",
"150 1342 OFFCURVE",
"183 1254 CURVE",
"552 -18 LINE"
);
}
);
width = 1998;
},
{
anchors = (
{
name = bottom;
position = "{1154, 0}";
},
{
name = top;
position = "{1243, 1419}";
}
);
layerId = "62CA62AF-CD91-478A-AB8B-28A62CC47DA0";
paths = (
{
closed = 1;
nodes = (
"784 -18 LINE",
"1123 987 LINE",
"1535 -18 LINE",
"1658 -18 LINE",
"2108 1180 LINE SMOOTH",
"2140 1269 OFFCURVE",
"2165 1331 OFFCURVE",
"2306 1331 CURVE SMOOTH",
"2334 1331 OFFCURVE",
"2342 1338 OFFCURVE",
"2342 1368 CURVE SMOOTH",
"2342 1383 OFFCURVE",
"2330 1419 OFFCURVE",
"2308 1419 CURVE SMOOTH",
"1823 1419 LINE SMOOTH",
"1800 1419 OFFCURVE",
"1789 1383 OFFCURVE",
"1789 1368 CURVE SMOOTH",
"1789 1347 OFFCURVE",
"1796 1334 OFFCURVE",
"1822 1331 CURVE",
"2005 1331 OFFCURVE",
"2018 1280 OFFCURVE",
"2001 1233 CURVE SMOOTH",
"1709 448 LINE",
"1324 1389 LINE",
"1150 1389 LINE",
"825 418 LINE",
"510 1230 LINE SMOOTH",
"493 1277 OFFCURVE",
"509 1331 OFFCURVE",
"651 1331 CURVE",
"677 1334 OFFCURVE",
"684 1347 OFFCURVE",
"684 1368 CURVE SMOOTH",
"684 1383 OFFCURVE",
"673 1419 OFFCURVE",
"650 1419 CURVE SMOOTH",
"-1 1419 LINE SMOOTH",
"-23 1419 OFFCURVE",
"-35 1383 OFFCURVE",
"-35 1368 CURVE SMOOTH",
"-35 1338 OFFCURVE",
"-27 1335 OFFCURVE",
"2 1331 CURVE SMOOTH",
"94 1317 OFFCURVE",
"125 1293 OFFCURVE",
"159 1205 CURVE SMOOTH",
"661 -18 LINE {name = hr00;}"
);
}
);
width = 2307;
}
);
leftKerningGroup = W;
rightKerningGroup = W;
unicode = 0057;
},
{
color = 10;
glyphname = X;
lastChange = "2018-07-13 05:37:57 +0000";
layers = (
{
anchors = (
{
name = bottom;
position = "{687, 0}";
},
{
name = top;
position = "{687, 1419}";
}
);
layerId = "DD6F9F34-BC40-4E8F-B1D3-DF3B42A9710F";
paths = (
{
closed = 1;
nodes = (
"482 0 LINE SMOOTH",
"505 0 OFFCURVE",
"516 36 OFFCURVE",
"516 51 CURVE SMOOTH",
"516 72 OFFCURVE",
"509 85 OFFCURVE",
"483 88 CURVE",
"412 92 OFFCURVE",
"376 110 OFFCURVE",
"376 137 CURVE SMOOTH",
"376 144 OFFCURVE",
"379 153 OFFCURVE",
"385 162 CURVE",
"651 605 LINE",
"948 132 LINE SMOOTH",
"951 127 OFFCURVE",
"953 123 OFFCURVE",
"953 119 CURVE SMOOTH",
"953 91 OFFCURVE",
"870 92 OFFCURVE",
"790 88 CURVE",
"764 85 OFFCURVE",
"757 72 OFFCURVE",
"757 51 CURVE SMOOTH",
"757 36 OFFCURVE",
"768 0 OFFCURVE",
"791 0 CURVE SMOOTH",
"1336 0 LINE SMOOTH",
"1358 0 OFFCURVE",
"1370 36 OFFCURVE",
"1370 51 CURVE SMOOTH",
"1370 81 OFFCURVE",
"1362 85 OFFCURVE",
"1334 88 CURVE SMOOTH",
"1285 93 OFFCURVE",
"1204 86 OFFCURVE",
"1153 165 CURVE SMOOTH",
"770 766 LINE",
"1113 1254 LINE SMOOTH",
"1169 1330 OFFCURVE",
"1265 1326 OFFCURVE",
"1314 1331 CURVE SMOOTH",
"1342 1334 OFFCURVE",
"1350 1338 OFFCURVE",
"1350 1368 CURVE SMOOTH",
"1350 1383 OFFCURVE",
"1338 1419 OFFCURVE",
"1316 1419 CURVE SMOOTH",
"861 1419 LINE SMOOTH",
"838 1419 OFFCURVE",
"827 1383 OFFCURVE",
"827 1368 CURVE SMOOTH",
"827 1347 OFFCURVE",
"834 1334 OFFCURVE",
"860 1331 CURVE",
"935 1327 OFFCURVE",
"985 1307 OFFCURVE",
"985 1278 CURVE SMOOTH",
"985 1271 OFFCURVE",
"983 1264 OFFCURVE",
"978 1257 CURVE SMOOTH",
"717 851 LINE",
"445 1287 LINE SMOOTH",
"442 1292 OFFCURVE",
"440 1297 OFFCURVE",
"440 1301 CURVE SMOOTH",
"440 1328 OFFCURVE",
"514 1327 OFFCURVE",
"593 1331 CURVE",
"619 1334 OFFCURVE",
"626 1347 OFFCURVE",
"626 1368 CURVE SMOOTH",
"626 1383 OFFCURVE",
"615 1419 OFFCURVE",
"592 1419 CURVE SMOOTH",
"67 1419 LINE SMOOTH",
"45 1419 OFFCURVE",
"33 1383 OFFCURVE",
"33 1368 CURVE SMOOTH",
"33 1338 OFFCURVE",
"41 1334 OFFCURVE",
"69 1331 CURVE SMOOTH",
"118 1326 OFFCURVE",
"189 1333 OFFCURVE",
"240 1254 CURVE SMOOTH",
"599 686 LINE",
"250 165 LINE SMOOTH",
"196 88 OFFCURVE",
"98 93 OFFCURVE",
"49 88 CURVE SMOOTH",
"21 85 OFFCURVE",
"13 81 OFFCURVE",
"13 51 CURVE SMOOTH",
"13 36 OFFCURVE",
"25 0 OFFCURVE",
"47 0 CURVE SMOOTH"
);
}
);
width = 1455;
},
{
anchors = (
{
name = bottom;
position = "{817, 0}";
},
{
name = top;
position = "{817, 1419}";
}
);
layerId = "62CA62AF-CD91-478A-AB8B-28A62CC47DA0";
paths = (
{
closed = 1;
nodes = (
"546 0 LINE SMOOTH",
"569 0 OFFCURVE",
"580 36 OFFCURVE",
"580 51 CURVE SMOOTH",
"580 72 OFFCURVE",
"573 85 OFFCURVE",
"547 88 CURVE",
"469 92 OFFCURVE",
"403 113 OFFCURVE",
"403 145 CURVE SMOOTH",
"403 150 OFFCURVE",
"405 156 OFFCURVE",
"409 162 CURVE SMOOTH",
"730 580 LINE",
"1034 170 LINE",
"1049 148 OFFCURVE",
"1058 133 OFFCURVE",
"1058 119 CURVE SMOOTH",
"1058 97 OFFCURVE",
"993 85 OFFCURVE",
"902 88 CURVE",
"876 85 OFFCURVE",
"869 72 OFFCURVE",
"869 51 CURVE SMOOTH",
"869 36 OFFCURVE",
"880 0 OFFCURVE",
"903 0 CURVE SMOOTH",
"1608 0 LINE SMOOTH",
"1630 0 OFFCURVE",
"1642 36 OFFCURVE",
"1642 51 CURVE SMOOTH",
"1642 81 OFFCURVE",
"1634 85 OFFCURVE",
"1606 88 CURVE SMOOTH",
"1557 93 OFFCURVE",
"1476 86 OFFCURVE",
"1425 165 CURVE",
"957 786 LINE",
"1345 1254 LINE",
"1402 1330 OFFCURVE",
"1478 1326 OFFCURVE",
"1526 1331 CURVE SMOOTH",
"1554 1334 OFFCURVE",
"1562 1338 OFFCURVE",
"1562 1368 CURVE SMOOTH",
"1562 1383 OFFCURVE",
"1550 1419 OFFCURVE",
"1528 1419 CURVE SMOOTH",
"1073 1419 LINE SMOOTH",
"1050 1419 OFFCURVE",
"1039 1383 OFFCURVE",
"1039 1368 CURVE SMOOTH",
"1039 1347 OFFCURVE",
"1046 1334 OFFCURVE",
"1072 1331 CURVE",
"1144 1327 OFFCURVE",
"1197 1307 OFFCURVE",
"1197 1277 CURVE SMOOTH",
"1197 1271 OFFCURVE",
"1195 1264 OFFCURVE",
"1190 1257 CURVE SMOOTH",
"897 871 LINE",
"603 1277 LINE SMOOTH",
"600 1282 OFFCURVE",
"598 1286 OFFCURVE",
"598 1290 CURVE SMOOTH",
"598 1318 OFFCURVE",
"627 1325 OFFCURVE",
"745 1331 CURVE",
"771 1334 OFFCURVE",
"778 1347 OFFCURVE",
"778 1368 CURVE SMOOTH",
"778 1383 OFFCURVE",
"767 1419 OFFCURVE",
"744 1419 CURVE SMOOTH",
"49 1419 LINE SMOOTH",
"27 1419 OFFCURVE",
"15 1383 OFFCURVE",
"15 1368 CURVE SMOOTH",
"15 1338 OFFCURVE",
"23 1334 OFFCURVE",
"51 1331 CURVE SMOOTH",
"100 1326 OFFCURVE",
"171 1333 OFFCURVE",
"222 1254 CURVE",
"673 657 LINE",
"252 165 LINE SMOOTH",
"196 99 OFFCURVE",
"120 93 OFFCURVE",
"71 88 CURVE SMOOTH",
"43 85 OFFCURVE",
"35 81 OFFCURVE",
"35 51 CURVE SMOOTH {name = hr00;}",
"35 36 OFFCURVE",
"47 0 OFFCURVE",
"69 0 CURVE SMOOTH"
);
}
);
width = 1656;
}
);
leftKerningGroup = X;
rightKerningGroup = X;
unicode = 0058;
},
{
color = 10;
glyphname = Y;
lastChange = "2018-07-13 05:37:57 +0000";
layers = (
{
anchors = (
{
name = bottom;
position = "{620, 0}";
},
{
name = top;
position = "{644, 1419}";
},
{
name = topleft;
position = "{10, 1419}";
}
);
layerId = "DD6F9F34-BC40-4E8F-B1D3-DF3B42A9710F";
paths = (
{
closed = 1;
nodes = (
"925 0 LINE SMOOTH",
"947 0 OFFCURVE",
"959 36 OFFCURVE",
"959 51 CURVE SMOOTH",
"959 81 OFFCURVE",
"941 85 OFFCURVE",
"913 88 CURVE SMOOTH",
"846 95 OFFCURVE",
"741 79 OFFCURVE",
"741 165 CURVE SMOOTH",
"741 567 LINE",
"1116 1254 LINE SMOOTH",
"1161 1336 OFFCURVE",
"1218 1336 OFFCURVE",
"1267 1341 CURVE SMOOTH",
"1295 1344 OFFCURVE",
"1303 1348 OFFCURVE",
"1303 1378 CURVE SMOOTH",
"1303 1393 OFFCURVE",
"1291 1419 OFFCURVE",
"1269 1419 CURVE SMOOTH",
"854 1419 LINE SMOOTH",
"831 1419 OFFCURVE",
"820 1393 OFFCURVE",
"820 1378 CURVE SMOOTH",
"820 1357 OFFCURVE",
"827 1344 OFFCURVE",
"853 1341 CURVE",
"931 1337 OFFCURVE",
"1001 1332 OFFCURVE",
"1005 1303 CURVE SMOOTH",
"1005 1299 OFFCURVE",
"1004 1293 OFFCURVE",
"1001 1287 CURVE SMOOTH",
"659 599 LINE",
"699 599 LINE",
"358 1287 LINE SMOOTH",
"355 1293 OFFCURVE",
"354 1298 OFFCURVE",
"354 1302 CURVE SMOOTH",
"356 1333 OFFCURVE",
"427 1337 OFFCURVE",
"506 1341 CURVE",
"532 1344 OFFCURVE",
"539 1357 OFFCURVE",
"539 1378 CURVE SMOOTH",
"539 1393 OFFCURVE",
"528 1419 OFFCURVE",
"505 1419 CURVE SMOOTH",
"-10 1419 LINE SMOOTH",
"-32 1419 OFFCURVE",
"-44 1393 OFFCURVE",
"-44 1378 CURVE SMOOTH",
"-44 1348 OFFCURVE",
"-36 1344 OFFCURVE",
"-8 1341 CURVE SMOOTH",
"41 1336 OFFCURVE",
"98 1337 OFFCURVE",
"143 1254 CURVE SMOOTH",
"534 534 LINE",
"534 152 LINE SMOOTH",
"534 81 OFFCURVE",
"436 93 OFFCURVE",
"369 88 CURVE",
"344 85 OFFCURVE",
"326 72 OFFCURVE",
"326 51 CURVE SMOOTH",
"326 36 OFFCURVE",
"337 0 OFFCURVE",
"360 0 CURVE SMOOTH"
);
}
);
width = 1260;
},
{
anchors = (
{
name = bottom;
position = "{755, 0}";
},
{
name = top;
position = "{829, 1419}";
},
{
name = topleft;
position = "{25, 1419}";
}
);
layerId = "62CA62AF-CD91-478A-AB8B-28A62CC47DA0";
paths = (
{
closed = 1;
nodes = (
"1125 0 LINE SMOOTH",
"1147 0 OFFCURVE",
"1159 36 OFFCURVE",
"1159 51 CURVE SMOOTH",
"1159 81 OFFCURVE",
"1141 85 OFFCURVE",
"1113 88 CURVE",
"1046 93 OFFCURVE",
"941 79 OFFCURVE",
"941 165 CURVE SMOOTH",
"941 535 LINE",
"1346 1254 LINE SMOOTH",
"1391 1335 OFFCURVE",
"1447 1336 OFFCURVE",
"1497 1341 CURVE SMOOTH",
"1525 1344 OFFCURVE",
"1533 1348 OFFCURVE",
"1533 1378 CURVE SMOOTH",
"1533 1393 OFFCURVE",
"1521 1419 OFFCURVE",
"1499 1419 CURVE SMOOTH",
"1084 1419 LINE SMOOTH",
"1061 1419 OFFCURVE",
"1050 1393 OFFCURVE",
"1050 1378 CURVE SMOOTH",
"1050 1357 OFFCURVE",
"1057 1343 OFFCURVE",
"1083 1341 CURVE SMOOTH",
"1177 1333 OFFCURVE",
"1234 1324 OFFCURVE",
"1234 1299 CURVE SMOOTH",
"1234 1295 OFFCURVE",
"1232 1288 OFFCURVE",
"1226 1277 CURVE SMOOTH",
"862 619 LINE",
"905 618 LINE",
"558 1287 LINE SMOOTH",
"556 1291 OFFCURVE",
"553 1297 OFFCURVE",
"553 1301 CURVE SMOOTH",
"553 1334 OFFCURVE",
"602 1334 OFFCURVE",
"706 1341 CURVE",
"732 1344 OFFCURVE",
"739 1357 OFFCURVE",
"739 1378 CURVE SMOOTH",
"739 1393 OFFCURVE",
"728 1419 OFFCURVE",
"705 1419 CURVE SMOOTH",
"0 1419 LINE SMOOTH",
"-22 1419 OFFCURVE",
"-34 1393 OFFCURVE",
"-34 1378 CURVE SMOOTH",
"-34 1348 OFFCURVE",
"-26 1344 OFFCURVE",
"2 1341 CURVE SMOOTH",
"51 1336 OFFCURVE",
"103 1334 OFFCURVE",
"153 1254 CURVE SMOOTH",
"604 525 LINE",
"604 152 LINE SMOOTH",
"604 81 OFFCURVE",
"506 93 OFFCURVE",
"439 88 CURVE",
"414 85 OFFCURVE",
"396 72 OFFCURVE",
"396 51 CURVE SMOOTH {name = hr00;}",
"396 36 OFFCURVE",
"407 0 OFFCURVE",
"430 0 CURVE SMOOTH"
);
}
);
width = 1499;
}
);
leftKerningGroup = Y;
rightKerningGroup = Y;
unicode = 0059;
},
{
color = 4;
glyphname = Z;
lastChange = "2018-07-12 15:53:51 +0000";
layers = (
{
anchors = (
{
name = bottom;
position = "{583, 0}";
},
{
name = top;
position = "{583, 1419}";
}
);
layerId = "DD6F9F34-BC40-4E8F-B1D3-DF3B42A9710F";
paths = (
{
closed = 1;
nodes = (
"1046 0 LINE",
"1066 1 OFFCURVE",
"1081 14 OFFCURVE",
"1093 41 CURVE",
"1143 429 LINE SMOOTH",
"1143 452 OFFCURVE",
"1117 463 OFFCURVE",
"1102 463 CURVE SMOOTH",
"1081 463 OFFCURVE",
"1068 456 OFFCURVE",
"1065 430 CURVE SMOOTH",
"1060 381 OFFCURVE",
"895 83 OFFCURVE",
"807 83 CURVE SMOOTH",
"202 83 LINE",
"261 26 LINE",
"404 248 LINE",
"1103 1340 LINE SMOOTH",
"1109 1350 OFFCURVE",
"1113 1357 OFFCURVE",
"1113 1368 CURVE SMOOTH",
"1113 1395 LINE SMOOTH",
"1113 1414 OFFCURVE",
"1105 1419 OFFCURVE",
"1089 1419 CURVE SMOOTH",
"157 1419 LINE",
"137 1418 OFFCURVE",
"122 1405 OFFCURVE",
"110 1378 CURVE",
"81 1020 LINE SMOOTH",
"81 997 OFFCURVE",
"97 986 OFFCURVE",
"112 986 CURVE SMOOTH",
"133 986 OFFCURVE",
"146 993 OFFCURVE",
"149 1019 CURVE SMOOTH",
"154 1068 OFFCURVE",
"268 1336 OFFCURVE",
"356 1336 CURVE SMOOTH",
"918 1336 LINE",
"862 1367 LINE",
"756 1201 LINE",
"69 123 LINE SMOOTH",
"33 69 OFFCURVE",
"27 53 OFFCURVE",
"27 40 CURVE SMOOTH",
"27 24 LINE SMOOTH",
"27 5 OFFCURVE",
"35 0 OFFCURVE",
"51 0 CURVE SMOOTH"
);
}
);
width = 1232;
},
{
anchors = (
{
name = bottom;
position = "{650, 0}";
},
{
name = top;
position = "{650, 1419}";
}
);
layerId = "62CA62AF-CD91-478A-AB8B-28A62CC47DA0";
paths = (
{
closed = 1;
nodes = (
"1186 0 LINE",
"1206 1 OFFCURVE",
"1221 14 OFFCURVE",
"1233 41 CURVE",
"1283 429 LINE",
"1283 452 OFFCURVE",
"1227 463 OFFCURVE",
"1212 463 CURVE SMOOTH",
"1191 463 OFFCURVE",
"1178 456 OFFCURVE",
"1175 430 CURVE",
"1127 254 OFFCURVE",
"1006 83 OFFCURVE",
"917 83 CURVE SMOOTH",
"378 83 LINE",
"396 47 LINE",
"521 214 LINE",
"1243 1340 LINE SMOOTH",
"1249 1350 OFFCURVE",
"1253 1366 OFFCURVE",
"1253 1377 CURVE SMOOTH",
"1253 1393 LINE SMOOTH",
"1253 1412 OFFCURVE",
"1234 1419 OFFCURVE",
"1219 1419 CURVE SMOOTH",
"157 1419 LINE",
"137 1418 OFFCURVE",
"122 1405 OFFCURVE",
"110 1378 CURVE",
"81 1020 LINE",
"81 997 OFFCURVE",
"127 986 OFFCURVE",
"142 986 CURVE SMOOTH",
"163 986 OFFCURVE",
"173 994 OFFCURVE",
"179 1019 CURVE SMOOTH",
"216 1165 OFFCURVE",
"298 1336 OFFCURVE",
"386 1336 CURVE SMOOTH",
"893 1336 LINE",
"875 1372 LINE",
"749 1205 LINE",
"59 123 LINE",
"23 69 OFFCURVE",
"17 49 OFFCURVE",
"17 36 CURVE SMOOTH",
"17 30 LINE SMOOTH {name = hr00;}",
"17 21 OFFCURVE",
"21 0 OFFCURVE",
"51 0 CURVE SMOOTH"
);
}
);
width = 1412;
}
);
leftKerningGroup = Z;
rightKerningGroup = Z;
unicode = 005A;
},
{
color = 9;
glyphname = a;
lastChange = "2018-07-14 03:02:47 +0000";
layers = (
{
anchors = (
{
name = bottom;
position = "{497, 0}";
},
{
name = ogonek;
position = "{910, 10}";
},
{
name = top;
position = "{497, 994}";
}
);
background = {
paths = (
{
closed = 1;
nodes = (
"905 -25 OFFCURVE",
"981 22 OFFCURVE",
"994 37 CURVE",
"1010 50 OFFCURVE",
"991 105 OFFCURVE",
"960 96 CURVE SMOOTH",
"936 89 OFFCURVE",
"921 88 OFFCURVE",
"902 88 CURVE SMOOTH",
"880 88 OFFCURVE",
"864 140 OFFCURVE",
"864 210 CURVE SMOOTH",
"864 736 LINE SMOOTH",
"864 895 OFFCURVE",
"762 1014 OFFCURVE",
"520 1014 CURVE SMOOTH",
"434 1014 OFFCURVE",
"292 997 OFFCURVE",
"196 909 CURVE SMOOTH",
"77 799 OFFCURVE",
"148 665 OFFCURVE",
"203 665 CURVE SMOOTH",
"243 665 OFFCURVE",
"270 678 OFFCURVE",
"284 702 CURVE SMOOTH",
"309 744 OFFCURVE",
"359 877 OFFCURVE",
"378 907 CURVE",
"378 907 OFFCURVE",
"430 928 OFFCURVE",
"487 924 CURVE SMOOTH",
"617 914 OFFCURVE",
"677 860 OFFCURVE",
"677 753 CURVE SMOOTH",
"677 599 LINE",
"648 561 OFFCURVE",
"649 549 OFFCURVE",
"676 528 CURVE",
"676 162 LINE",
"678 149 OFFCURVE",
"695 125 OFFCURVE",
"695 109 CURVE",
"694 87 OFFCURVE",
"684 -25 OFFCURVE",
"797 -25 CURVE SMOOTH"
);
},
{
closed = 1;
nodes = (
"102 48 OFFCURVE",
"259 -24 OFFCURVE",
"371 -24 CURVE SMOOTH",
"539 -24 OFFCURVE",
"656 40 OFFCURVE",
"741 170 CURVE",
"707 219 LINE",
"707 219 OFFCURVE",
"648 90 OFFCURVE",
"443 90 CURVE SMOOTH",
"355 90 OFFCURVE",
"308 175 OFFCURVE",
"308 252 CURVE SMOOTH",
"308 464 OFFCURVE",
"496 509 OFFCURVE",
"676 528 CURVE",
"677 599 LINE",
"413 571 OFFCURVE",
"92 509 OFFCURVE",
"98 235 CURVE SMOOTH"
);
}
);
};
layerId = "DD6F9F34-BC40-4E8F-B1D3-DF3B42A9710F";
paths = (
{
closed = 1;
nodes = (
"93 48 OFFCURVE",
"249 -21 OFFCURVE",
"369 -21 CURVE SMOOTH",
"509 -21 OFFCURVE",
"598 18 OFFCURVE",
"685 109 CURVE",
"685 99 LINE SMOOTH",
"685 -28 OFFCURVE",
"757 -19 OFFCURVE",
"809 -19 CURVE SMOOTH",
"870 -19 OFFCURVE",
"952 13 OFFCURVE",
"984 43 CURVE",
"1000 56 OFFCURVE",
"981 111 OFFCURVE",
"950 102 CURVE SMOOTH",
"926 95 OFFCURVE",
"911 94 OFFCURVE",
"892 94 CURVE SMOOTH",
"870 94 OFFCURVE",
"854 149 OFFCURVE",
"854 201 CURVE SMOOTH",
"854 689 LINE SMOOTH",
"854 848 OFFCURVE",
"811 1014 OFFCURVE",
"510 1014 CURVE SMOOTH",
"280 1014 OFFCURVE",
"121 900 OFFCURVE",
"121 781 CURVE SMOOTH",
"121 703 OFFCURVE",
"163 665 OFFCURVE",
"202 665 CURVE SMOOTH",
"243 665 OFFCURVE",
"261 684 OFFCURVE",
"279 712 CURVE SMOOTH",
"304 751 OFFCURVE",
"349 877 OFFCURVE",
"368 907 CURVE",
"368 907 OFFCURVE",
"404 924 OFFCURVE",
"466 924 CURVE SMOOTH",
"625 924 OFFCURVE",
"667 827 OFFCURVE",
"667 753 CURVE SMOOTH",
"667 728 OFFCURVE",
"667 677 OFFCURVE",
"667 599 CURVE",
"396 571 OFFCURVE",
"83 507 OFFCURVE",
"89 235 CURVE SMOOTH {name = hr00;}"
);
},
{
closed = 1;
nodes = (
"298 456 OFFCURVE",
"442 495 OFFCURVE",
"666 528 CURVE",
"666 176 LINE",
"626 136 OFFCURVE",
"551 90 OFFCURVE",
"441 90 CURVE SMOOTH",
"353 90 OFFCURVE",
"298 164 OFFCURVE",
"298 248 CURVE SMOOTH"
);
}
);
width = 1032;
},
{
anchors = (
{
name = bottom;
position = "{609, 0}";
},
{
name = ogonek;
position = "{1097, 10}";
},
{
name = top;
position = "{609, 994}";
}
);
layerId = "62CA62AF-CD91-478A-AB8B-28A62CC47DA0";
paths = (
{
closed = 1;
nodes = (
"101 48 OFFCURVE",
"275 -24 OFFCURVE",
"395 -24 CURVE SMOOTH",
"535 -24 OFFCURVE",
"660 21 OFFCURVE",
"747 112 CURVE",
"747 109 LINE SMOOTH",
"747 87 OFFCURVE",
"731 -25 OFFCURVE",
"899 -25 CURVE SMOOTH",
"1062 -25 OFFCURVE",
"1164 22 OFFCURVE",
"1186 37 CURVE",
"1202 50 OFFCURVE",
"1183 118 OFFCURVE",
"1152 109 CURVE SMOOTH",
"1128 102 OFFCURVE",
"1113 101 OFFCURVE",
"1094 101 CURVE SMOOTH",
"1072 101 OFFCURVE",
"1056 141 OFFCURVE",
"1056 193 CURVE SMOOTH",
"1056 736 LINE SMOOTH",
"1056 895 OFFCURVE",
"927 1014 OFFCURVE",
"622 1014 CURVE SMOOTH",
"470 1014 OFFCURVE",
"147 944 OFFCURVE",
"147 781 CURVE SMOOTH",
"147 703 OFFCURVE",
"215 645 OFFCURVE",
"284 645 CURVE SMOOTH",
"328 645 OFFCURVE",
"344 674 OFFCURVE",
"362 702 CURVE SMOOTH",
"387 741 OFFCURVE",
"443 870 OFFCURVE",
"462 900 CURVE",
"462 900 OFFCURVE",
"494 919 OFFCURVE",
"579 919 CURVE SMOOTH",
"668 919 OFFCURVE",
"729 890 OFFCURVE",
"729 763 CURVE SMOOTH",
"729 738 OFFCURVE",
"728 676 OFFCURVE",
"728 598 CURVE",
"457 570 OFFCURVE",
"91 507 OFFCURVE",
"97 235 CURVE SMOOTH {name = hr00;}"
);
},
{
closed = 1;
nodes = (
"436 460 OFFCURVE",
"593 498 OFFCURVE",
"728 518 CURVE",
"728 196 LINE",
"702 164 OFFCURVE",
"652 120 OFFCURVE",
"567 120 CURVE SMOOTH",
"479 120 OFFCURVE",
"436 185 OFFCURVE",
"436 252 CURVE SMOOTH"
);
}
);
width = 1220;
}
);
leftKerningGroup = a;
rightKerningGroup = n;
unicode = 0061;
},
{
color = 9;
glyphname = aogonek;
lastChange = "2018-07-14 03:02:57 +0000";
layers = (
{
components = (
{
name = a;
}
);
layerId = "DD6F9F34-BC40-4E8F-B1D3-DF3B42A9710F";
paths = (
{
closed = 1;
nodes = (
"797 30 LINE",
"645 -6 OFFCURVE",
"532 -89 OFFCURVE",
"532 -194 CURVE SMOOTH",
"532 -299 OFFCURVE",
"621 -370 OFFCURVE",
"751 -370 CURVE SMOOTH",
"811 -370 OFFCURVE",
"897 -352 OFFCURVE",
"940 -323 CURVE SMOOTH",
"970 -303 OFFCURVE",
"964 -239 OFFCURVE",
"940 -243 CURVE SMOOTH",
"906 -249 OFFCURVE",
"890 -259 OFFCURVE",
"858 -259 CURVE SMOOTH",
"769 -259 OFFCURVE",
"718 -221 OFFCURVE",
"718 -160 CURVE SMOOTH",
"718 -84 OFFCURVE",
"755 -51 OFFCURVE",
"882 30 CURVE",
"853 80 LINE"
);
}
);
width = 1032;
},
{
components = (
{
name = a;
}
);
layerId = "62CA62AF-CD91-478A-AB8B-28A62CC47DA0";
paths = (
{
closed = 1;
nodes = (
"899 0 LINE",
"747 -36 OFFCURVE",
"654 -119 OFFCURVE",
"654 -224 CURVE SMOOTH",
"654 -329 OFFCURVE",
"763 -407 OFFCURVE",
"893 -407 CURVE SMOOTH",
"953 -407 OFFCURVE",
"1039 -389 OFFCURVE",
"1082 -360 CURVE SMOOTH",
"1112 -340 OFFCURVE",
"1106 -259 OFFCURVE",
"1082 -263 CURVE SMOOTH",
"1048 -269 OFFCURVE",
"1032 -279 OFFCURVE",
"1000 -279 CURVE SMOOTH",
"911 -279 OFFCURVE",
"877 -233 OFFCURVE",
"877 -172 CURVE SMOOTH",
"877 -96 OFFCURVE",
"952 -32 OFFCURVE",
"1048 0 CURVE",
"1006 49 LINE"
);
}
);
width = 1220;
}
);
leftKerningGroup = a;
rightKerningGroup = n;
unicode = 0105;
},
{
color = 4;
glyphname = ae;
lastChange = "2018-07-12 15:53:51 +0000";
layers = (
{
anchors = (
{
name = bottom;
position = "{738, 0}";
},
{
name = top;
position = "{738, 994}";
}
);
layerId = "DD6F9F34-BC40-4E8F-B1D3-DF3B42A9710F";
paths = (
{
closed = 1;
nodes = (
"502 -24 OFFCURVE",
"610 26 OFFCURVE",
"692 126 CURVE",
"765 25 OFFCURVE",
"879 -29 OFFCURVE",
"1033 -29 CURVE SMOOTH",
"1203 -29 OFFCURVE",
"1310 54 OFFCURVE",
"1367 173 CURVE SMOOTH",
"1371 181 OFFCURVE",
"1380 194 OFFCURVE",
"1362 201 CURVE",
"1312 224 LINE",
"1299 227 OFFCURVE",
"1297 216 OFFCURVE",
"1293 208 CURVE SMOOTH",
"1247 123 OFFCURVE",
"1160 75 OFFCURVE",
"1059 75 CURVE SMOOTH",
"937 75 OFFCURVE",
"803 186 OFFCURVE",
"801 503 CURVE",
"1423 503 LINE",
"1423 546 OFFCURVE",
"1421 587 OFFCURVE",
"1418 627 CURVE SMOOTH",
"1395 856 OFFCURVE",
"1300 1014 OFFCURVE",
"1031 1014 CURVE SMOOTH",
"927 1014 OFFCURVE",
"827 976 OFFCURVE",
"749 904 CURVE",
"699 971 OFFCURVE",
"615 1013 OFFCURVE",
"503 1013 CURVE SMOOTH",
"417 1013 OFFCURVE",
"278 997 OFFCURVE",
"182 909 CURVE SMOOTH",
"63 799 OFFCURVE",
"125 694 OFFCURVE",
"180 694 CURVE SMOOTH",
"237 694 OFFCURVE",
"251 701 OFFCURVE",
"274 744 CURVE SMOOTH",
"298 786 OFFCURVE",
"337 863 OFFCURVE",
"356 893 CURVE",
"356 893 OFFCURVE",
"413 923 OFFCURVE",
"470 919 CURVE",
"573 919 OFFCURVE",
"617 861 OFFCURVE",
"617 758 CURVE SMOOTH",
"617 599 LINE",
"363 568 OFFCURVE",
"75 492 OFFCURVE",
"81 235 CURVE SMOOTH",
"85 48 OFFCURVE",
"242 -24 OFFCURVE",
"354 -24 CURVE SMOOTH"
);
},
{
closed = 1;
nodes = (
"815 873 OFFCURVE",
"900 918 OFFCURVE",
"1030 918 CURVE SMOOTH",
"1132 918 OFFCURVE",
"1201 827 OFFCURVE",
"1201 595 CURVE",
"803 589 LINE"
);
},
{
closed = 1;
nodes = (
"338 90 OFFCURVE",
"291 175 OFFCURVE",
"291 252 CURVE SMOOTH",
"291 444 OFFCURVE",
"452 500 OFFCURVE",
"617 523 CURVE",
"616 141 LINE",
"575 114 OFFCURVE",
"514 90 OFFCURVE",
"426 90 CURVE SMOOTH"
);
}
);
width = 1509;
},
{
anchors = (
{
name = bottom;
position = "{876, 0}";
},
{
name = top;
position = "{876, 994}";
}
);
layerId = "62CA62AF-CD91-478A-AB8B-28A62CC47DA0";
paths = (
{
closed = 1;
nodes = (
"593 -24 OFFCURVE",
"716 35 OFFCURVE",
"805 147 CURVE",
"888 33 OFFCURVE",
"1030 -29 OFFCURVE",
"1241 -29 CURVE SMOOTH {name = hr03;}",
"1457 -29 OFFCURVE",
"1598 52 OFFCURVE",
"1665 173 CURVE SMOOTH",
"1673 188 OFFCURVE",
"1674 196 OFFCURVE",
"1661 202 CURVE SMOOTH",
"1617 223 LINE",
"1604 226 OFFCURVE",
"1597 215 OFFCURVE",
"1591 208 CURVE SMOOTH",
"1527 131 OFFCURVE",
"1442 105 OFFCURVE",
"1317 105 CURVE SMOOTH",
"1191 105 OFFCURVE",
"1038 200 OFFCURVE",
"1038 509 CURVE",
"1712 509 LINE",
"1712 564 OFFCURVE",
"1712 626 OFFCURVE",
"1703 674 CURVE SMOOTH",
"1666 885 OFFCURVE",
"1541 1014 OFFCURVE",
"1225 1014 CURVE SMOOTH",
"1105 1014 OFFCURVE",
"994 981 OFFCURVE",
"906 919 CURVE",
"836 979 OFFCURVE",
"737 1014 OFFCURVE",
"604 1014 CURVE SMOOTH",
"452 1014 OFFCURVE",
"129 944 OFFCURVE",
"129 781 CURVE SMOOTH",
"129 703 OFFCURVE",
"197 645 OFFCURVE",
"266 645 CURVE SMOOTH",
"310 645 OFFCURVE",
"326 674 OFFCURVE",
"344 702 CURVE SMOOTH",
"369 741 OFFCURVE",
"425 870 OFFCURVE",
"444 900 CURVE {name = hr04;}",
"444 900 OFFCURVE",
"476 919 OFFCURVE",
"561 919 CURVE SMOOTH",
"650 919 OFFCURVE",
"710 890 OFFCURVE",
"710 763 CURVE SMOOTH",
"710 598 LINE",
"438 570 OFFCURVE",
"73 506 OFFCURVE",
"79 235 CURVE SMOOTH {name = hr01;}",
"83 48 OFFCURVE",
"257 -24 OFFCURVE",
"377 -24 CURVE SMOOTH {name = hr02;}"
);
},
{
closed = 1;
nodes = (
"1057 838 OFFCURVE",
"1136 929 OFFCURVE",
"1222 929 CURVE SMOOTH",
"1331 929 OFFCURVE",
"1379 833 OFFCURVE",
"1379 601 CURVE",
"1041 601 LINE"
);
},
{
closed = 1;
nodes = (
"461 120 OFFCURVE",
"418 185 OFFCURVE",
"418 252 CURVE SMOOTH {name = hr06;}",
"418 460 OFFCURVE",
"574 498 OFFCURVE",
"710 518 CURVE",
"710 171 LINE",
"676 145 OFFCURVE",
"624 120 OFFCURVE",
"549 120 CURVE SMOOTH"
);
}
);
width = 1756;
}
);
leftKerningGroup = a;
rightKerningGroup = e;
unicode = 00E6;
},
{
color = 4;
glyphname = b;
lastChange = "2018-07-12 15:53:51 +0000";
layers = (
{
anchors = (
{
name = bottom;
position = "{567, 0}";
},
{
name = top;
position = "{782, 950}";
}
);
layerId = "DD6F9F34-BC40-4E8F-B1D3-DF3B42A9710F";
paths = (
{
closed = 1;
nodes = (
"234 -32 OFFCURVE",
"289 20 OFFCURVE",
"323 74 CURVE",
"379 -5 OFFCURVE",
"492 -30 OFFCURVE",
"615 -30 CURVE SMOOTH",
"924 -30 OFFCURVE",
"1065 223 OFFCURVE",
"1065 492 CURVE SMOOTH",
"1065 762 OFFCURVE",
"945 1013 OFFCURVE",
"637 1013 CURVE SMOOTH",
"537 1013 OFFCURVE",
"411 958 OFFCURVE",
"343 875 CURVE",
"353 1104 LINE",
"353 1518 LINE",
"350 1550 OFFCURVE",
"334 1558 OFFCURVE",
"323 1558 CURVE SMOOTH",
"266 1557 OFFCURVE",
"141 1556 OFFCURVE",
"8 1548 CURVE SMOOTH",
"-8 1547 OFFCURVE",
"-16 1520 OFFCURVE",
"-16 1504 CURVE SMOOTH",
"-16 1479 OFFCURVE",
"-6 1470 OFFCURVE",
"8 1464 CURVE",
"62 1450 OFFCURVE",
"167 1463 OFFCURVE",
"167 1339 CURVE SMOOTH",
"167 12 LINE SMOOTH",
"167 -17 OFFCURVE",
"174 -32 OFFCURVE",
"202 -32 CURVE SMOOTH"
);
},
{
closed = 1;
nodes = (
"467 65 OFFCURVE",
"391 99 OFFCURVE",
"353 170 CURVE",
"353 808 LINE",
"397 867 OFFCURVE",
"497 918 OFFCURVE",
"574 918 CURVE SMOOTH",
"789 918 OFFCURVE",
"858 732 OFFCURVE",
"858 492 CURVE SMOOTH",
"858 252 OFFCURVE",
"793 65 OFFCURVE",
"578 65 CURVE SMOOTH"
);
}
);
width = 1147;
},
{
anchors = (
{
name = bottom;
position = "{655, 0}";
},
{
name = top;
position = "{887, 994}";
}
);
layerId = "62CA62AF-CD91-478A-AB8B-28A62CC47DA0";
paths = (
{
closed = 1;
nodes = (
"243 -32 OFFCURVE",
"219 -23 OFFCURVE",
"321 40 CURVE",
"442 -21 OFFCURVE",
"611 -29 OFFCURVE",
"725 -29 CURVE SMOOTH",
"1069 -29 OFFCURVE",
"1235 224 OFFCURVE",
"1235 493 CURVE SMOOTH",
"1235 763 OFFCURVE",
"1116 1014 OFFCURVE",
"787 1014 CURVE SMOOTH",
"671 1014 OFFCURVE",
"527 970 OFFCURVE",
"459 877 CURVE",
"469 1015 LINE",
"469 1500 LINE",
"476 1510 OFFCURVE",
"460 1548 OFFCURVE",
"439 1548 CURVE SMOOTH",
"360 1547 OFFCURVE",
"188 1546 OFFCURVE",
"4 1538 CURVE SMOOTH",
"-12 1537 OFFCURVE",
"-20 1510 OFFCURVE",
"-20 1494 CURVE SMOOTH",
"-20 1469 OFFCURVE",
"-10 1460 OFFCURVE",
"4 1454 CURVE",
"55 1440 OFFCURVE",
"153 1453 OFFCURVE",
"153 1329 CURVE SMOOTH",
"153 25 LINE SMOOTH {name = hr00;}",
"153 -4 OFFCURVE",
"160 -32 OFFCURVE",
"188 -32 CURVE SMOOTH"
);
},
{
closed = 1;
nodes = (
"565 76 OFFCURVE",
"486 135 OFFCURVE",
"469 164 CURVE",
"469 776 LINE",
"503 838 OFFCURVE",
"583 869 OFFCURVE",
"644 869 CURVE SMOOTH",
"834 869 OFFCURVE",
"898 722 OFFCURVE",
"898 493 CURVE SMOOTH",
"898 235 OFFCURVE",
"834 76 OFFCURVE",
"628 76 CURVE SMOOTH"
);
}
);
width = 1322;
}
);
leftKerningGroup = h;
rightKerningGroup = o;
unicode = 0062;
userData = {
com.typemytype.robofont.mark = (
0.967,
0.6,
1,
1
);
};
},
{
color = 4;
glyphname = c;
lastChange = "2018-07-12 15:53:51 +0000";
layers = (
{
anchors = (
{
name = bottom;
position = "{515, 0}";
},
{
name = top;
position = "{543, 994}";
}
);
layerId = "DD6F9F34-BC40-4E8F-B1D3-DF3B42A9710F";
paths = (
{
closed = 1;
nodes = (
"685 -29 OFFCURVE",
"792 54 OFFCURVE",
"849 173 CURVE SMOOTH",
"853 181 OFFCURVE",
"862 194 OFFCURVE",
"844 201 CURVE SMOOTH",
"794 224 LINE SMOOTH",
"781 227 OFFCURVE",
"779 216 OFFCURVE",
"775 208 CURVE SMOOTH",
"729 123 OFFCURVE",
"642 75 OFFCURVE",
"541 75 CURVE SMOOTH",
"436 75 OFFCURVE",
"287 178 OFFCURVE",
"287 490 CURVE SMOOTH",
"287 815 OFFCURVE",
"397 918 OFFCURVE",
"559 918 CURVE SMOOTH",
"616 918 OFFCURVE",
"643 897 OFFCURVE",
"643 897 CURVE",
"727 710 LINE SMOOTH",
"747 666 OFFCURVE",
"770 662 OFFCURVE",
"809 662 CURVE SMOOTH",
"864 662 OFFCURVE",
"921 748 OFFCURVE",
"837 887 CURVE SMOOTH",
"775 989 OFFCURVE",
"658 1014 OFFCURVE",
"544 1014 CURVE SMOOTH",
"278 1014 OFFCURVE",
"72 834 OFFCURVE",
"72 500 CURVE SMOOTH",
"72 176 OFFCURVE",
"223 -29 OFFCURVE",
"515 -29 CURVE SMOOTH"
);
}
);
width = 930;
},
{
anchors = (
{
name = bottom;
position = "{636, 0}";
},
{
name = top;
position = "{663, 994}";
}
);
layerId = "62CA62AF-CD91-478A-AB8B-28A62CC47DA0";
paths = (
{
closed = 1;
nodes = (
"788 -29 OFFCURVE",
"965 52 OFFCURVE",
"1028 173 CURVE SMOOTH",
"1036 188 OFFCURVE",
"1037 196 OFFCURVE",
"1024 202 CURVE",
"980 223 LINE",
"967 226 OFFCURVE",
"960 215 OFFCURVE",
"954 208 CURVE SMOOTH",
"894 141 OFFCURVE",
"805 105 OFFCURVE",
"690 105 CURVE SMOOTH",
"563 105 OFFCURVE",
"416 224 OFFCURVE",
"416 490 CURVE SMOOTH",
"416 825 OFFCURVE",
"514 929 OFFCURVE",
"625 929 CURVE SMOOTH",
"703 929 OFFCURVE",
"695 912 OFFCURVE",
"695 912 CURVE",
"812 670 LINE SMOOTH",
"823 646 OFFCURVE",
"863 613 OFFCURVE",
"909 613 CURVE SMOOTH",
"964 613 OFFCURVE",
"1083 670 OFFCURVE",
"1031 824 CURVE SMOOTH",
"984 963 OFFCURVE",
"868 1014 OFFCURVE",
"663 1014 CURVE SMOOTH",
"342 1014 OFFCURVE",
"71 834 OFFCURVE",
"71 500 CURVE SMOOTH {name = hr00;}",
"71 176 OFFCURVE",
"245 -29 OFFCURVE",
"664 -29 CURVE SMOOTH"
);
}
);
width = 1088;
}
);
leftKerningGroup = o;
rightKerningGroup = c;
unicode = 0063;
},
{
color = 4;
glyphname = d;
lastChange = "2018-07-12 15:53:51 +0000";
layers = (
{
anchors = (
{
name = bottom;
position = "{580, 0}";
},
{
name = center;
position = "{580, 497}";
},
{
name = top;
position = "{292, 917}";
},
{
name = topright;
position = "{1198, 994}";
}
);
layerId = "DD6F9F34-BC40-4E8F-B1D3-DF3B42A9710F";
paths = (
{
closed = 1;
nodes = (
"595 -29 OFFCURVE",
"714 21 OFFCURVE",
"784 97 CURVE",
"783 34 OFFCURVE",
"785 0 OFFCURVE",
"860 0 CURVE SMOOTH",
"1084 0 LINE SMOOTH",
"1106 0 OFFCURVE",
"1118 26 OFFCURVE",
"1118 41 CURVE SMOOTH",
"1118 71 OFFCURVE",
"1110 75 OFFCURVE",
"1082 78 CURVE SMOOTH",
"1033 83 OFFCURVE",
"970 89 OFFCURVE",
"970 175 CURVE SMOOTH",
"970 1518 LINE",
"967 1550 OFFCURVE",
"951 1558 OFFCURVE",
"940 1558 CURVE SMOOTH",
"883 1557 OFFCURVE",
"728 1556 OFFCURVE",
"595 1548 CURVE SMOOTH",
"579 1547 OFFCURVE",
"571 1520 OFFCURVE",
"571 1504 CURVE SMOOTH",
"571 1479 OFFCURVE",
"581 1470 OFFCURVE",
"595 1464 CURVE",
"649 1450 OFFCURVE",
"784 1463 OFFCURVE",
"784 1339 CURVE SMOOTH",
"784 1104 LINE",
"794 934 LINE",
"733 994 OFFCURVE",
"631 1014 OFFCURVE",
"522 1014 CURVE SMOOTH",
"206 1014 OFFCURVE",
"72 761 OFFCURVE",
"72 492 CURVE SMOOTH",
"72 222 OFFCURVE",
"185 -29 OFFCURVE",
"500 -29 CURVE SMOOTH"
);
},
{
closed = 1;
nodes = (
"340 66 OFFCURVE",
"279 253 OFFCURVE",
"279 492 CURVE SMOOTH",
"279 736 OFFCURVE",
"336 919 OFFCURVE",
"559 919 CURVE SMOOTH",
"670 919 OFFCURVE",
"746 885 OFFCURVE",
"784 814 CURVE",
"784 176 LINE",
"740 117 OFFCURVE",
"640 66 OFFCURVE",
"563 66 CURVE SMOOTH"
);
}
);
width = 1176;
},
{
anchors = (
{
name = bottom;
position = "{668, 0}";
},
{
name = center;
position = "{668, 497}";
},
{
name = top;
position = "{345, 880}";
},
{
name = topright;
position = "{1390, 994}";
}
);
layerId = "62CA62AF-CD91-478A-AB8B-28A62CC47DA0";
paths = (
{
closed = 1;
nodes = (
"634 -29 OFFCURVE",
"779 15 OFFCURVE",
"847 108 CURVE",
"846 37 OFFCURVE",
"843 0 OFFCURVE",
"923 0 CURVE SMOOTH {name = hr02;}",
"1267 0 LINE SMOOTH",
"1289 0 OFFCURVE",
"1301 26 OFFCURVE",
"1301 41 CURVE SMOOTH",
"1301 71 OFFCURVE",
"1293 75 OFFCURVE",
"1265 78 CURVE SMOOTH",
"1216 83 OFFCURVE",
"1153 89 OFFCURVE",
"1153 175 CURVE SMOOTH",
"1153 1508 LINE SMOOTH",
"1153 1540 OFFCURVE",
"1134 1548 OFFCURVE",
"1123 1548 CURVE SMOOTH",
"1043 1547 OFFCURVE",
"825 1546 OFFCURVE",
"638 1538 CURVE SMOOTH",
"623 1537 OFFCURVE",
"614 1510 OFFCURVE",
"614 1494 CURVE SMOOTH",
"614 1469 OFFCURVE",
"624 1460 OFFCURVE",
"638 1454 CURVE",
"750 1446 OFFCURVE",
"837 1425 OFFCURVE",
"837 1329 CURVE SMOOTH",
"837 1105 LINE",
"846 948 LINE",
"757 1002 OFFCURVE",
"688 1014 OFFCURVE",
"581 1014 CURVE SMOOTH",
"237 1014 OFFCURVE",
"71 761 OFFCURVE",
"71 492 CURVE SMOOTH {name = hr01;}",
"71 222 OFFCURVE",
"190 -29 OFFCURVE",
"519 -29 CURVE SMOOTH"
);
},
{
closed = 1;
nodes = (
"472 116 OFFCURVE",
"408 273 OFFCURVE",
"408 492 CURVE SMOOTH",
"408 740 OFFCURVE",
"472 909 OFFCURVE",
"678 909 CURVE SMOOTH",
"741 909 OFFCURVE",
"820 850 OFFCURVE",
"837 801 CURVE",
"837 209 LINE",
"802 147 OFFCURVE",
"723 116 OFFCURVE",
"662 116 CURVE SMOOTH"
);
}
);
width = 1358;
}
);
leftKerningGroup = o;
rightKerningGroup = l;
unicode = 0064;
userData = {
com.typemytype.robofont.mark = (
0.967,
0.6,
1,
1
);
};
},
{
color = 4;
glyphname = eth;
lastChange = "2018-07-12 15:53:51 +0000";
layers = (
{
background = {
paths = (
{
closed = 1;
nodes = (
"772 914 OFFCURVE",
"668 994 OFFCURVE",
"507 994 CURVE SMOOTH",
"260 994 OFFCURVE",
"80 781 OFFCURVE",
"80 462 CURVE SMOOTH",
"80 191 OFFCURVE",
"257 -29 OFFCURVE",
"557 -29 CURVE SMOOTH",
"856 -29 OFFCURVE",
"1006 260 OFFCURVE",
"1006 592 CURVE SMOOTH",
"1006 945 OFFCURVE",
"848 1448 OFFCURVE",
"198 1579 CURVE",
"187 1487 LINE",
"776 1359 OFFCURVE",
"794 807 OFFCURVE",
"794 572 CURVE SMOOTH",
"794 262 OFFCURVE",
"756 66 OFFCURVE",
"554 66 CURVE SMOOTH",
"353 66 OFFCURVE",
"297 218 OFFCURVE",
"297 462 CURVE SMOOTH",
"297 731 OFFCURVE",
"366 877 OFFCURVE",
"523 877 CURVE SMOOTH",
"658 877 OFFCURVE",
"749 839 OFFCURVE",
"802 729 CURVE",
"830 806 LINE"
);
},
{
closed = 1;
nodes = (
"274 1255 LINE",
"362 1195 LINE",
"640 1619 LINE",
"554 1685 LINE"
);
}
);
};
layerId = "DD6F9F34-BC40-4E8F-B1D3-DF3B42A9710F";
paths = (
{
closed = 1;
nodes = (
"70 179 OFFCURVE",
"256 -20 OFFCURVE",
"538 -20 CURVE SMOOTH",
"859 -20 OFFCURVE",
"1002 267 OFFCURVE",
"1002 611 CURVE SMOOTH",
"1002 869 OFFCURVE",
"871 1222 OFFCURVE",
"622 1451 CURVE",
"791 1581 LINE",
"797 1594 OFFCURVE",
"789 1625 OFFCURVE",
"778 1646 CURVE SMOOTH",
"771 1659 OFFCURVE",
"758 1667 OFFCURVE",
"746 1658 CURVE SMOOTH",
"547 1502 LINE",
"455 1557 OFFCURVE",
"349 1592 OFFCURVE",
"230 1602 CURVE",
"214 1602 OFFCURVE",
"208 1587 OFFCURVE",
"201 1562 CURVE SMOOTH",
"193 1533 OFFCURVE",
"200 1493 OFFCURVE",
"213 1491 CURVE SMOOTH",
"301 1477 OFFCURVE",
"376 1446 OFFCURVE",
"441 1401 CURVE",
"265 1261 LINE",
"259 1248 OFFCURVE",
"263 1226 OFFCURVE",
"275 1204 CURVE SMOOTH",
"282 1192 OFFCURVE",
"298 1176 OFFCURVE",
"309 1184 CURVE",
"509 1344 LINE",
"613 1241 OFFCURVE",
"736 1063 OFFCURVE",
"771 889 CURVE",
"723 945 OFFCURVE",
"596 980 OFFCURVE",
"521 980 CURVE SMOOTH",
"242 980 OFFCURVE",
"70 791 OFFCURVE",
"70 460 CURVE SMOOTH {name = hr00;}"
);
},
{
closed = 1;
nodes = (
"278 699 OFFCURVE",
"347 877 OFFCURVE",
"534 880 CURVE SMOOTH",
"736 883 OFFCURVE",
"774 794 OFFCURVE",
"774 590 CURVE SMOOTH",
"774 585 LINE SMOOTH",
"774 315 OFFCURVE",
"760 75 OFFCURVE",
"535 75 CURVE SMOOTH",
"377 75 OFFCURVE",
"278 218 OFFCURVE",
"278 462 CURVE SMOOTH"
);
}
);
width = 1089;
},
{
layerId = "62CA62AF-CD91-478A-AB8B-28A62CC47DA0";
paths = (
{
closed = 1;
nodes = (
"71 170 OFFCURVE",
"300 -29 OFFCURVE",
"648 -29 CURVE SMOOTH",
"1045 -29 OFFCURVE",
"1221 258 OFFCURVE",
"1221 602 CURVE SMOOTH",
"1221 925 OFFCURVE",
"1059 1265 OFFCURVE",
"752 1455 CURVE",
"958 1615 LINE",
"965 1629 OFFCURVE",
"953 1659 OFFCURVE",
"936 1679 CURVE SMOOTH",
"926 1691 OFFCURVE",
"910 1699 OFFCURVE",
"896 1689 CURVE SMOOTH",
"660 1506 LINE",
"546 1561 OFFCURVE",
"415 1596 OFFCURVE",
"268 1606 CURVE",
"248 1606 OFFCURVE",
"241 1591 OFFCURVE",
"233 1566 CURVE SMOOTH",
"224 1537 OFFCURVE",
"231 1497 OFFCURVE",
"247 1495 CURVE SMOOTH",
"356 1481 OFFCURVE",
"449 1450 OFFCURVE",
"529 1405 CURVE",
"326 1247 LINE",
"320 1233 OFFCURVE",
"326 1211 OFFCURVE",
"343 1191 CURVE SMOOTH",
"353 1179 OFFCURVE",
"375 1164 OFFCURVE",
"388 1173 CURVE",
"613 1348 LINE",
"741 1245 OFFCURVE",
"823 1054 OFFCURVE",
"866 880 CURVE",
"806 936 OFFCURVE",
"720 971 OFFCURVE",
"628 971 CURVE SMOOTH",
"283 971 OFFCURVE",
"71 782 OFFCURVE",
"71 451 CURVE SMOOTH {name = hr00;}"
);
},
{
closed = 1;
nodes = (
"418 658 OFFCURVE",
"487 853 OFFCURVE",
"644 853 CURVE SMOOTH",
"822 853 OFFCURVE",
"869 785 OFFCURVE",
"869 581 CURVE SMOOTH",
"869 576 LINE SMOOTH",
"869 306 OFFCURVE",
"843 66 OFFCURVE",
"645 66 CURVE SMOOTH",
"484 66 OFFCURVE",
"418 177 OFFCURVE",
"418 421 CURVE SMOOTH"
);
}
);
width = 1306;
}
);
leftKerningGroup = eth;
rightKerningGroup = eth;
unicode = 00F0;
},
{
color = 5;
glyphname = dcroat;
lastChange = "2018-07-12 15:53:51 +0000";
layers = (
{
components = (
{
name = d;
transform = "{1, 0, 0, 1, -8, 0}";
}
);
layerId = "DD6F9F34-BC40-4E8F-B1D3-DF3B42A9710F";
paths = (
{
closed = 1;
nodes = (
"1130 1191 LINE",
"1144 1197 OFFCURVE",
"1154 1219 OFFCURVE",
"1154 1244 CURVE SMOOTH",
"1154 1260 OFFCURVE",
"1146 1287 OFFCURVE",
"1130 1288 CURVE",
"529 1288 LINE",
"515 1282 OFFCURVE",
"505 1250 OFFCURVE",
"505 1225 CURVE SMOOTH",
"505 1209 OFFCURVE",
"513 1192 OFFCURVE",
"529 1191 CURVE"
);
}
);
width = 1176;
},
{
components = (
{
name = d;
transform = "{1, 0, 0, 1, -11, 0}";
}
);
layerId = "62CA62AF-CD91-478A-AB8B-28A62CC47DA0";
paths = (
{
closed = 1;
nodes = (
"1295 1191 LINE",
"1309 1197 OFFCURVE",
"1319 1219 OFFCURVE",
"1319 1244 CURVE SMOOTH",
"1319 1260 OFFCURVE",
"1311 1287 OFFCURVE",
"1295 1288 CURVE",
"526 1288 LINE",
"512 1282 OFFCURVE",
"502 1250 OFFCURVE",
"502 1225 CURVE SMOOTH",
"502 1209 OFFCURVE",
"510 1192 OFFCURVE",
"526 1191 CURVE"
);
}
);
width = 1358;
}
);
leftKerningGroup = o;
rightKerningGroup = l;
unicode = 0111;
},
{
color = 9;
glyphname = e;
lastChange = "2018-07-14 03:21:40 +0000";
layers = (
{
anchors = (
{
name = bottom;
position = "{500, 0}";
},
{
name = ogonek;
position = "{896, 10}";
},
{
name = top;
position = "{500, 994}";
}
);
layerId = "DD6F9F34-BC40-4E8F-B1D3-DF3B42A9710F";
paths = (
{
closed = 1;
nodes = (
"699 -29 OFFCURVE",
"804 55 OFFCURVE",
"863 173 CURVE SMOOTH",
"867 181 OFFCURVE",
"876 194 OFFCURVE",
"858 201 CURVE",
"808 224 LINE",
"795 227 OFFCURVE",
"793 216 OFFCURVE",
"789 208 CURVE SMOOTH",
"746 122 OFFCURVE",
"656 75 OFFCURVE",
"555 75 CURVE SMOOTH",
"423 75 OFFCURVE",
"283 186 OFFCURVE",
"281 503 CURVE",
"919 503 LINE",
"919 562 OFFCURVE",
"916 618 OFFCURVE",
"907 669 CURVE SMOOTH",
"871 875 OFFCURVE",
"769 1014 OFFCURVE",
"517 1014 CURVE SMOOTH",
"278 1014 OFFCURVE",
"66 834 OFFCURVE",
"66 500 CURVE SMOOTH",
"66 166 OFFCURVE",
"223 -29 OFFCURVE",
"529 -29 CURVE SMOOTH"
);
},
{
closed = 1;
nodes = (
"294 873 OFFCURVE",
"373 918 OFFCURVE",
"516 918 CURVE SMOOTH",
"618 918 OFFCURVE",
"697 827 OFFCURVE",
"697 595 CURVE",
"283 589 LINE"
);
}
);
width = 990;
},
{
anchors = (
{
name = bottom;
position = "{687, 0}";
},
{
name = ogonek;
position = "{1051, 10}";
},
{
name = top;
position = "{633, 994}";
}
);
layerId = "62CA62AF-CD91-478A-AB8B-28A62CC47DA0";
paths = (
{
closed = 1;
nodes = (
"852 -29 OFFCURVE",
"990 52 OFFCURVE",
"1055 173 CURVE SMOOTH",
"1063 188 OFFCURVE",
"1064 196 OFFCURVE",
"1051 202 CURVE SMOOTH",
"1007 223 LINE",
"994 226 OFFCURVE",
"987 215 OFFCURVE",
"981 208 CURVE SMOOTH",
"917 133 OFFCURVE",
"837 105 OFFCURVE",
"717 105 CURVE SMOOTH",
"577 105 OFFCURVE",
"408 200 OFFCURVE",
"408 508 CURVE",
"1102 509 LINE",
"1102 564 OFFCURVE",
"1101 626 OFFCURVE",
"1093 674 CURVE SMOOTH",
"1058 885 OFFCURVE",
"934 1014 OFFCURVE",
"625 1014 CURVE SMOOTH",
"328 1014 OFFCURVE",
"68 836 OFFCURVE",
"68 502 CURVE SMOOTH {name = hr01;}",
"68 168 OFFCURVE",
"245 -29 OFFCURVE",
"641 -29 CURVE SMOOTH"
);
},
{
closed = 1;
nodes = (
"430 838 OFFCURVE",
"523 929 OFFCURVE",
"622 929 CURVE SMOOTH",
"724 929 OFFCURVE",
"769 833 OFFCURVE",
"769 601 CURVE",
"411 601 LINE"
);
}
);
width = 1171;
}
);
leftKerningGroup = o;
rightKerningGroup = e;
unicode = 0065;
},
{
color = 9;
glyphname = eogonek;
lastChange = "2018-07-14 03:21:40 +0000";
layers = (
{
components = (
{
name = e;
}
);
layerId = "DD6F9F34-BC40-4E8F-B1D3-DF3B42A9710F";
paths = (
{
closed = 1;
nodes = (
"639 30 LINE",
"487 -6 OFFCURVE",
"374 -89 OFFCURVE",
"374 -194 CURVE SMOOTH",
"374 -299 OFFCURVE",
"463 -370 OFFCURVE",
"593 -370 CURVE SMOOTH",
"653 -370 OFFCURVE",
"739 -352 OFFCURVE",
"782 -323 CURVE SMOOTH",
"812 -303 OFFCURVE",
"806 -239 OFFCURVE",
"782 -243 CURVE SMOOTH",
"748 -249 OFFCURVE",
"732 -259 OFFCURVE",
"700 -259 CURVE SMOOTH",
"611 -259 OFFCURVE",
"560 -221 OFFCURVE",
"560 -160 CURVE SMOOTH",
"560 -84 OFFCURVE",
"597 -51 OFFCURVE",
"724 30 CURVE",
"695 80 LINE"
);
}
);
width = 990;
},
{
components = (
{
name = e;
}
);
layerId = "62CA62AF-CD91-478A-AB8B-28A62CC47DA0";
paths = (
{
closed = 1;
nodes = (
"695 0 LINE",
"543 -36 OFFCURVE",
"450 -119 OFFCURVE",
"450 -224 CURVE SMOOTH",
"450 -329 OFFCURVE",
"559 -407 OFFCURVE",
"689 -407 CURVE SMOOTH",
"749 -407 OFFCURVE",
"835 -389 OFFCURVE",
"878 -360 CURVE SMOOTH",
"908 -340 OFFCURVE",
"902 -259 OFFCURVE",
"878 -263 CURVE SMOOTH",
"844 -269 OFFCURVE",
"828 -279 OFFCURVE",
"796 -279 CURVE SMOOTH",
"707 -279 OFFCURVE",
"673 -233 OFFCURVE",
"673 -172 CURVE SMOOTH",
"673 -96 OFFCURVE",
"748 -32 OFFCURVE",
"844 0 CURVE",
"802 49 LINE"
);
}
);
width = 1171;
}
);
leftKerningGroup = o;
rightKerningGroup = e;
unicode = 0119;
},
{
color = 9;
glyphname = f;
lastChange = "2018-07-14 03:21:40 +0000";
layers = (
{
anchors = (
{
name = bottom;
position = "{287, 0}";
},
{
name = top;
position = "{326, 1421}";
}
);
layerId = "DD6F9F34-BC40-4E8F-B1D3-DF3B42A9710F";
paths = (
{
closed = 1;
nodes = (
"561 0 LINE SMOOTH",
"584 0 OFFCURVE",
"595 26 OFFCURVE",
"595 41 CURVE SMOOTH",
"595 71 OFFCURVE",
"587 75 OFFCURVE",
"559 78 CURVE SMOOTH",
"494 85 OFFCURVE",
"397 89 OFFCURVE",
"397 175 CURVE SMOOTH",
"397 907 LINE",
"607 907 LINE",
"621 913 OFFCURVE",
"631 935 OFFCURVE",
"631 960 CURVE SMOOTH",
"631 976 OFFCURVE",
"623 993 OFFCURVE",
"607 994 CURVE",
"397 994 LINE",
"397 1107 LINE SMOOTH",
"397 1421 OFFCURVE",
"472 1463 OFFCURVE",
"546 1475 CURVE",
"655 1312 LINE",
"657 1310 OFFCURVE",
"661 1309 OFFCURVE",
"666 1309 CURVE SMOOTH",
"701 1309 OFFCURVE",
"793 1362 OFFCURVE",
"784 1441 CURVE SMOOTH",
"776 1509 OFFCURVE",
"710 1573 OFFCURVE",
"582 1573 CURVE SMOOTH",
"340 1573 OFFCURVE",
"214 1330 OFFCURVE",
"211 1075 CURVE SMOOTH",
"210 994 LINE",
"88 984 LINE",
"74 978 OFFCURVE",
"64 966 OFFCURVE",
"64 941 CURVE SMOOTH",
"64 925 OFFCURVE",
"72 908 OFFCURVE",
"88 907 CURVE",
"211 907 LINE",
"211 142 LINE SMOOTH",
"211 98 OFFCURVE",
"144 84 OFFCURVE",
"95 78 CURVE SMOOTH",
"69 75 OFFCURVE",
"62 62 OFFCURVE",
"62 41 CURVE SMOOTH",
"62 26 OFFCURVE",
"73 0 OFFCURVE",
"96 0 CURVE SMOOTH"
);
}
);
width = 666;
},
{
anchors = (
{
name = bottom;
position = "{379, 0}";
},
{
name = top;
position = "{399, 1419}";
}
);
layerId = "62CA62AF-CD91-478A-AB8B-28A62CC47DA0";
paths = (
{
closed = 1;
nodes = (
"705 0 LINE SMOOTH",
"728 0 OFFCURVE",
"739 26 OFFCURVE",
"739 41 CURVE SMOOTH",
"739 71 OFFCURVE",
"731 75 OFFCURVE",
"703 78 CURVE",
"638 82 OFFCURVE",
"541 88 OFFCURVE",
"541 165 CURVE SMOOTH",
"541 887 LINE",
"773 887 LINE",
"787 893 OFFCURVE",
"797 935 OFFCURVE",
"797 960 CURVE SMOOTH",
"797 976 OFFCURVE",
"789 993 OFFCURVE",
"773 994 CURVE",
"541 994 LINE",
"541 1107 LINE SMOOTH",
"541 1396 OFFCURVE",
"578 1449 OFFCURVE",
"631 1449 CURVE",
"779 1278 LINE",
"779 1276 OFFCURVE",
"790 1275 OFFCURVE",
"790 1275 CURVE",
"855 1274 OFFCURVE",
"908 1334 OFFCURVE",
"908 1416 CURVE SMOOTH",
"908 1494 OFFCURVE",
"842 1563 OFFCURVE",
"659 1563 CURVE SMOOTH",
"365 1563 OFFCURVE",
"225 1331 OFFCURVE",
"225 1076 CURVE SMOOTH",
"225 994 LINE",
"72 977 LINE",
"58 971 OFFCURVE",
"47 956 OFFCURVE",
"47 931 CURVE SMOOTH",
"47 915 OFFCURVE",
"55 888 OFFCURVE",
"71 887 CURVE",
"225 887 LINE",
"225 132 LINE SMOOTH",
"225 95 OFFCURVE",
"158 82 OFFCURVE",
"109 78 CURVE",
"83 75 OFFCURVE",
"76 62 OFFCURVE",
"76 41 CURVE SMOOTH {name = hr00;}",
"76 26 OFFCURVE",
"87 0 OFFCURVE",
"110 0 CURVE SMOOTH"
);
}
);
width = 805;
}
);
leftKerningGroup = f;
rightKerningGroup = f;
unicode = 0066;
},
{
color = 9;
glyphname = g;
lastChange = "2018-07-14 03:21:40 +0000";
layers = (
{
anchors = (
{
name = bottom;
position = "{476, -421}";
},
{
name = top;
position = "{478, 994}";
}
);
layerId = "DD6F9F34-BC40-4E8F-B1D3-DF3B42A9710F";
paths = (
{
closed = 1;
nodes = (
"766 -451 OFFCURVE",
"949 -275 OFFCURVE",
"950 -108 CURVE SMOOTH",
"952 123 OFFCURVE",
"833 194 OFFCURVE",
"621 194 CURVE SMOOTH",
"360 194 LINE SMOOTH",
"280 194 OFFCURVE",
"222 230 OFFCURVE",
"222 300 CURVE SMOOTH",
"222 338 OFFCURVE",
"250 382 OFFCURVE",
"288 408 CURVE",
"339 383 OFFCURVE",
"400 369 OFFCURVE",
"470 369 CURVE SMOOTH",
"696 369 OFFCURVE",
"832 517 OFFCURVE",
"832 694 CURVE SMOOTH",
"832 763 OFFCURVE",
"813 826 OFFCURVE",
"776 878 CURVE",
"808 915 OFFCURVE",
"823 928 OFFCURVE",
"853 935 CURVE",
"926 790 OFFCURVE",
"925 776 OFFCURVE",
"958 776 CURVE SMOOTH",
"995 776 OFFCURVE",
"1034 812 OFFCURVE",
"1034 874 CURVE SMOOTH",
"1034 894 OFFCURVE",
"1030 917 OFFCURVE",
"1020 942 CURVE SMOOTH",
"1004 984 OFFCURVE",
"972 1022 OFFCURVE",
"898 1022 CURVE SMOOTH",
"828 1022 OFFCURVE",
"770 982 OFFCURVE",
"735 924 CURVE",
"674 980 OFFCURVE",
"587 1014 OFFCURVE",
"476 1014 CURVE SMOOTH",
"250 1014 OFFCURVE",
"113 872 OFFCURVE",
"113 694 CURVE SMOOTH",
"113 597 OFFCURVE",
"152 510 OFFCURVE",
"224 450 CURVE",
"162 418 OFFCURVE",
"81 350 OFFCURVE",
"81 243 CURVE SMOOTH",
"81 163 OFFCURVE",
"113 83 OFFCURVE",
"186 51 CURVE",
"127 21 OFFCURVE",
"42 -26 OFFCURVE",
"42 -145 CURVE SMOOTH",
"42 -316 OFFCURVE",
"202 -451 OFFCURVE",
"468 -451 CURVE SMOOTH"
);
},
{
closed = 1;
nodes = (
"344 -355 OFFCURVE",
"233 -288 OFFCURVE",
"233 -126 CURVE SMOOTH",
"233 -52 OFFCURVE",
"246 -9 OFFCURVE",
"254 18 CURVE",
"284 8 OFFCURVE",
"317 1 OFFCURVE",
"354 1 CURVE SMOOTH",
"612 1 LINE SMOOTH",
"724 1 OFFCURVE",
"819 -33 OFFCURVE",
"819 -139 CURVE SMOOTH",
"819 -313 OFFCURVE",
"594 -355 OFFCURVE",
"488 -355 CURVE SMOOTH"
);
},
{
closed = 1;
nodes = (
"335 464 OFFCURVE",
"299 569 OFFCURVE",
"299 694 CURVE SMOOTH",
"299 820 OFFCURVE",
"333 918 OFFCURVE",
"470 918 CURVE SMOOTH",
"606 918 OFFCURVE",
"644 820 OFFCURVE",
"644 694 CURVE SMOOTH",
"644 569 OFFCURVE",
"610 464 OFFCURVE",
"474 464 CURVE SMOOTH"
);
}
);
width = 1043;
},
{
anchors = (
{
name = bottom;
position = "{561, -415}";
},
{
name = top;
position = "{561, 994}";
}
);
layerId = "62CA62AF-CD91-478A-AB8B-28A62CC47DA0";
paths = (
{
closed = 1;
nodes = (
"951 -448 OFFCURVE",
"1122 -253 OFFCURVE",
"1122 -86 CURVE SMOOTH",
"1122 112 OFFCURVE",
"967 163 OFFCURVE",
"759 184 CURVE SMOOTH",
"481 212 LINE SMOOTH",
"383 222 OFFCURVE",
"313 234 OFFCURVE",
"313 288 CURVE SMOOTH {name = hr02;}",
"313 324 OFFCURVE",
"334 362 OFFCURVE",
"364 387 CURVE",
"414 375 OFFCURVE",
"472 369 OFFCURVE",
"539 369 CURVE SMOOTH",
"858 369 OFFCURVE",
"970 507 OFFCURVE",
"970 694 CURVE SMOOTH",
"970 766 OFFCURVE",
"952 830 OFFCURVE",
"913 881 CURVE",
"935 891 OFFCURVE",
"965 897 OFFCURVE",
"979 897 CURVE SMOOTH",
"982 897 OFFCURVE",
"985 897 OFFCURVE",
"987 896 CURVE",
"1070 811 OFFCURVE",
"1091 757 OFFCURVE",
"1126 757 CURVE SMOOTH",
"1167 757 OFFCURVE",
"1211 817 OFFCURVE",
"1211 890 CURVE SMOOTH",
"1211 969 OFFCURVE",
"1146 1014 OFFCURVE",
"1085 1014 CURVE SMOOTH",
"984 1014 OFFCURVE",
"904 973 OFFCURVE",
"860 933 CURVE",
"791 984 OFFCURVE",
"690 1014 OFFCURVE",
"539 1014 CURVE SMOOTH",
"228 1014 OFFCURVE",
"102 882 OFFCURVE",
"102 694 CURVE SMOOTH {name = hr03;}",
"102 578 OFFCURVE",
"146 481 OFFCURVE",
"258 424 CURVE",
"192 393 OFFCURVE",
"102 322 OFFCURVE",
"102 223 CURVE SMOOTH {name = hr04;}",
"102 136 OFFCURVE",
"116 60 OFFCURVE",
"238 0 CURVE",
"158 0 OFFCURVE",
"48 -81 OFFCURVE",
"48 -191 CURVE SMOOTH {name = hr01;}",
"48 -362 OFFCURVE",
"255 -448 OFFCURVE",
"559 -448 CURVE SMOOTH"
);
},
{
closed = 1;
nodes = (
"465 -352 OFFCURVE",
"320 -317 OFFCURVE",
"320 -155 CURVE SMOOTH",
"320 -82 OFFCURVE",
"336 -56 OFFCURVE",
"349 -22 CURVE {name = hr07;}",
"354 -23 OFFCURVE",
"360 -24 OFFCURVE",
"366 -24 CURVE",
"644 -54 LINE SMOOTH",
"780 -69 OFFCURVE",
"860 -101 OFFCURVE",
"860 -171 CURVE SMOOTH",
"860 -275 OFFCURVE",
"695 -352 OFFCURVE",
"569 -352 CURVE SMOOTH"
);
},
{
closed = 1;
nodes = (
"428 454 OFFCURVE",
"404 565 OFFCURVE",
"404 690 CURVE SMOOTH",
"404 816 OFFCURVE",
"429 928 OFFCURVE",
"539 928 CURVE SMOOTH",
"649 928 OFFCURVE",
"684 824 OFFCURVE",
"684 698 CURVE SMOOTH",
"684 573 OFFCURVE",
"649 454 OFFCURVE",
"539 454 CURVE SMOOTH {name = hr06;}"
);
}
);
width = 1181;
}
);
leftKerningGroup = o;
rightKerningGroup = g;
unicode = 0067;
},
{
color = 9;
glyphname = h;
lastChange = "2018-07-14 03:21:40 +0000";
layers = (
{
anchors = (
{
name = bottom;
position = "{576, 0}";
},
{
name = center;
position = "{576, 945}";
},
{
name = top;
position = "{781, 1130}";
}
);
layerId = "DD6F9F34-BC40-4E8F-B1D3-DF3B42A9710F";
paths = (
{
closed = 1;
nodes = (
"489 0 LINE SMOOTH",
"511 0 OFFCURVE",
"523 26 OFFCURVE",
"523 41 CURVE SMOOTH",
"523 71 OFFCURVE",
"515 75 OFFCURVE",
"487 78 CURVE SMOOTH",
"438 83 OFFCURVE",
"375 89 OFFCURVE",
"375 175 CURVE SMOOTH",
"375 771 LINE",
"430 822 OFFCURVE",
"548 896 OFFCURVE",
"673 896 CURVE SMOOTH",
"791 896 OFFCURVE",
"802 829 OFFCURVE",
"802 795 CURVE SMOOTH",
"802 142 LINE SMOOTH",
"802 104 OFFCURVE",
"738 81 OFFCURVE",
"696 78 CURVE SMOOTH",
"670 76 OFFCURVE",
"665 62 OFFCURVE",
"665 41 CURVE SMOOTH",
"665 26 OFFCURVE",
"676 0 OFFCURVE",
"699 0 CURVE SMOOTH",
"1126 0 LINE SMOOTH",
"1149 0 OFFCURVE",
"1160 26 OFFCURVE",
"1160 41 CURVE SMOOTH",
"1160 70 OFFCURVE",
"1149 75 OFFCURVE",
"1127 78 CURVE SMOOTH",
"1077 85 OFFCURVE",
"990 79 OFFCURVE",
"990 175 CURVE SMOOTH",
"990 766 LINE SMOOTH",
"990 974 OFFCURVE",
"859 1014 OFFCURVE",
"714 1014 CURVE SMOOTH",
"551 1014 OFFCURVE",
"400 880 OFFCURVE",
"365 845 CURVE",
"375 1104 LINE",
"375 1518 LINE",
"372 1550 OFFCURVE",
"356 1558 OFFCURVE",
"345 1558 CURVE SMOOTH",
"288 1558 OFFCURVE",
"173 1556 OFFCURVE",
"40 1548 CURVE SMOOTH",
"24 1547 OFFCURVE",
"16 1520 OFFCURVE",
"16 1504 CURVE SMOOTH",
"16 1479 OFFCURVE",
"26 1470 OFFCURVE",
"40 1464 CURVE",
"94 1450 OFFCURVE",
"189 1463 OFFCURVE",
"189 1339 CURVE SMOOTH",
"189 142 LINE SMOOTH",
"189 98 OFFCURVE",
"122 84 OFFCURVE",
"73 78 CURVE SMOOTH",
"47 75 OFFCURVE",
"40 62 OFFCURVE",
"40 41 CURVE SMOOTH",
"40 26 OFFCURVE",
"51 0 OFFCURVE",
"74 0 CURVE SMOOTH"
);
}
);
width = 1192;
},
{
anchors = (
{
name = bottom;
position = "{686, 0}";
},
{
name = center;
position = "{686, 945}";
},
{
name = top;
position = "{952, 1112}";
}
);
layerId = "62CA62AF-CD91-478A-AB8B-28A62CC47DA0";
paths = (
{
closed = 1;
nodes = (
"614 0 LINE SMOOTH",
"636 0 OFFCURVE",
"648 26 OFFCURVE",
"648 41 CURVE SMOOTH",
"648 71 OFFCURVE",
"640 75 OFFCURVE",
"612 78 CURVE SMOOTH",
"563 83 OFFCURVE",
"500 88 OFFCURVE",
"500 165 CURVE SMOOTH",
"500 727 LINE",
"547 778 OFFCURVE",
"672 852 OFFCURVE",
"780 852 CURVE SMOOTH",
"899 852 OFFCURVE",
"899 764 OFFCURVE",
"899 721 CURVE SMOOTH",
"899 132 LINE SMOOTH",
"899 100 OFFCURVE",
"835 81 OFFCURVE",
"793 78 CURVE",
"766 75 OFFCURVE",
"762 62 OFFCURVE",
"762 41 CURVE SMOOTH",
"762 26 OFFCURVE",
"773 0 OFFCURVE",
"796 0 CURVE SMOOTH",
"1343 0 LINE SMOOTH",
"1366 0 OFFCURVE",
"1377 26 OFFCURVE",
"1377 41 CURVE SMOOTH",
"1377 70 OFFCURVE",
"1366 75 OFFCURVE",
"1344 78 CURVE SMOOTH",
"1294 85 OFFCURVE",
"1207 79 OFFCURVE",
"1207 165 CURVE SMOOTH",
"1207 736 LINE SMOOTH",
"1207 968 OFFCURVE",
"1066 1014 OFFCURVE",
"916 1014 CURVE SMOOTH",
"723 1014 OFFCURVE",
"531 890 OFFCURVE",
"490 845 CURVE",
"500 992 LINE",
"500 1508 LINE",
"497 1540 OFFCURVE",
"481 1548 OFFCURVE",
"470 1548 CURVE SMOOTH",
"389 1548 OFFCURVE",
"225 1546 OFFCURVE",
"35 1534 CURVE SMOOTH",
"19 1533 OFFCURVE",
"11 1506 OFFCURVE",
"11 1490 CURVE SMOOTH",
"11 1465 OFFCURVE",
"21 1456 OFFCURVE",
"35 1450 CURVE",
"89 1436 OFFCURVE",
"184 1453 OFFCURVE",
"184 1329 CURVE SMOOTH",
"184 132 LINE SMOOTH",
"184 95 OFFCURVE",
"117 82 OFFCURVE",
"68 78 CURVE",
"42 75 OFFCURVE",
"35 62 OFFCURVE",
"35 41 CURVE SMOOTH {name = hr00;}",
"35 26 OFFCURVE",
"46 0 OFFCURVE",
"69 0 CURVE SMOOTH"
);
}
);
width = 1392;
}
);
leftKerningGroup = h;
rightKerningGroup = n;
unicode = 0068;
userData = {
com.typemytype.robofont.mark = (
0.967,
0.6,
1,
1
);
};
},
{
color = 9;
glyphname = hbar;
lastChange = "2018-07-14 03:21:40 +0000";
layers = (
{
components = (
{
name = h;
transform = "{1, 0, 0, 1, -51, 0}";
}
);
layerId = "DD6F9F34-BC40-4E8F-B1D3-DF3B42A9710F";
paths = (
{
closed = 1;
nodes = (
"604 1191 LINE",
"618 1197 OFFCURVE",
"628 1219 OFFCURVE",
"628 1244 CURVE SMOOTH",
"628 1260 OFFCURVE",
"620 1287 OFFCURVE",
"604 1288 CURVE",
"-5 1288 LINE",
"-19 1282 OFFCURVE",
"-29 1250 OFFCURVE",
"-29 1225 CURVE SMOOTH",
"-29 1209 OFFCURVE",
"-21 1192 OFFCURVE",
"-5 1191 CURVE"
);
}
);
width = 1192;
},
{
components = (
{
name = h;
transform = "{1, 0, 0, 1, -67, 0}";
}
);
layerId = "62CA62AF-CD91-478A-AB8B-28A62CC47DA0";
paths = (
{
closed = 1;
nodes = (
"678 1191 LINE",
"692 1197 OFFCURVE",
"702 1219 OFFCURVE",
"702 1244 CURVE SMOOTH",
"702 1260 OFFCURVE",
"694 1287 OFFCURVE",
"678 1288 CURVE",
"-21 1288 LINE",
"-35 1282 OFFCURVE",
"-45 1250 OFFCURVE",
"-45 1225 CURVE SMOOTH",
"-45 1209 OFFCURVE",
"-37 1192 OFFCURVE",
"-21 1191 CURVE"
);
}
);
width = 1392;
}
);
leftKerningGroup = h;
rightKerningGroup = n;
unicode = 0127;
},
{
color = 9;
glyphname = hcircumflex;
lastChange = "2018-07-14 03:21:40 +0000";
layers = (
{
components = (
{
name = circumflexcomb.case;
transform = "{1, 0, 0, 1, 346, 360}";
}
);
layerId = "DD6F9F34-BC40-4E8F-B1D3-DF3B42A9710F";
paths = (
{
closed = 1;
nodes = (
"606 0 LINE SMOOTH",
"628 0 OFFCURVE",
"640 26 OFFCURVE",
"640 41 CURVE SMOOTH",
"640 71 OFFCURVE",
"632 75 OFFCURVE",
"604 78 CURVE SMOOTH",
"555 83 OFFCURVE",
"492 89 OFFCURVE",
"492 175 CURVE SMOOTH",
"492 771 LINE",
"547 822 OFFCURVE",
"665 896 OFFCURVE",
"790 896 CURVE SMOOTH",
"908 896 OFFCURVE",
"919 829 OFFCURVE",
"919 795 CURVE SMOOTH",
"919 142 LINE SMOOTH",
"919 104 OFFCURVE",
"855 82 OFFCURVE",
"813 78 CURVE SMOOTH",
"787 75 OFFCURVE",
"782 62 OFFCURVE",
"782 41 CURVE SMOOTH",
"782 26 OFFCURVE",
"793 0 OFFCURVE",
"816 0 CURVE SMOOTH",
"1243 0 LINE SMOOTH",
"1266 0 OFFCURVE",
"1277 26 OFFCURVE",
"1277 41 CURVE SMOOTH",
"1277 70 OFFCURVE",
"1266 75 OFFCURVE",
"1244 78 CURVE SMOOTH",
"1194 85 OFFCURVE",
"1107 79 OFFCURVE",
"1107 175 CURVE SMOOTH",
"1107 766 LINE SMOOTH",
"1107 974 OFFCURVE",
"976 1014 OFFCURVE",
"831 1014 CURVE SMOOTH",
"668 1014 OFFCURVE",
"517 880 OFFCURVE",
"482 845 CURVE",
"492 1104 LINE",
"492 1379 LINE",
"489 1411 OFFCURVE",
"473 1419 OFFCURVE",
"462 1419 CURVE SMOOTH",
"405 1419 OFFCURVE",
"290 1417 OFFCURVE",
"157 1409 CURVE SMOOTH",
"141 1408 OFFCURVE",
"133 1381 OFFCURVE",
"133 1365 CURVE SMOOTH",
"133 1340 OFFCURVE",
"143 1331 OFFCURVE",
"157 1325 CURVE",
"211 1311 OFFCURVE",
"306 1324 OFFCURVE",
"306 1200 CURVE SMOOTH",
"306 142 LINE SMOOTH",
"306 98 OFFCURVE",
"239 83 OFFCURVE",
"190 78 CURVE SMOOTH",
"164 75 OFFCURVE",
"157 62 OFFCURVE",
"157 41 CURVE SMOOTH",
"157 26 OFFCURVE",
"168 0 OFFCURVE",
"191 0 CURVE SMOOTH"
);
}
);
width = 1192;
},
{
components = (
{
name = circumflexcomb.case;
transform = "{1, 0, 0, 1, 373, 345}";
}
);
layerId = "62CA62AF-CD91-478A-AB8B-28A62CC47DA0";
paths = (
{
closed = 1;
nodes = (
"655 0 LINE SMOOTH",
"677 0 OFFCURVE",
"689 26 OFFCURVE",
"689 41 CURVE SMOOTH",
"689 71 OFFCURVE",
"681 75 OFFCURVE",
"653 78 CURVE SMOOTH",
"604 82 OFFCURVE",
"541 88 OFFCURVE",
"541 165 CURVE SMOOTH",
"541 727 LINE",
"588 778 OFFCURVE",
"713 852 OFFCURVE",
"821 852 CURVE SMOOTH",
"940 852 OFFCURVE",
"940 764 OFFCURVE",
"940 721 CURVE SMOOTH",
"940 132 LINE SMOOTH",
"940 100 OFFCURVE",
"876 81 OFFCURVE",
"834 78 CURVE",
"807 75 OFFCURVE",
"803 62 OFFCURVE",
"803 41 CURVE SMOOTH",
"803 26 OFFCURVE",
"814 0 OFFCURVE",
"837 0 CURVE SMOOTH",
"1384 0 LINE SMOOTH",
"1407 0 OFFCURVE",
"1418 26 OFFCURVE",
"1418 41 CURVE SMOOTH",
"1418 70 OFFCURVE",
"1407 75 OFFCURVE",
"1385 78 CURVE SMOOTH",
"1335 84 OFFCURVE",
"1248 79 OFFCURVE",
"1248 165 CURVE SMOOTH",
"1248 736 LINE SMOOTH",
"1248 968 OFFCURVE",
"1107 1014 OFFCURVE",
"957 1014 CURVE SMOOTH",
"764 1014 OFFCURVE",
"572 890 OFFCURVE",
"531 845 CURVE",
"541 992 LINE",
"541 1379 LINE",
"538 1411 OFFCURVE",
"522 1419 OFFCURVE",
"511 1419 CURVE SMOOTH",
"430 1419 OFFCURVE",
"266 1417 OFFCURVE",
"76 1405 CURVE SMOOTH",
"60 1404 OFFCURVE",
"52 1377 OFFCURVE",
"52 1361 CURVE SMOOTH",
"52 1336 OFFCURVE",
"62 1327 OFFCURVE",
"76 1321 CURVE",
"130 1307 OFFCURVE",
"225 1324 OFFCURVE",
"225 1200 CURVE SMOOTH",
"225 132 LINE SMOOTH",
"225 95 OFFCURVE",
"158 82 OFFCURVE",
"109 78 CURVE",
"83 75 OFFCURVE",
"76 62 OFFCURVE",
"76 41 CURVE SMOOTH {name = hr00;}",
"76 26 OFFCURVE",
"87 0 OFFCURVE",
"110 0 CURVE SMOOTH"
);
}
);
width = 1392;
}
);
leftKerningGroup = h;
rightKerningGroup = n;
unicode = 0125;
},
{
color = 9;
glyphname = idotless;
lastChange = "2018-07-14 03:24:55 +0000";
layers = (
{
anchors = (
{
name = bottom;
position = "{331, 0}";
},
{
name = ogonek;
position = "{539, 10}";
},
{
name = top;
position = "{309, 994}";
}
);
layerId = "DD6F9F34-BC40-4E8F-B1D3-DF3B42A9710F";
paths = (
{
closed = 1;
nodes = (
"541 0 LINE SMOOTH",
"563 0 OFFCURVE",
"575 26 OFFCURVE",
"575 41 CURVE SMOOTH",
"575 71 OFFCURVE",
"567 75 OFFCURVE",
"539 78 CURVE SMOOTH",
"490 83 OFFCURVE",
"417 89 OFFCURVE",
"417 175 CURVE SMOOTH",
"417 957 LINE",
"414 989 OFFCURVE",
"398 997 OFFCURVE",
"387 997 CURVE SMOOTH",
"330 997 OFFCURVE",
"215 995 OFFCURVE",
"82 987 CURVE SMOOTH",
"66 986 OFFCURVE",
"58 959 OFFCURVE",
"58 943 CURVE SMOOTH",
"58 918 OFFCURVE",
"68 909 OFFCURVE",
"82 903 CURVE",
"136 889 OFFCURVE",
"231 902 OFFCURVE",
"231 778 CURVE SMOOTH",
"230 142 LINE SMOOTH",
"230 98 OFFCURVE",
"164 84 OFFCURVE",
"115 78 CURVE SMOOTH",
"89 75 OFFCURVE",
"82 62 OFFCURVE",
"82 41 CURVE SMOOTH",
"82 26 OFFCURVE",
"93 0 OFFCURVE",
"116 0 CURVE SMOOTH"
);
}
);
width = 600;
},
{
anchors = (
{
name = bottom;
position = "{352, 0}";
},
{
name = ogonek;
position = "{642, 10}";
},
{
name = top;
position = "{352, 994}";
}
);
layerId = "62CA62AF-CD91-478A-AB8B-28A62CC47DA0";
paths = (
{
closed = 1;
nodes = (
"646 0 LINE SMOOTH",
"668 0 OFFCURVE",
"680 26 OFFCURVE",
"680 41 CURVE SMOOTH",
"680 71 OFFCURVE",
"672 75 OFFCURVE",
"644 78 CURVE SMOOTH",
"595 82 OFFCURVE",
"522 88 OFFCURVE",
"522 165 CURVE SMOOTH",
"522 957 LINE SMOOTH",
"522 989 OFFCURVE",
"503 997 OFFCURVE",
"492 997 CURVE SMOOTH",
"411 996 OFFCURVE",
"247 991 OFFCURVE",
"57 983 CURVE SMOOTH",
"41 982 OFFCURVE",
"33 955 OFFCURVE",
"33 939 CURVE SMOOTH",
"33 914 OFFCURVE",
"43 905 OFFCURVE",
"57 899 CURVE",
"111 885 OFFCURVE",
"206 902 OFFCURVE",
"206 778 CURVE SMOOTH",
"205 132 LINE SMOOTH",
"205 95 OFFCURVE",
"139 82 OFFCURVE",
"90 78 CURVE SMOOTH",
"64 75 OFFCURVE",
"57 62 OFFCURVE",
"57 41 CURVE SMOOTH {name = hr00;}",
"57 26 OFFCURVE",
"68 0 OFFCURVE",
"91 0 CURVE SMOOTH"
);
}
);
width = 724;
}
);
leftKerningGroup = idotless;
rightKerningGroup = idotless;
unicode = 0131;
},
{
color = 9;
glyphname = iogonek;
lastChange = "2018-07-14 03:25:08 +0000";
layers = (
{
components = (
{
name = i;
}
);
layerId = "DD6F9F34-BC40-4E8F-B1D3-DF3B42A9710F";
paths = (
{
closed = 1;
nodes = (
"370 30 LINE",
"218 -6 OFFCURVE",
"105 -89 OFFCURVE",
"105 -194 CURVE SMOOTH",
"105 -299 OFFCURVE",
"194 -370 OFFCURVE",
"324 -370 CURVE SMOOTH",
"384 -370 OFFCURVE",
"470 -352 OFFCURVE",
"513 -323 CURVE SMOOTH",
"543 -303 OFFCURVE",
"537 -239 OFFCURVE",
"513 -243 CURVE SMOOTH",
"479 -249 OFFCURVE",
"463 -259 OFFCURVE",
"431 -259 CURVE SMOOTH",
"342 -259 OFFCURVE",
"291 -221 OFFCURVE",
"291 -160 CURVE SMOOTH",
"291 -84 OFFCURVE",
"328 -51 OFFCURVE",
"455 30 CURVE",
"426 80 LINE"
);
}
);
width = 600;
},
{
components = (
{
name = i;
}
);
layerId = "62CA62AF-CD91-478A-AB8B-28A62CC47DA0";
paths = (
{
closed = 1;
nodes = (
"359 0 LINE",
"207 -36 OFFCURVE",
"114 -119 OFFCURVE",
"114 -224 CURVE SMOOTH",
"114 -329 OFFCURVE",
"223 -407 OFFCURVE",
"353 -407 CURVE SMOOTH",
"413 -407 OFFCURVE",
"499 -389 OFFCURVE",
"542 -360 CURVE SMOOTH",
"572 -340 OFFCURVE",
"566 -259 OFFCURVE",
"542 -263 CURVE SMOOTH",
"508 -269 OFFCURVE",
"492 -279 OFFCURVE",
"460 -279 CURVE SMOOTH",
"371 -279 OFFCURVE",
"337 -233 OFFCURVE",
"337 -172 CURVE SMOOTH",
"337 -96 OFFCURVE",
"412 -32 OFFCURVE",
"508 0 CURVE",
"466 49 LINE"
);
}
);
width = 724;
}
);
leftKerningGroup = i;
rightKerningGroup = i;
unicode = 012F;
},
{
color = 4;
glyphname = jdotless;
lastChange = "2018-07-12 15:53:51 +0000";
layers = (
{
anchors = (
{
name = top;
position = "{267, 994}";
}
);
layerId = "DD6F9F34-BC40-4E8F-B1D3-DF3B42A9710F";
paths = (
{
closed = 1;
nodes = (
"252 -449 OFFCURVE",
"375 -187 OFFCURVE",
"375 88 CURVE SMOOTH",
"376 957 LINE",
"373 989 OFFCURVE",
"357 997 OFFCURVE",
"346 997 CURVE SMOOTH",
"289 996 OFFCURVE",
"164 995 OFFCURVE",
"31 987 CURVE SMOOTH",
"15 986 OFFCURVE",
"7 959 OFFCURVE",
"7 943 CURVE SMOOTH",
"7 918 OFFCURVE",
"17 909 OFFCURVE",
"31 903 CURVE",
"85 889 OFFCURVE",
"190 902 OFFCURVE",
"190 778 CURVE SMOOTH",
"189 56 LINE SMOOTH",
"189 -306 OFFCURVE",
"126 -343 OFFCURVE",
"59 -347 CURVE",
"5 -247 OFFCURVE",
"3 -199 OFFCURVE",
"-37 -199 CURVE SMOOTH",
"-75 -200 OFFCURVE",
"-152 -235 OFFCURVE",
"-152 -310 CURVE SMOOTH",
"-152 -379 OFFCURVE",
"-104 -449 OFFCURVE",
"24 -449 CURVE SMOOTH"
);
}
);
width = 598;
},
{
anchors = (
{
name = top;
position = "{278, 994}";
}
);
layerId = "62CA62AF-CD91-478A-AB8B-28A62CC47DA0";
paths = (
{
closed = 1;
nodes = (
"421 -449 OFFCURVE",
"479 -187 OFFCURVE",
"479 88 CURVE SMOOTH",
"480 957 LINE SMOOTH",
"480 989 OFFCURVE",
"461 997 OFFCURVE",
"450 997 CURVE SMOOTH",
"369 996 OFFCURVE",
"193 991 OFFCURVE",
"5 983 CURVE SMOOTH",
"-11 982 OFFCURVE",
"-19 955 OFFCURVE",
"-19 939 CURVE SMOOTH",
"-19 914 OFFCURVE",
"-9 905 OFFCURVE",
"5 899 CURVE",
"59 885 OFFCURVE",
"164 902 OFFCURVE",
"164 778 CURVE SMOOTH",
"163 -57 LINE SMOOTH",
"163 -268 OFFCURVE",
"123 -347 OFFCURVE",
"73 -347 CURVE",
"-47 -140 OFFCURVE",
"-52 -116 OFFCURVE",
"-112 -116 CURVE SMOOTH {name = hr00;}",
"-181 -116 OFFCURVE",
"-240 -180 OFFCURVE",
"-240 -254 CURVE SMOOTH",
"-240 -336 OFFCURVE",
"-138 -449 OFFCURVE",
"35 -449 CURVE SMOOTH"
);
}
);
width = 709;
}
);
leftKerningGroup = j;
rightKerningGroup = j;
unicode = 0237;
},
{
color = 4;
glyphname = k;
lastChange = "2018-07-12 15:53:51 +0000";
layers = (
{
anchors = (
{
name = bottom;
position = "{529, 0}";
},
{
name = top;
position = "{529, 1889}";
}
);
layerId = "DD6F9F34-BC40-4E8F-B1D3-DF3B42A9710F";
paths = (
{
closed = 1;
nodes = (
"479 0 LINE SMOOTH",
"501 0 OFFCURVE",
"513 26 OFFCURVE",
"513 41 CURVE SMOOTH",
"513 71 OFFCURVE",
"505 75 OFFCURVE",
"477 78 CURVE SMOOTH",
"428 83 OFFCURVE",
"365 89 OFFCURVE",
"365 175 CURVE SMOOTH",
"365 416 LINE",
"454 496 LINE",
"560 388 OFFCURVE",
"709 137 OFFCURVE",
"789 0 CURVE",
"1073 0 LINE SMOOTH",
"1096 0 OFFCURVE",
"1107 26 OFFCURVE",
"1107 41 CURVE SMOOTH",
"1107 70 OFFCURVE",
"1096 75 OFFCURVE",
"1074 78 CURVE SMOOTH",
"1024 85 OFFCURVE",
"972 116 OFFCURVE",
"921 175 CURVE SMOOTH",
"804 312 OFFCURVE",
"666 519 OFFCURVE",
"570 601 CURVE",
"813 819 LINE",
"863 858 OFFCURVE",
"935 906 OFFCURVE",
"1000 906 CURVE SMOOTH",
"1022 906 OFFCURVE",
"1033 925 OFFCURVE",
"1033 949 CURVE SMOOTH",
"1033 964 OFFCURVE",
"1022 994 OFFCURVE",
"999 994 CURVE SMOOTH",
"592 994 LINE SMOOTH",
"569 994 OFFCURVE",
"558 964 OFFCURVE",
"558 949 CURVE SMOOTH",
"558 928 OFFCURVE",
"563 909 OFFCURVE",
"589 906 CURVE",
"651 902 OFFCURVE",
"773 885 OFFCURVE",
"715 842 CURVE",
"365 523 LINE",
"365 1518 LINE",
"362 1550 OFFCURVE",
"346 1558 OFFCURVE",
"335 1558 CURVE SMOOTH",
"278 1557 OFFCURVE",
"163 1556 OFFCURVE",
"30 1548 CURVE SMOOTH",
"14 1547 OFFCURVE",
"6 1520 OFFCURVE",
"6 1504 CURVE SMOOTH",
"6 1479 OFFCURVE",
"16 1470 OFFCURVE",
"30 1464 CURVE",
"84 1450 OFFCURVE",
"179 1463 OFFCURVE",
"179 1339 CURVE SMOOTH",
"179 142 LINE SMOOTH",
"179 98 OFFCURVE",
"112 83 OFFCURVE",
"63 78 CURVE SMOOTH",
"37 75 OFFCURVE",
"30 62 OFFCURVE",
"30 41 CURVE SMOOTH",
"30 26 OFFCURVE",
"41 0 OFFCURVE",
"64 0 CURVE SMOOTH"
);
}
);
width = 1097;
},
{
anchors = (
{
name = bottom;
position = "{637, 0}";
},
{
name = top;
position = "{637, 1889}";
}
);
layerId = "62CA62AF-CD91-478A-AB8B-28A62CC47DA0";
paths = (
{
closed = 1;
nodes = (
"586 0 LINE SMOOTH",
"609 0 OFFCURVE",
"620 26 OFFCURVE",
"620 41 CURVE SMOOTH",
"620 71 OFFCURVE",
"612 75 OFFCURVE",
"584 78 CURVE SMOOTH",
"535 82 OFFCURVE",
"492 88 OFFCURVE",
"492 165 CURVE SMOOTH",
"492 374 LINE",
"580 452 LINE",
"678 355 OFFCURVE",
"821 0 OFFCURVE",
"933 0 CURVE SMOOTH",
"1259 0 LINE SMOOTH",
"1282 0 OFFCURVE",
"1293 26 OFFCURVE",
"1293 41 CURVE SMOOTH",
"1293 70 OFFCURVE",
"1282 75 OFFCURVE",
"1260 78 CURVE SMOOTH",
"1210 85 OFFCURVE",
"1167 143 OFFCURVE",
"1112 198 CURVE SMOOTH",
"989 321 OFFCURVE",
"868 550 OFFCURVE",
"773 621 CURVE",
"1019 837 LINE",
"1068 876 OFFCURVE",
"1143 906 OFFCURVE",
"1207 906 CURVE SMOOTH",
"1229 906 OFFCURVE",
"1240 925 OFFCURVE",
"1240 949 CURVE SMOOTH",
"1240 964 OFFCURVE",
"1229 994 OFFCURVE",
"1206 994 CURVE SMOOTH",
"749 994 LINE SMOOTH",
"726 994 OFFCURVE",
"715 964 OFFCURVE",
"715 949 CURVE SMOOTH",
"715 928 OFFCURVE",
"719 909 OFFCURVE",
"746 906 CURVE",
"809 902 OFFCURVE",
"911 876 OFFCURVE",
"871 842 CURVE",
"492 484 LINE",
"492 1508 LINE SMOOTH",
"492 1540 OFFCURVE",
"473 1548 OFFCURVE",
"462 1548 CURVE SMOOTH",
"380 1547 OFFCURVE",
"216 1542 OFFCURVE",
"27 1534 CURVE SMOOTH",
"11 1533 OFFCURVE",
"3 1506 OFFCURVE",
"3 1490 CURVE SMOOTH",
"3 1465 OFFCURVE",
"13 1456 OFFCURVE",
"27 1450 CURVE",
"81 1436 OFFCURVE",
"176 1453 OFFCURVE",
"176 1329 CURVE SMOOTH",
"176 132 LINE SMOOTH",
"176 95 OFFCURVE",
"109 82 OFFCURVE",
"60 78 CURVE",
"34 75 OFFCURVE",
"27 62 OFFCURVE",
"27 41 CURVE SMOOTH {name = hr00;}",
"27 26 OFFCURVE",
"38 0 OFFCURVE",
"61 0 CURVE SMOOTH"
);
}
);
width = 1294;
}
);
leftKerningGroup = h;
rightKerningGroup = k;
unicode = 006B;
},
{
color = 4;
glyphname = kgreenlandic;
lastChange = "2018-07-12 15:53:51 +0000";
layers = (
{
layerId = "DD6F9F34-BC40-4E8F-B1D3-DF3B42A9710F";
paths = (
{
closed = 1;
nodes = (
"524 0 LINE SMOOTH",
"546 0 OFFCURVE",
"558 16 OFFCURVE",
"558 31 CURVE SMOOTH",
"558 61 OFFCURVE",
"550 65 OFFCURVE",
"522 68 CURVE SMOOTH",
"473 73 OFFCURVE",
"410 79 OFFCURVE",
"410 165 CURVE SMOOTH",
"410 434 LINE",
"477 495 LINE",
"563 374 OFFCURVE",
"650 253 OFFCURVE",
"736 132 CURVE",
"745 121 OFFCURVE",
"749 113 OFFCURVE",
"749 105 CURVE SMOOTH",
"749 81 OFFCURVE",
"712 71 OFFCURVE",
"680 68 CURVE SMOOTH",
"654 65 OFFCURVE",
"649 52 OFFCURVE",
"649 31 CURVE SMOOTH",
"649 16 OFFCURVE",
"660 0 OFFCURVE",
"683 0 CURVE SMOOTH",
"1100 0 LINE SMOOTH",
"1123 0 OFFCURVE",
"1134 16 OFFCURVE",
"1134 31 CURVE SMOOTH",
"1134 60 OFFCURVE",
"1123 65 OFFCURVE",
"1101 68 CURVE SMOOTH",
"1051 75 OFFCURVE",
"984 105 OFFCURVE",
"934 165 CURVE",
"823 313 OFFCURVE",
"712 462 OFFCURVE",
"601 610 CURVE",
"830 821 LINE SMOOTH",
"865 853 OFFCURVE",
"949 918 OFFCURVE",
"1017 918 CURVE SMOOTH",
"1039 918 OFFCURVE",
"1050 931 OFFCURVE",
"1050 955 CURVE SMOOTH",
"1050 970 OFFCURVE",
"1039 986 OFFCURVE",
"1016 986 CURVE SMOOTH",
"639 986 LINE SMOOTH",
"616 986 OFFCURVE",
"605 970 OFFCURVE",
"605 955 CURVE SMOOTH",
"605 934 OFFCURVE",
"610 921 OFFCURVE",
"636 918 CURVE SMOOTH",
"671 915 OFFCURVE",
"741 895 OFFCURVE",
"741 864 CURVE SMOOTH",
"741 858 OFFCURVE",
"738 851 OFFCURVE",
"732 844 CURVE",
"410 541 LINE",
"410 947 LINE",
"407 979 OFFCURVE",
"391 987 OFFCURVE",
"380 987 CURVE SMOOTH",
"325 986 OFFCURVE",
"214 985 OFFCURVE",
"85 977 CURVE SMOOTH",
"69 976 OFFCURVE",
"61 959 OFFCURVE",
"61 943 CURVE SMOOTH",
"61 918 OFFCURVE",
"71 909 OFFCURVE",
"85 903 CURVE",
"135 889 OFFCURVE",
"224 902 OFFCURVE",
"224 778 CURVE SMOOTH",
"224 132 LINE SMOOTH",
"224 88 OFFCURVE",
"167 73 OFFCURVE",
"118 68 CURVE SMOOTH",
"92 65 OFFCURVE",
"85 52 OFFCURVE",
"85 31 CURVE SMOOTH",
"85 16 OFFCURVE",
"96 0 OFFCURVE",
"119 0 CURVE SMOOTH"
);
}
);
width = 1115;
},
{
layerId = "62CA62AF-CD91-478A-AB8B-28A62CC47DA0";
paths = (
{
closed = 1;
nodes = (
"617 0 LINE SMOOTH",
"639 0 OFFCURVE",
"651 16 OFFCURVE",
"651 31 CURVE SMOOTH",
"651 61 OFFCURVE",
"643 65 OFFCURVE",
"615 68 CURVE SMOOTH",
"566 73 OFFCURVE",
"523 79 OFFCURVE",
"523 165 CURVE SMOOTH",
"523 400 LINE",
"595 463 LINE",
"662 391 OFFCURVE",
"749 262 OFFCURVE",
"820 142 CURVE SMOOTH",
"827 130 OFFCURVE",
"830 119 OFFCURVE",
"830 110 CURVE SMOOTH",
"830 92 OFFCURVE",
"819 80 OFFCURVE",
"804 78 CURVE SMOOTH",
"778 75 OFFCURVE",
"773 62 OFFCURVE",
"773 41 CURVE SMOOTH",
"773 26 OFFCURVE",
"784 0 OFFCURVE",
"807 0 CURVE SMOOTH",
"1291 0 LINE SMOOTH",
"1314 0 OFFCURVE",
"1325 26 OFFCURVE",
"1325 41 CURVE SMOOTH",
"1325 70 OFFCURVE",
"1314 75 OFFCURVE",
"1292 78 CURVE SMOOTH",
"1242 85 OFFCURVE",
"1204 139 OFFCURVE",
"1149 194 CURVE SMOOTH",
"1035 308 OFFCURVE",
"886 548 OFFCURVE",
"803 641 CURVE",
"1030 837 LINE",
"1079 876 OFFCURVE",
"1154 906 OFFCURVE",
"1218 906 CURVE SMOOTH",
"1240 906 OFFCURVE",
"1251 925 OFFCURVE",
"1251 949 CURVE SMOOTH",
"1251 964 OFFCURVE",
"1240 994 OFFCURVE",
"1217 994 CURVE SMOOTH",
"760 994 LINE SMOOTH",
"737 994 OFFCURVE",
"726 964 OFFCURVE",
"726 949 CURVE SMOOTH",
"726 928 OFFCURVE",
"730 909 OFFCURVE",
"757 906 CURVE SMOOTH",
"861 896 OFFCURVE",
"890 883 OFFCURVE",
"890 857 CURVE SMOOTH",
"890 847 OFFCURVE",
"880 839 OFFCURVE",
"869 829 CURVE SMOOTH",
"523 511 LINE",
"523 947 LINE",
"520 979 OFFCURVE",
"504 987 OFFCURVE",
"493 987 CURVE SMOOTH",
"414 986 OFFCURVE",
"254 985 OFFCURVE",
"68 977 CURVE SMOOTH",
"52 976 OFFCURVE",
"44 959 OFFCURVE",
"44 943 CURVE SMOOTH",
"44 918 OFFCURVE",
"54 909 OFFCURVE",
"68 903 CURVE",
"118 889 OFFCURVE",
"207 902 OFFCURVE",
"207 778 CURVE SMOOTH",
"207 132 LINE SMOOTH",
"207 88 OFFCURVE",
"150 73 OFFCURVE",
"101 68 CURVE SMOOTH",
"75 65 OFFCURVE",
"68 52 OFFCURVE",
"68 31 CURVE SMOOTH {name = hr00;}",
"68 16 OFFCURVE",
"79 0 OFFCURVE",
"102 0 CURVE SMOOTH"
);
}
);
width = 1316;
}
);
leftKerningGroup = h;
rightKerningGroup = k;
unicode = 0138;
},
{
color = 9;
glyphname = l;
lastChange = "2018-07-14 03:25:08 +0000";
layers = (
{
anchors = (
{
name = bottom;
position = "{278, 0}";
},
{
name = center;
position = "{278, 945}";
},
{
name = top;
position = "{278, 1316}";
},
{
name = topright;
position = "{546, 1016}";
}
);
layerId = "DD6F9F34-BC40-4E8F-B1D3-DF3B42A9710F";
paths = (
{
closed = 1;
nodes = (
"495 0 LINE SMOOTH",
"517 0 OFFCURVE",
"529 26 OFFCURVE",
"529 41 CURVE SMOOTH",
"529 71 OFFCURVE",
"521 75 OFFCURVE",
"493 78 CURVE SMOOTH",
"444 83 OFFCURVE",
"371 89 OFFCURVE",
"371 175 CURVE SMOOTH",
"371 1518 LINE",
"368 1550 OFFCURVE",
"352 1558 OFFCURVE",
"341 1558 CURVE SMOOTH",
"284 1557 OFFCURVE",
"159 1556 OFFCURVE",
"26 1548 CURVE SMOOTH",
"10 1547 OFFCURVE",
"2 1520 OFFCURVE",
"2 1504 CURVE SMOOTH",
"2 1479 OFFCURVE",
"12 1470 OFFCURVE",
"26 1464 CURVE",
"80 1450 OFFCURVE",
"185 1463 OFFCURVE",
"185 1339 CURVE SMOOTH",
"184 142 LINE SMOOTH",
"184 98 OFFCURVE",
"118 83 OFFCURVE",
"69 78 CURVE SMOOTH",
"43 75 OFFCURVE",
"36 62 OFFCURVE",
"36 41 CURVE SMOOTH",
"36 26 OFFCURVE",
"47 0 OFFCURVE",
"70 0 CURVE SMOOTH"
);
}
);
width = 586;
},
{
anchors = (
{
name = bottom;
position = "{341, 0}";
},
{
name = center;
position = "{341, 945}";
},
{
name = top;
position = "{341, 1305}";
},
{
name = topright;
position = "{678, 1016}";
}
);
layerId = "62CA62AF-CD91-478A-AB8B-28A62CC47DA0";
paths = (
{
closed = 1;
nodes = (
"623 0 LINE SMOOTH",
"646 0 OFFCURVE",
"657 26 OFFCURVE",
"657 41 CURVE SMOOTH",
"657 71 OFFCURVE",
"649 75 OFFCURVE",
"621 78 CURVE SMOOTH",
"572 82 OFFCURVE",
"499 88 OFFCURVE",
"499 165 CURVE SMOOTH",
"499 1508 LINE SMOOTH",
"499 1540 OFFCURVE",
"480 1548 OFFCURVE",
"469 1548 CURVE SMOOTH",
"386 1547 OFFCURVE",
"209 1542 OFFCURVE",
"24 1534 CURVE SMOOTH",
"9 1533 OFFCURVE",
"0 1506 OFFCURVE",
"0 1490 CURVE SMOOTH",
"0 1465 OFFCURVE",
"10 1456 OFFCURVE",
"24 1450 CURVE",
"81 1436 OFFCURVE",
"193 1453 OFFCURVE",
"193 1328 CURVE",
"192 132 LINE SMOOTH",
"192 95 OFFCURVE",
"126 82 OFFCURVE",
"77 78 CURVE SMOOTH",
"51 75 OFFCURVE",
"44 62 OFFCURVE",
"44 41 CURVE SMOOTH {name = hr00;}",
"44 26 OFFCURVE",
"55 0 OFFCURVE",
"78 0 CURVE SMOOTH"
);
}
);
width = 705;
}
);
leftKerningGroup = h;
rightKerningGroup = l;
unicode = 006C;
},
{
color = 9;
glyphname = lacute;
lastChange = "2018-07-14 03:25:08 +0000";
layers = (
{
anchors = (
{
name = bottom;
position = "{278, 0}";
}
);
components = (
{
name = acutecomb.case;
transform = "{1, 0, 0, 1, 278, 322}";
}
);
layerId = "DD6F9F34-BC40-4E8F-B1D3-DF3B42A9710F";
paths = (
{
closed = 1;
nodes = (
"495 0 LINE SMOOTH",
"517 0 OFFCURVE",
"529 26 OFFCURVE",
"529 41 CURVE SMOOTH",
"529 71 OFFCURVE",
"521 75 OFFCURVE",
"493 78 CURVE SMOOTH",
"444 83 OFFCURVE",
"371 89 OFFCURVE",
"371 175 CURVE SMOOTH",
"371 1379 LINE",
"368 1411 OFFCURVE",
"352 1419 OFFCURVE",
"341 1419 CURVE SMOOTH",
"284 1419 OFFCURVE",
"159 1417 OFFCURVE",
"26 1409 CURVE SMOOTH",
"10 1408 OFFCURVE",
"2 1381 OFFCURVE",
"2 1365 CURVE SMOOTH",
"2 1340 OFFCURVE",
"12 1331 OFFCURVE",
"26 1325 CURVE",
"80 1311 OFFCURVE",
"185 1324 OFFCURVE",
"185 1200 CURVE SMOOTH",
"184 142 LINE SMOOTH",
"184 98 OFFCURVE",
"118 83 OFFCURVE",
"69 78 CURVE SMOOTH",
"43 75 OFFCURVE",
"36 62 OFFCURVE",
"36 41 CURVE SMOOTH",
"36 26 OFFCURVE",
"47 0 OFFCURVE",
"70 0 CURVE SMOOTH"
);
}
);
width = 586;
},
{
anchors = (
{
name = bottom;
position = "{341, 0}";
}
);
components = (
{
name = acutecomb.case;
transform = "{1, 0, 0, 1, 268, 311}";
}
);
layerId = "62CA62AF-CD91-478A-AB8B-28A62CC47DA0";
paths = (
{
closed = 1;
nodes = (
"623 0 LINE SMOOTH",
"646 0 OFFCURVE",
"657 26 OFFCURVE",
"657 41 CURVE SMOOTH",
"657 71 OFFCURVE",
"649 75 OFFCURVE",
"621 78 CURVE SMOOTH",
"572 82 OFFCURVE",
"499 88 OFFCURVE",
"499 165 CURVE SMOOTH",
"499 1379 LINE SMOOTH",
"499 1411 OFFCURVE",
"480 1419 OFFCURVE",
"469 1419 CURVE SMOOTH",
"386 1419 OFFCURVE",
"209 1417 OFFCURVE",
"24 1405 CURVE SMOOTH",
"9 1404 OFFCURVE",
"0 1377 OFFCURVE",
"0 1361 CURVE SMOOTH",
"0 1336 OFFCURVE",
"10 1327 OFFCURVE",
"24 1321 CURVE",
"81 1307 OFFCURVE",
"193 1324 OFFCURVE",
"193 1199 CURVE",
"192 132 LINE SMOOTH",
"192 95 OFFCURVE",
"126 82 OFFCURVE",
"77 78 CURVE SMOOTH",
"51 75 OFFCURVE",
"44 62 OFFCURVE",
"44 41 CURVE SMOOTH {name = hr00;}",
"44 26 OFFCURVE",
"55 0 OFFCURVE",
"78 0 CURVE SMOOTH"
);
}
);
width = 705;
}
);
unicode = 013A;
},
{
color = 9;
glyphname = lslash;
lastChange = "2018-07-14 03:25:08 +0000";
layers = (
{
components = (
{
name = l;
transform = "{1, 0, 0, 1, 32, 0}";
}
);
layerId = "DD6F9F34-BC40-4E8F-B1D3-DF3B42A9710F";
paths = (
{
closed = 1;
nodes = (
"593 899 LINE",
"604 910 OFFCURVE",
"598 953 OFFCURVE",
"589 976 CURVE SMOOTH",
"583 991 OFFCURVE",
"569 1004 OFFCURVE",
"554 999 CURVE",
"44 752 LINE",
"34 741 OFFCURVE",
"32 717 OFFCURVE",
"41 694 CURVE SMOOTH",
"47 679 OFFCURVE",
"68 647 OFFCURVE",
"83 652 CURVE"
);
}
);
width = 586;
},
{
components = (
{
name = l;
transform = "{1, 0, 0, 1, 18, 0}";
}
);
layerId = "62CA62AF-CD91-478A-AB8B-28A62CC47DA0";
paths = (
{
closed = 1;
nodes = (
"679 899 LINE",
"690 910 OFFCURVE",
"684 953 OFFCURVE",
"675 976 CURVE SMOOTH",
"669 991 OFFCURVE",
"655 1004 OFFCURVE",
"640 999 CURVE",
"27 752 LINE",
"17 741 OFFCURVE",
"15 717 OFFCURVE",
"24 694 CURVE SMOOTH",
"30 679 OFFCURVE",
"51 647 OFFCURVE",
"66 652 CURVE"
);
}
);
width = 705;
}
);
leftKerningGroup = lslash;
rightKerningGroup = lslash;
unicode = 0142;
},
{
color = 9;
glyphname = m;
lastChange = "2018-07-14 03:25:08 +0000";
layers = (
{
anchors = (
{
name = bottom;
position = "{934, 0}";
},
{
name = top;
position = "{915, 994}";
}
);
layerId = "DD6F9F34-BC40-4E8F-B1D3-DF3B42A9710F";
paths = (
{
closed = 1;
nodes = (
"520 0 LINE SMOOTH",
"542 0 OFFCURVE",
"554 26 OFFCURVE",
"554 41 CURVE SMOOTH",
"554 71 OFFCURVE",
"546 75 OFFCURVE",
"518 78 CURVE SMOOTH",
"469 83 OFFCURVE",
"406 89 OFFCURVE",
"406 175 CURVE SMOOTH",
"406 771 LINE",
"461 822 OFFCURVE",
"568 896 OFFCURVE",
"693 896 CURVE SMOOTH",
"811 896 OFFCURVE",
"822 829 OFFCURVE",
"822 795 CURVE SMOOTH",
"822 142 LINE SMOOTH",
"822 104 OFFCURVE",
"758 81 OFFCURVE",
"716 78 CURVE SMOOTH",
"690 76 OFFCURVE",
"685 62 OFFCURVE",
"685 41 CURVE SMOOTH",
"685 26 OFFCURVE",
"696 0 OFFCURVE",
"719 0 CURVE SMOOTH",
"1136 0 LINE SMOOTH",
"1159 0 OFFCURVE",
"1170 26 OFFCURVE",
"1170 41 CURVE SMOOTH",
"1170 70 OFFCURVE",
"1159 75 OFFCURVE",
"1137 78 CURVE SMOOTH",
"1087 85 OFFCURVE",
"1010 79 OFFCURVE",
"1010 175 CURVE",
"1010 741 LINE",
"1010 750 OFFCURVE",
"1010 761 OFFCURVE",
"1010 771 CURVE",
"1068 822 OFFCURVE",
"1171 896 OFFCURVE",
"1297 896 CURVE SMOOTH",
"1415 896 OFFCURVE",
"1426 829 OFFCURVE",
"1426 795 CURVE SMOOTH",
"1426 142 LINE SMOOTH",
"1426 104 OFFCURVE",
"1362 81 OFFCURVE",
"1320 78 CURVE SMOOTH",
"1294 76 OFFCURVE",
"1289 62 OFFCURVE",
"1289 41 CURVE SMOOTH",
"1289 26 OFFCURVE",
"1300 0 OFFCURVE",
"1323 0 CURVE SMOOTH",
"1750 0 LINE SMOOTH",
"1773 0 OFFCURVE",
"1784 26 OFFCURVE",
"1784 41 CURVE SMOOTH",
"1784 70 OFFCURVE",
"1773 75 OFFCURVE",
"1751 78 CURVE SMOOTH",
"1701 85 OFFCURVE",
"1614 79 OFFCURVE",
"1614 175 CURVE SMOOTH",
"1614 766 LINE SMOOTH",
"1614 974 OFFCURVE",
"1483 1014 OFFCURVE",
"1338 1014 CURVE SMOOTH",
"1180 1014 OFFCURVE",
"1041 893 OFFCURVE",
"1001 850 CURVE",
"970 985 OFFCURVE",
"857 1014 OFFCURVE",
"734 1014 CURVE SMOOTH",
"571 1014 OFFCURVE",
"431 880 OFFCURVE",
"396 845 CURVE",
"396 957 LINE",
"393 989 OFFCURVE",
"377 997 OFFCURVE",
"366 997 CURVE SMOOTH",
"311 997 OFFCURVE",
"200 995 OFFCURVE",
"71 987 CURVE SMOOTH",
"55 986 OFFCURVE",
"47 959 OFFCURVE",
"47 943 CURVE SMOOTH",
"47 918 OFFCURVE",
"57 909 OFFCURVE",
"71 903 CURVE",
"121 889 OFFCURVE",
"220 902 OFFCURVE",
"220 778 CURVE SMOOTH",
"220 142 LINE SMOOTH",
"220 98 OFFCURVE",
"153 84 OFFCURVE",
"104 78 CURVE SMOOTH",
"78 75 OFFCURVE",
"71 62 OFFCURVE",
"71 41 CURVE SMOOTH",
"71 26 OFFCURVE",
"82 0 OFFCURVE",
"105 0 CURVE SMOOTH"
);
}
);
width = 1804;
},
{
anchors = (
{
name = bottom;
position = "{1071, 0}";
},
{
name = top;
position = "{1048, 994}";
}
);
layerId = "62CA62AF-CD91-478A-AB8B-28A62CC47DA0";
paths = (
{
closed = 1;
nodes = (
"637 0 LINE SMOOTH",
"659 0 OFFCURVE",
"671 26 OFFCURVE",
"671 41 CURVE SMOOTH",
"671 71 OFFCURVE",
"663 75 OFFCURVE",
"635 78 CURVE SMOOTH",
"586 82 OFFCURVE",
"533 88 OFFCURVE",
"533 165 CURVE SMOOTH",
"533 737 LINE",
"590 788 OFFCURVE",
"656 862 OFFCURVE",
"785 862 CURVE SMOOTH",
"904 862 OFFCURVE",
"913 760 OFFCURVE",
"913 711 CURVE SMOOTH",
"913 132 LINE SMOOTH",
"913 100 OFFCURVE",
"851 81 OFFCURVE",
"809 78 CURVE",
"783 75 OFFCURVE",
"778 62 OFFCURVE",
"778 41 CURVE SMOOTH",
"778 26 OFFCURVE",
"789 0 OFFCURVE",
"812 0 CURVE SMOOTH",
"1329 0 LINE SMOOTH",
"1352 0 OFFCURVE",
"1363 26 OFFCURVE",
"1363 41 CURVE SMOOTH",
"1363 70 OFFCURVE",
"1352 75 OFFCURVE",
"1330 78 CURVE SMOOTH",
"1280 84 OFFCURVE",
"1221 79 OFFCURVE",
"1221 165 CURVE SMOOTH",
"1221 716 LINE SMOOTH",
"1221 731 OFFCURVE",
"1220 745 OFFCURVE",
"1219 759 CURVE",
"1279 808 OFFCURVE",
"1365 862 OFFCURVE",
"1469 862 CURVE SMOOTH",
"1588 862 OFFCURVE",
"1588 760 OFFCURVE",
"1588 711 CURVE SMOOTH",
"1588 132 LINE SMOOTH",
"1588 100 OFFCURVE",
"1534 81 OFFCURVE",
"1492 78 CURVE",
"1466 75 OFFCURVE",
"1461 62 OFFCURVE",
"1461 41 CURVE SMOOTH",
"1461 26 OFFCURVE",
"1472 0 OFFCURVE",
"1495 0 CURVE SMOOTH",
"2032 0 LINE SMOOTH",
"2055 0 OFFCURVE",
"2066 26 OFFCURVE",
"2066 41 CURVE SMOOTH",
"2066 70 OFFCURVE",
"2055 75 OFFCURVE",
"2033 78 CURVE SMOOTH",
"1983 84 OFFCURVE",
"1906 79 OFFCURVE",
"1906 165 CURVE SMOOTH",
"1906 716 LINE SMOOTH",
"1906 964 OFFCURVE",
"1782 1014 OFFCURVE",
"1634 1014 CURVE SMOOTH",
"1428 1014 OFFCURVE",
"1265 909 OFFCURVE",
"1200 860 CURVE",
"1156 984 OFFCURVE",
"1051 1014 OFFCURVE",
"940 1014 CURVE SMOOTH",
"742 1014 OFFCURVE",
"565 890 OFFCURVE",
"523 845 CURVE",
"523 957 LINE {name = hr02;}",
"520 989 OFFCURVE",
"504 997 OFFCURVE",
"493 997 CURVE SMOOTH",
"415 996 OFFCURVE",
"252 991 OFFCURVE",
"68 983 CURVE SMOOTH",
"52 982 OFFCURVE",
"44 955 OFFCURVE",
"44 939 CURVE SMOOTH",
"44 914 OFFCURVE",
"54 905 OFFCURVE",
"68 899 CURVE",
"118 885 OFFCURVE",
"217 902 OFFCURVE",
"217 778 CURVE SMOOTH",
"217 132 LINE SMOOTH",
"217 95 OFFCURVE",
"160 82 OFFCURVE",
"111 78 CURVE",
"85 75 OFFCURVE",
"78 62 OFFCURVE",
"78 41 CURVE SMOOTH {name = hr01;}",
"78 26 OFFCURVE",
"89 0 OFFCURVE",
"112 0 CURVE SMOOTH"
);
}
);
width = 2080;
}
);
leftKerningGroup = n;
rightKerningGroup = n;
unicode = 006D;
userData = {
com.typemytype.robofont.mark = (
0.967,
0.6,
1,
1
);
};
},
